<?xml version="1.0" encoding="UTF-8" standalone="no"?><!DOCTYPE svg PUBLIC "-//W3C//DTD SVG 1.1//EN" "http://www.w3.org/Graphics/SVG/1.1/DTD/svg11.dtd"><svg width="100%" height="100%" viewBox="0 0 163 24" version="1.1" xmlns="http://www.w3.org/2000/svg" xmlns:xlink="http://www.w3.org/1999/xlink" xml:space="preserve" xmlns:serif="http://www.serif.com/" style="fill-rule:evenodd;clip-rule:evenodd;stroke-linejoin:round;stroke-miterlimit:2;"><g id="aglyn-besigner-logo-full-light"><g id="aglyn-logo-full-dark"><g id="aglyn-logo-mark-multi"><rect x="0" y="0.043" width="24" height="24" style="fill:none;"/><path d="M5,16.248l-0.267,0.184l-1.733,0.152l-0,1.459l-1,0l-0,4l4,0l0,-1l7.171,0l-0.148,-0.262l-0,-1.738l-7.023,0l0,-1l-1,0l0,-1.795Zm14,-7.233l0,9.028l-0.004,0l0,2.738l-0.714,1.262l3.718,0l0,-4l-1,0l0,-10.273c-0.37,0 -0.836,0 -0.836,0c-0.307,0.47 -0.697,0.893 -1.164,1.245Zm-16,0.145l2,-1.376l0,-1.741l1,0l0,-1l4.748,0l0.279,-0.192c0.025,-0.624 0.167,-1.238 0.416,-1.808l-5.443,0l0,-1l-4,0l-0,4l1,0l-0,3.117Zm19,-7.117l-2.029,0c0.067,0.089 0.131,0.18 0.192,0.273l1.281,0l0.556,0.556l0,-0.829Z" style="fill:#e040fb;"/><path d="M15,10.043c0.323,0.074 0.661,0.113 1.01,0.113c0.348,-0 0.687,-0.039 1.009,-0.113l0,10.217l-1.009,1.783l-1.01,-1.783l0,-10.217Zm-1.898,-4.22c-0.345,-1.28 0.196,-2.683 1.398,-3.378c1.434,-0.828 3.27,-0.335 4.098,1.098c0.139,0.241 0.241,0.494 0.307,0.75l1.72,0l0.375,0.375l-0,0.75l-0.375,0.375l-1.721,0c-0.194,0.753 -0.679,1.43 -1.404,1.848c-1.052,0.608 -2.319,0.505 -3.247,-0.158l-3.458,2.379l-0.252,1.364l-3.296,2.267l-1.363,-0.252l-1.843,1.267l-2.041,0.179l0.897,-1.842l1.826,-1.257c0,0 0.257,-1.391 0.257,-1.391l3.296,-2.267l1.39,0.257l3.436,-2.364Zm3.398,0.086c-0.478,0.276 -1.09,0.112 -1.366,-0.366c-0.276,-0.478 -0.112,-1.09 0.366,-1.366c0.478,-0.275 1.09,-0.111 1.366,0.366c0.276,0.478 0.112,1.09 -0.366,1.366Z" style="fill:#00b0ff;"/></g><g id="aglyn-logo-text-dark"><rect x="24" y="0.047" width="55" height="24" style="fill:none;"/><path d="M55.612,19.377c0.246,0.058 0.482,0.106 0.707,0.146c0.224,0.039 0.414,0.059 0.57,0.059c0.257,0 0.477,-0.065 0.658,-0.196c0.182,-0.131 0.355,-0.366 0.518,-0.706c0.163,-0.341 0.34,-0.815 0.53,-1.424l-4.385,-10.908l2.938,0l2.995,8.059l2.618,-8.059l2.697,0l-4.645,13.066c-0.165,0.494 -0.423,0.94 -0.774,1.337c-0.352,0.398 -0.781,0.709 -1.289,0.935c-0.507,0.227 -1.08,0.34 -1.717,0.34c-0.228,-0 -0.457,-0.018 -0.686,-0.054c-0.229,-0.036 -0.475,-0.096 -0.735,-0.182l-0,-2.413Zm-13.445,-2.053c-0.734,0 -1.408,-0.144 -2.023,-0.433c-0.614,-0.289 -1.14,-0.69 -1.579,-1.201c-0.438,-0.511 -0.777,-1.1 -1.017,-1.766c-0.241,-0.666 -0.361,-1.373 -0.361,-2.12c0,-0.789 0.125,-1.525 0.375,-2.208c0.25,-0.683 0.604,-1.284 1.062,-1.801c0.458,-0.518 1,-0.921 1.626,-1.21c0.627,-0.289 1.32,-0.434 2.081,-0.434c0.859,0 1.614,0.193 2.266,0.578c0.651,0.384 1.184,0.898 1.599,1.541l-0,-1.922l2.477,0l0,10.388c0,1.078 -0.264,2.002 -0.793,2.772c-0.529,0.771 -1.256,1.362 -2.182,1.774c-0.925,0.412 -1.979,0.617 -3.162,0.617c-1.208,0 -2.227,-0.199 -3.058,-0.598c-0.83,-0.399 -1.541,-0.954 -2.132,-1.665l1.545,-1.491c0.424,0.52 0.956,0.925 1.596,1.216c0.641,0.291 1.324,0.437 2.049,0.437c0.594,-0 1.141,-0.107 1.642,-0.322c0.501,-0.215 0.903,-0.549 1.207,-1.002c0.304,-0.452 0.456,-1.032 0.456,-1.738l0,-1.371c-0.364,0.623 -0.88,1.105 -1.547,1.447c-0.667,0.342 -1.376,0.512 -2.127,0.512Zm-16.167,-3.288c0,-0.713 0.202,-1.335 0.607,-1.867c0.405,-0.531 0.964,-0.946 1.678,-1.242c0.714,-0.297 1.536,-0.445 2.466,-0.445c0.468,0 0.941,0.037 1.417,0.11c0.476,0.073 0.894,0.183 1.253,0.33l0,-0.585c0,-0.689 -0.207,-1.221 -0.622,-1.597c-0.416,-0.376 -1.031,-0.563 -1.846,-0.563c-0.613,-0 -1.194,0.104 -1.744,0.313c-0.551,0.209 -1.129,0.511 -1.737,0.908l-0.895,-1.817c0.731,-0.48 1.48,-0.838 2.246,-1.075c0.767,-0.236 1.575,-0.355 2.427,-0.355c1.568,0 2.794,0.389 3.678,1.165c0.884,0.777 1.326,1.89 1.326,3.34l-0,3.484c-0,0.291 0.05,0.498 0.151,0.621c0.102,0.123 0.274,0.195 0.517,0.215l-0,2.28c-0.247,0.046 -0.472,0.081 -0.676,0.105c-0.204,0.023 -0.38,0.034 -0.528,0.034c-0.564,0 -0.99,-0.122 -1.278,-0.368c-0.289,-0.245 -0.466,-0.553 -0.532,-0.923l-0.061,-0.556c-0.486,0.617 -1.087,1.091 -1.805,1.421c-0.718,0.33 -1.451,0.495 -2.199,0.495c-0.733,-0 -1.392,-0.151 -1.976,-0.452c-0.584,-0.302 -1.041,-0.712 -1.371,-1.232c-0.331,-0.519 -0.496,-1.1 -0.496,-1.744Zm24.558,-11.982l2.833,0l-0,11.696c-0,0.509 0.086,0.85 0.258,1.023c0.172,0.174 0.4,0.26 0.684,0.26c0.239,0 0.476,-0.029 0.712,-0.089c0.236,-0.059 0.443,-0.13 0.62,-0.212l0.391,2.138c-0.386,0.169 -0.831,0.304 -1.333,0.407c-0.502,0.102 -0.963,0.153 -1.382,0.153c-0.878,-0 -1.561,-0.234 -2.05,-0.703c-0.488,-0.468 -0.733,-1.129 -0.733,-1.982l0,-12.691Zm26.442,15.202l-2.832,-0l-0,-6.118c-0,-0.877 -0.155,-1.517 -0.463,-1.92c-0.308,-0.403 -0.737,-0.604 -1.285,-0.604c-0.381,-0 -0.765,0.098 -1.154,0.295c-0.389,0.196 -0.738,0.464 -1.046,0.803c-0.308,0.339 -0.537,0.729 -0.687,1.172l-0,6.372l-2.833,-0l0,-10.908l2.559,0l-0,2.013c0.283,-0.463 0.645,-0.859 1.084,-1.187c0.44,-0.328 0.943,-0.58 1.509,-0.757c0.566,-0.177 1.171,-0.266 1.812,-0.266c0.692,0 1.257,0.123 1.696,0.367c0.44,0.245 0.778,0.574 1.015,0.987c0.237,0.412 0.4,0.873 0.49,1.381c0.09,0.508 0.135,1.026 0.135,1.554l0,6.816Zm-44.119,-2.675c0.163,-0.156 0.294,-0.32 0.392,-0.49c0.099,-0.17 0.148,-0.324 0.148,-0.463l0,-1.109c-0.341,-0.129 -0.709,-0.231 -1.102,-0.306c-0.393,-0.074 -0.768,-0.112 -1.125,-0.112c-0.735,0 -1.337,0.154 -1.808,0.463c-0.47,0.308 -0.705,0.719 -0.705,1.232c-0,0.279 0.077,0.543 0.233,0.794c0.155,0.252 0.38,0.455 0.674,0.61c0.294,0.155 0.649,0.232 1.065,0.232c0.425,0 0.84,-0.08 1.243,-0.24c0.404,-0.16 0.733,-0.364 0.985,-0.611Zm10.247,0.512c0.306,-0 0.599,-0.049 0.88,-0.148c0.28,-0.098 0.541,-0.23 0.781,-0.397c0.24,-0.166 0.451,-0.362 0.634,-0.588c0.183,-0.226 0.322,-0.463 0.418,-0.712l0,-2.598c-0.165,-0.424 -0.4,-0.796 -0.703,-1.115c-0.302,-0.32 -0.642,-0.568 -1.018,-0.746c-0.376,-0.177 -0.763,-0.266 -1.161,-0.266c-0.436,-0 -0.832,0.093 -1.187,0.279c-0.355,0.186 -0.659,0.439 -0.911,0.759c-0.253,0.321 -0.448,0.68 -0.586,1.078c-0.137,0.399 -0.206,0.81 -0.206,1.235c0,0.447 0.078,0.865 0.234,1.253c0.156,0.388 0.372,0.731 0.646,1.027c0.275,0.297 0.6,0.528 0.976,0.692c0.376,0.164 0.777,0.247 1.203,0.247Z" style="fill:#00b0ff;fill-rule:nonzero;"/></g></g><g id="besigner-logo-text-light"><rect x="79" y="0.047" width="84" height="24" style="fill:none;"/><path d="M123.426,17.493c-0.733,-0 -1.406,-0.151 -2.022,-0.452c-0.615,-0.3 -1.144,-0.713 -1.586,-1.238c-0.442,-0.524 -0.784,-1.123 -1.026,-1.794c-0.242,-0.672 -0.363,-1.371 -0.363,-2.099c-0,-0.769 0.121,-1.497 0.363,-2.182c0.242,-0.686 0.587,-1.291 1.036,-1.816c0.45,-0.524 0.978,-0.937 1.587,-1.238c0.608,-0.301 1.285,-0.451 2.032,-0.451c0.898,-0 1.683,0.224 2.353,0.672c0.671,0.447 1.234,1.014 1.69,1.699l0,-2.182l1.618,-0l-0,10.829c-0,1.035 -0.246,1.91 -0.736,2.623c-0.491,0.714 -1.155,1.256 -1.991,1.627c-0.836,0.37 -1.766,0.556 -2.789,0.556c-1.217,-0 -2.212,-0.217 -2.986,-0.651c-0.774,-0.434 -1.417,-1.021 -1.928,-1.763l1.057,-0.944c0.429,0.643 0.985,1.126 1.669,1.448c0.685,0.322 1.414,0.483 2.188,0.483c0.664,-0 1.275,-0.123 1.835,-0.368c0.56,-0.244 1.009,-0.619 1.348,-1.122c0.339,-0.504 0.508,-1.134 0.508,-1.889l0,-1.931c-0.401,0.672 -0.95,1.203 -1.648,1.595c-0.699,0.392 -1.435,0.588 -2.209,0.588Zm-36.869,0.084c-0.843,-0 -1.61,-0.21 -2.301,-0.63c-0.692,-0.42 -1.238,-0.965 -1.639,-1.637l0,2.057l-1.617,-0l0,-15.32l1.825,-0l-0,6.547c0.456,-0.713 1.016,-1.287 1.679,-1.72c0.664,-0.434 1.438,-0.651 2.323,-0.651c0.746,-0 1.417,0.157 2.011,0.472c0.595,0.315 1.103,0.742 1.524,1.28c0.422,0.539 0.747,1.148 0.975,1.826c0.228,0.679 0.342,1.389 0.342,2.13c0,0.77 -0.128,1.494 -0.384,2.172c-0.255,0.679 -0.618,1.281 -1.088,1.805c-0.47,0.525 -1.013,0.934 -1.628,1.228c-0.615,0.294 -1.289,0.441 -2.022,0.441Zm22.603,-0c-0.899,-0 -1.742,-0.151 -2.53,-0.452c-0.788,-0.3 -1.465,-0.752 -2.032,-1.353l0.705,-1.301c0.622,0.587 1.244,1.007 1.866,1.259c0.622,0.252 1.258,0.378 1.908,0.378c0.746,-0 1.354,-0.144 1.825,-0.431c0.47,-0.286 0.705,-0.71 0.705,-1.269c-0,-0.406 -0.121,-0.707 -0.363,-0.903c-0.242,-0.196 -0.584,-0.36 -1.027,-0.493c-0.442,-0.133 -0.967,-0.283 -1.576,-0.451c-0.746,-0.224 -1.375,-0.462 -1.887,-0.714c-0.511,-0.251 -0.898,-0.566 -1.161,-0.944c-0.263,-0.378 -0.394,-0.853 -0.394,-1.427c0,-0.7 0.18,-1.291 0.539,-1.773c0.36,-0.483 0.854,-0.85 1.483,-1.102c0.629,-0.252 1.344,-0.378 2.146,-0.378c0.802,-0 1.528,0.126 2.177,0.378c0.65,0.252 1.21,0.622 1.68,1.112l-0.829,1.28c-0.429,-0.448 -0.899,-0.78 -1.411,-0.997c-0.511,-0.217 -1.085,-0.325 -1.721,-0.325c-0.373,0 -0.739,0.046 -1.099,0.136c-0.359,0.091 -0.656,0.252 -0.891,0.483c-0.235,0.231 -0.353,0.556 -0.353,0.976c0,0.35 0.093,0.626 0.28,0.829c0.187,0.203 0.463,0.374 0.83,0.514c0.366,0.14 0.812,0.294 1.337,0.462c0.816,0.238 1.524,0.476 2.125,0.713c0.602,0.238 1.068,0.546 1.4,0.924c0.332,0.378 0.498,0.902 0.498,1.574c-0,1.035 -0.387,1.843 -1.161,2.424c-0.775,0.58 -1.798,0.871 -3.069,0.871Zm-10.866,-0c-0.816,-0 -1.559,-0.151 -2.229,-0.452c-0.671,-0.3 -1.251,-0.713 -1.742,-1.238c-0.491,-0.524 -0.871,-1.13 -1.141,-1.815c-0.269,-0.686 -0.404,-1.413 -0.404,-2.183c0,-1.035 0.235,-1.979 0.705,-2.833c0.47,-0.853 1.123,-1.539 1.96,-2.057c0.836,-0.517 1.793,-0.776 2.872,-0.776c1.092,-0 2.042,0.262 2.851,0.787c0.809,0.525 1.438,1.21 1.887,2.057c0.449,0.846 0.674,1.759 0.674,2.738c-0,0.14 -0.004,0.277 -0.011,0.41c-0.006,0.133 -0.017,0.234 -0.031,0.304l-8.978,-0c0.055,0.713 0.252,1.347 0.591,1.899c0.338,0.553 0.777,0.987 1.316,1.301c0.539,0.315 1.12,0.473 1.742,0.473c0.664,-0 1.289,-0.168 1.877,-0.504c0.587,-0.336 0.992,-0.777 1.213,-1.322l1.576,0.44c-0.235,0.532 -0.584,1.008 -1.047,1.427c-0.464,0.42 -1.01,0.749 -1.639,0.987c-0.629,0.238 -1.309,0.357 -2.042,0.357Zm49.829,-0c-0.816,-0 -1.559,-0.151 -2.229,-0.452c-0.671,-0.3 -1.251,-0.713 -1.742,-1.238c-0.491,-0.524 -0.871,-1.13 -1.141,-1.815c-0.269,-0.686 -0.404,-1.413 -0.404,-2.183c0,-1.035 0.235,-1.979 0.705,-2.833c0.47,-0.853 1.123,-1.539 1.96,-2.057c0.836,-0.517 1.793,-0.776 2.872,-0.776c1.092,-0 2.042,0.262 2.851,0.787c0.809,0.525 1.438,1.21 1.887,2.057c0.449,0.846 0.674,1.759 0.674,2.738c-0,0.14 -0.004,0.277 -0.011,0.41c-0.007,0.133 -0.017,0.234 -0.031,0.304l-8.978,-0c0.055,0.713 0.252,1.347 0.59,1.899c0.339,0.553 0.778,0.987 1.317,1.301c0.539,0.315 1.12,0.473 1.742,0.473c0.664,-0 1.289,-0.168 1.877,-0.504c0.587,-0.336 0.992,-0.777 1.213,-1.322l1.576,0.44c-0.235,0.532 -0.584,1.008 -1.047,1.427c-0.464,0.42 -1.01,0.749 -1.639,0.987c-0.629,0.238 -1.309,0.357 -2.042,0.357Zm-32.908,-0.21l-0,-10.955l1.824,-0l0,10.955l-1.824,-0Zm45.785,-9.339c-0.912,0.014 -1.718,0.248 -2.416,0.703c-0.698,0.455 -1.192,1.081 -1.482,1.878l-0,6.758l-1.825,-0l-0,-10.955l1.7,-0l0,2.539c0.373,-0.755 0.868,-1.367 1.483,-1.836c0.615,-0.469 1.261,-0.731 1.939,-0.787l0.352,-0c0.097,-0 0.18,0.007 0.249,0.021l0,1.679Zm-19.99,9.339l-1.824,-0l-0,-6.128c-0,-1.162 -0.177,-2.011 -0.529,-2.55c-0.353,-0.539 -0.888,-0.808 -1.607,-0.808c-0.498,-0 -0.992,0.126 -1.483,0.378c-0.491,0.252 -0.926,0.591 -1.306,1.018c-0.38,0.426 -0.653,0.919 -0.819,1.479l-0,6.611l-1.825,-0l-0,-10.955l1.659,-0l-0,2.35c0.29,-0.517 0.663,-0.965 1.12,-1.343c0.456,-0.378 0.974,-0.671 1.555,-0.881c0.58,-0.21 1.189,-0.315 1.825,-0.315c0.622,-0 1.143,0.115 1.565,0.346c0.422,0.231 0.754,0.553 0.995,0.966c0.242,0.412 0.415,0.899 0.519,1.458c0.104,0.56 0.155,1.168 0.155,1.826l0,6.548Zm-54.909,-1.385c0.539,-0 1.037,-0.112 1.493,-0.336c0.456,-0.224 0.85,-0.525 1.182,-0.903c0.332,-0.377 0.588,-0.811 0.767,-1.301c0.18,-0.489 0.27,-0.993 0.27,-1.511c-0,-0.713 -0.149,-1.385 -0.446,-2.014c-0.297,-0.63 -0.712,-1.137 -1.244,-1.522c-0.532,-0.385 -1.151,-0.577 -1.856,-0.577c-0.512,-0 -0.988,0.119 -1.431,0.357c-0.442,0.238 -0.833,0.549 -1.171,0.934c-0.339,0.384 -0.619,0.808 -0.84,1.269l-0,3.169c0.069,0.35 0.214,0.672 0.435,0.966c0.221,0.293 0.491,0.549 0.809,0.766c0.318,0.216 0.653,0.388 1.006,0.514c0.352,0.126 0.694,0.189 1.026,0.189Zm37.885,-0c0.387,-0 0.76,-0.07 1.12,-0.21c0.359,-0.14 0.691,-0.326 0.995,-0.556c0.304,-0.231 0.56,-0.494 0.767,-0.787c0.208,-0.294 0.346,-0.595 0.415,-0.903l0,-3.148c-0.193,-0.503 -0.47,-0.948 -0.829,-1.332c-0.36,-0.385 -0.768,-0.686 -1.224,-0.903c-0.456,-0.217 -0.926,-0.325 -1.41,-0.325c-0.553,-0 -1.047,0.119 -1.483,0.357c-0.435,0.238 -0.805,0.556 -1.109,0.955c-0.304,0.398 -0.539,0.843 -0.705,1.332c-0.166,0.49 -0.249,0.987 -0.249,1.49c0,0.546 0.097,1.06 0.291,1.543c0.193,0.482 0.456,0.913 0.788,1.29c0.331,0.378 0.725,0.672 1.181,0.882c0.457,0.21 0.941,0.315 1.452,0.315Zm-29.342,-4.743l7.382,-0c-0.055,-0.714 -0.255,-1.343 -0.601,-1.889c-0.346,-0.546 -0.788,-0.972 -1.327,-1.28c-0.539,-0.308 -1.134,-0.462 -1.783,-0.462c-0.636,0 -1.224,0.154 -1.763,0.462c-0.539,0.308 -0.978,0.734 -1.317,1.28c-0.338,0.546 -0.535,1.175 -0.591,1.889Zm49.829,-0l7.382,-0c-0.055,-0.714 -0.255,-1.343 -0.601,-1.889c-0.346,-0.546 -0.788,-0.972 -1.327,-1.28c-0.539,-0.308 -1.134,-0.462 -1.783,-0.462c-0.636,0 -1.224,0.154 -1.763,0.462c-0.539,0.308 -0.978,0.734 -1.317,1.28c-0.338,0.546 -0.535,1.175 -0.591,1.889Zm-29.258,-6.884l-0,-2.308l1.824,-0l0,2.308l-1.824,0Z" style="fill:#fff;fill-rule:nonzero;"/></g></g></svg>