<?xml version="1.0" encoding="UTF-8" standalone="no"?>
<!DOCTYPE svg PUBLIC "-//W3C//DTD SVG 1.1//EN" "http://www.w3.org/Graphics/SVG/1.1/DTD/svg11.dtd">
<svg width="100%" height="100%" viewBox="0 0 24 24" version="1.1" xmlns="http://www.w3.org/2000/svg" xmlns:xlink="http://www.w3.org/1999/xlink" xml:space="preserve" xmlns:serif="http://www.serif.com/" style="fill-rule:evenodd;clip-rule:evenodd;stroke-linejoin:round;stroke-miterlimit:2;">
    <path id="shape-controls" serif:id="shape controls" d="M6,4L6,3L3,3L3,6L4,6L4,18L3,18L3,21L6,21L6,20L18,20L18,21L21,21L21,18L20,18L20,6L21,6L21,3L18,3L18,4L6,4ZM18,5L6,5L6,6L5,6L5,18L6,18L6,19L18,19L18,18L19,18L19,6L18,6L18,5ZM8,19L9,19L9,15L5,15L5,16L8,16L8,19Z" style="fill:rgb(224,64,251);"/>
    <g id="Compass" transform="matrix(0.5,0.866025,-0.866025,0.5,14.1866,-8.37437)">
        <path d="M13.25,9.885C12.236,9.567 11.5,8.619 11.5,7.5C11.5,6.617 11.959,5.84 12.651,5.395C12.581,5.316 12.507,5.236 12.438,5.167C12.302,5.031 11.874,4.743 11.874,4.743L11.874,4.743C11.784,4.652 11.728,4.527 11.728,4.389C11.728,4.113 11.952,3.889 12.228,3.889C12.329,3.889 12.424,3.919 12.503,3.972C12.503,3.972 12.829,4.135 13.157,4.461C13.46,4.761 13.599,4.948 13.65,5.024C13.764,5.008 13.881,5 14,5C15.38,5 16.5,6.12 16.5,7.5C16.5,8.619 15.764,9.567 14.75,9.885L14.75,13C15.164,13 15.5,13.336 15.5,13.75L15.5,17.25C15.5,17.664 15.164,18 14.75,18L14.75,19.5L14,21L13.25,19.5L13.25,18C12.836,18 12.5,17.664 12.5,17.25L12.5,13.75C12.5,13.336 12.836,13 13.25,13L13.25,9.885ZM16.574,9.852C16.747,9.676 16.902,9.474 17.031,9.25C17.161,9.026 17.258,8.792 17.324,8.553L24.767,12.851L25.691,14.25L24.017,14.15L16.574,9.852ZM14,6.25C14.69,6.25 15.25,6.81 15.25,7.5C15.25,8.19 14.69,8.75 14,8.75C13.31,8.75 12.75,8.19 12.75,7.5C12.75,6.81 13.31,6.25 14,6.25Z" style="fill:rgb(0,176,255);"/>
    </g>
</svg>
