<svg viewBox="0 0 220 24" xmlns="http://www.w3.org/2000/svg" style="fill-rule:evenodd;clip-rule:evenodd;">
  <title>Aglyn Documentation</title>
  <g id="aglyn-logo-mark-multi">
    <path fill="#e040fb" d="M5,16.245l-0.267,0.184l-1.733,0.152l-0,1.459l-1,0l-0,4l4,0l0,-1l7.171,0l-0.148,-0.262l-0,-1.738l-7.023,0l0,-1l-1,0l0,-1.795Zm14,-7.233l0,9.028l-0.004,0l0,2.738l-0.714,1.262l3.718,0l0,-4l-1,0l0,-10.273c-0.37,0 -0.836,-0 -0.836,-0c-0.307,0.47 -0.697,0.893 -1.164,1.245Zm-16,0.145l2,-1.376l0,-1.741l1,0l0,-1l4.748,0l0.279,-0.192c0.025,-0.624 0.167,-1.238 0.416,-1.808l-5.443,0l0,-1l-4,0l-0,4l1,0l-0,3.117Zm19,-7.117l-2.029,0c0.067,0.088 0.131,0.179 0.192,0.273l1.281,0l0.556,0.556l0,-0.829Z" fill-rule="evenodd" clip-rule="evenodd"/>
    <path fill="#00b0ff" d="M15,10.04c0.323,0.073 0.661,0.112 1.01,0.112c0.348,0 0.687,-0.039 1.009,-0.112l0,10.217l-1.009,1.783l-1.01,-1.783l0,-10.217Zm-1.898,-4.22c-0.345,-1.281 0.196,-2.684 1.398,-3.378c1.434,-0.828 3.27,-0.336 4.098,1.098c0.139,0.241 0.241,0.493 0.307,0.75l1.72,0l0.375,0.375l-0,0.75l-0.375,0.375l-1.721,0c-0.194,0.752 -0.679,1.429 -1.404,1.848c-1.052,0.607 -2.319,0.505 -3.247,-0.159l-3.458,2.379l-0.252,1.364l-3.296,2.267l-1.363,-0.252l-1.843,1.268l-2.041,0.179l0.897,-1.843l1.826,-1.256c0,-0 0.257,-1.391 0.257,-1.391l3.296,-2.267l1.39,0.257l3.436,-2.364Zm3.398,0.086c-0.478,0.276 -1.09,0.112 -1.366,-0.366c-0.276,-0.478 -0.112,-1.09 0.366,-1.366c0.478,-0.276 1.09,-0.112 1.366,0.366c0.276,0.478 0.112,1.09 -0.366,1.366Z" fill-rule="evenodd" clip-rule="evenodd"/>
  </g>
  <g id="aglyn-logo-text">
    <path fill="#00b0ff" fill-rule="nonzero" d="M55.612,19.374c0.246,0.057 0.482,0.106 0.707,0.145c0.224,0.04 0.414,0.06 0.57,0.06c0.257,-0 0.477,-0.066 0.658,-0.196c0.182,-0.131 0.355,-0.366 0.518,-0.707c0.163,-0.34 0.34,-0.815 0.53,-1.424l-4.385,-10.907l2.938,-0l2.995,8.059l2.618,-8.059l2.697,-0l-4.645,13.065c-0.165,0.495 -0.423,0.941 -0.774,1.338c-0.352,0.397 -0.781,0.709 -1.289,0.935c-0.507,0.226 -1.08,0.339 -1.717,0.339c-0.228,0 -0.457,-0.018 -0.686,-0.053c-0.229,-0.036 -0.475,-0.097 -0.735,-0.182l-0,-2.413Zm-13.445,-2.053c-0.734,0 -1.408,-0.145 -2.023,-0.434c-0.614,-0.289 -1.14,-0.689 -1.579,-1.2c-0.438,-0.511 -0.777,-1.1 -1.017,-1.766c-0.241,-0.667 -0.361,-1.373 -0.361,-2.12c0,-0.789 0.125,-1.525 0.375,-2.208c0.25,-0.684 0.604,-1.284 1.062,-1.802c0.458,-0.517 1,-0.92 1.626,-1.209c0.627,-0.289 1.32,-0.434 2.081,-0.434c0.859,0 1.614,0.192 2.266,0.577c0.651,0.385 1.184,0.899 1.599,1.541l-0,-1.921l2.477,-0l0,10.388c0,1.078 -0.264,2.002 -0.793,2.772c-0.529,0.771 -1.256,1.362 -2.182,1.774c-0.925,0.411 -1.979,0.617 -3.162,0.617c-1.208,0 -2.227,-0.199 -3.058,-0.598c-0.83,-0.399 -1.541,-0.954 -2.132,-1.665l1.545,-1.491c0.424,0.519 0.956,0.925 1.596,1.216c0.641,0.291 1.324,0.437 2.049,0.437c0.594,-0 1.141,-0.108 1.642,-0.323c0.501,-0.214 0.903,-0.548 1.207,-1.001c0.304,-0.453 0.456,-1.032 0.456,-1.738l0,-1.371c-0.364,0.623 -0.88,1.105 -1.547,1.446c-0.667,0.342 -1.376,0.513 -2.127,0.513Zm-16.167,-3.288c0,-0.713 0.202,-1.335 0.607,-1.867c0.405,-0.532 0.964,-0.946 1.678,-1.242c0.714,-0.297 1.536,-0.445 2.466,-0.445c0.468,-0 0.941,0.036 1.417,0.11c0.476,0.073 0.894,0.183 1.253,0.329l0,-0.584c0,-0.689 -0.207,-1.222 -0.622,-1.597c-0.416,-0.376 -1.031,-0.564 -1.846,-0.564c-0.613,0 -1.194,0.105 -1.744,0.314c-0.551,0.208 -1.129,0.511 -1.737,0.907l-0.895,-1.817c0.731,-0.479 1.48,-0.837 2.246,-1.074c0.767,-0.237 1.575,-0.355 2.427,-0.355c1.568,0 2.794,0.388 3.678,1.165c0.884,0.777 1.326,1.89 1.326,3.34l-0,3.484c-0,0.291 0.05,0.498 0.151,0.621c0.102,0.123 0.274,0.194 0.517,0.215l-0,2.279c-0.247,0.047 -0.472,0.082 -0.676,0.105c-0.204,0.023 -0.38,0.035 -0.528,0.035c-0.564,-0 -0.99,-0.123 -1.278,-0.368c-0.289,-0.245 -0.466,-0.553 -0.532,-0.923l-0.061,-0.556c-0.486,0.617 -1.087,1.091 -1.805,1.421c-0.718,0.33 -1.451,0.495 -2.199,0.495c-0.733,-0 -1.392,-0.151 -1.976,-0.453c-0.584,-0.301 -1.041,-0.712 -1.371,-1.231c-0.331,-0.519 -0.496,-1.101 -0.496,-1.744Zm24.558,-11.982l2.833,0l-0,11.695c-0,0.51 0.086,0.851 0.258,1.024c0.172,0.173 0.4,0.26 0.684,0.26c0.239,0 0.476,-0.03 0.712,-0.089c0.236,-0.059 0.443,-0.13 0.62,-0.212l0.391,2.138c-0.386,0.169 -0.831,0.304 -1.333,0.406c-0.502,0.102 -0.963,0.153 -1.382,0.153c-0.878,0 -1.561,-0.234 -2.05,-0.702c-0.488,-0.469 -0.733,-1.129 -0.733,-1.983l0,-12.69Zm26.442,15.201l-2.832,0l-0,-6.118c-0,-0.877 -0.155,-1.516 -0.463,-1.919c-0.308,-0.403 -0.737,-0.605 -1.285,-0.605c-0.381,0 -0.765,0.099 -1.154,0.295c-0.389,0.197 -0.738,0.465 -1.046,0.804c-0.308,0.338 -0.537,0.729 -0.687,1.172l-0,6.371l-2.833,0l0,-10.907l2.559,-0l-0,2.013c0.283,-0.464 0.645,-0.86 1.084,-1.187c0.44,-0.328 0.943,-0.581 1.509,-0.758c0.566,-0.176 1.171,-0.265 1.812,-0.265c0.692,0 1.257,0.122 1.696,0.367c0.44,0.245 0.778,0.574 1.015,0.986c0.237,0.413 0.4,0.873 0.49,1.382c0.09,0.508 0.135,1.026 0.135,1.553l0,6.816Zm-44.119,-2.674c0.163,-0.157 0.294,-0.32 0.392,-0.49c0.099,-0.17 0.148,-0.325 0.148,-0.463l0,-1.11c-0.341,-0.129 -0.709,-0.231 -1.102,-0.305c-0.393,-0.075 -0.768,-0.112 -1.125,-0.112c-0.735,-0 -1.337,0.154 -1.808,0.463c-0.47,0.308 -0.705,0.719 -0.705,1.232c-0,0.278 0.077,0.543 0.233,0.794c0.155,0.251 0.38,0.454 0.674,0.609c0.294,0.155 0.649,0.233 1.065,0.233c0.425,0 0.84,-0.08 1.243,-0.24c0.404,-0.16 0.733,-0.364 0.985,-0.611Zm10.247,0.511c0.306,0 0.599,-0.049 0.88,-0.147c0.28,-0.098 0.541,-0.23 0.781,-0.397c0.24,-0.166 0.451,-0.362 0.634,-0.588c0.183,-0.226 0.322,-0.463 0.418,-0.713l0,-2.597c-0.165,-0.425 -0.4,-0.797 -0.703,-1.116c-0.302,-0.319 -0.642,-0.567 -1.018,-0.745c-0.376,-0.178 -0.763,-0.267 -1.161,-0.267c-0.436,0 -0.832,0.093 -1.187,0.279c-0.355,0.186 -0.659,0.439 -0.911,0.76c-0.253,0.321 -0.448,0.68 -0.586,1.078c-0.137,0.398 -0.206,0.81 -0.206,1.234c0,0.448 0.078,0.866 0.234,1.254c0.156,0.388 0.372,0.731 0.646,1.027c0.275,0.297 0.6,0.527 0.976,0.692c0.376,0.164 0.777,0.246 1.203,0.246Z"/>
  </g>
  <g id="documentation-logo-text">
    <path fill="rgba(255,255,255,0.87)" fill-rule="nonzero" d="M81.951 11.905L81.951 11.695Q81.951 10.453 82.256 9.437Q82.562 8.421 83.127 7.691Q83.693 6.960 84.478 6.565Q85.264 6.169 86.235 6.169Q87.256 6.169 88.027 6.520Q88.728 6.850 89.238 7.450L89.238 1.825L91.100 1.825L91.100 17.200L89.398 17.200L89.308 16.039Q88.778 16.690 88.017 17.040Q87.246 17.400 86.215 17.400Q85.264 17.400 84.478 16.990Q83.693 16.579 83.127 15.839Q82.562 15.098 82.256 14.092Q81.951 13.086 81.951 11.905M83.813 11.695L83.813 11.905Q83.813 12.716 83.978 13.426Q84.143 14.137 84.493 14.678Q84.844 15.218 85.384 15.523Q85.925 15.829 86.676 15.829Q87.596 15.829 88.192 15.438Q88.788 15.048 89.148 14.407Q89.198 14.327 89.238 14.237L89.238 9.282Q89.048 8.922 88.788 8.612Q88.427 8.211 87.912 7.971Q87.396 7.731 86.696 7.731Q85.935 7.731 85.389 8.046Q84.844 8.361 84.493 8.907Q84.143 9.452 83.978 10.168Q83.813 10.884 83.813 11.695M93.482 11.905L93.482 11.675Q93.482 10.503 93.823 9.497Q94.163 8.492 94.803 7.746Q95.444 7 96.355 6.585Q97.266 6.169 98.397 6.169Q99.538 6.169 100.454 6.585Q101.370 7 102.016 7.746Q102.661 8.492 103.001 9.497Q103.342 10.503 103.342 11.675L103.342 11.905Q103.342 13.076 103.001 14.077Q102.661 15.078 102.016 15.824Q101.370 16.569 100.464 16.985Q99.558 17.400 98.417 17.400Q97.276 17.400 96.365 16.985Q95.454 16.569 94.808 15.824Q94.163 15.078 93.823 14.077Q93.482 13.076 93.482 11.905M95.334 11.675L95.334 11.905Q95.334 12.716 95.524 13.431Q95.714 14.147 96.100 14.698Q96.485 15.248 97.066 15.563Q97.646 15.879 98.417 15.879Q99.178 15.879 99.753 15.563Q100.329 15.248 100.709 14.698Q101.090 14.147 101.285 13.431Q101.480 12.716 101.480 11.905L101.480 11.675Q101.480 10.874 101.285 10.158Q101.090 9.442 100.704 8.887Q100.319 8.331 99.743 8.011Q99.168 7.691 98.397 7.691Q97.636 7.691 97.061 8.011Q96.485 8.331 96.100 8.887Q95.714 9.442 95.524 10.158Q95.334 10.874 95.334 11.675M109.998 15.879Q110.659 15.879 111.219 15.608Q111.780 15.338 112.140 14.863Q112.501 14.387 112.551 13.777L114.313 13.777Q114.262 14.738 113.667 15.563Q113.071 16.389 112.110 16.895Q111.149 17.400 109.998 17.400Q108.777 17.400 107.871 16.970Q106.965 16.539 106.370 15.789Q105.774 15.038 105.479 14.062Q105.184 13.086 105.184 11.995L105.184 11.575Q105.184 10.483 105.479 9.507Q105.774 8.532 106.370 7.781Q106.965 7.030 107.871 6.600Q108.777 6.169 109.998 6.169Q111.270 6.169 112.220 6.685Q113.171 7.200 113.717 8.086Q114.262 8.972 114.313 10.093L112.551 10.093Q112.501 9.422 112.175 8.882Q111.850 8.341 111.295 8.016Q110.739 7.691 109.998 7.691Q109.147 7.691 108.572 8.026Q107.996 8.361 107.661 8.927Q107.326 9.492 107.181 10.178Q107.035 10.864 107.035 11.575L107.035 11.995Q107.035 12.706 107.176 13.396Q107.316 14.087 107.651 14.648Q107.986 15.208 108.562 15.543Q109.137 15.879 109.998 15.879M123.021 14.247L123.021 6.369L124.883 6.369L124.883 17.200L123.111 17.200L123.071 16.129Q122.601 16.690 121.880 17.020Q121.069 17.400 119.908 17.400Q119.117 17.400 118.462 17.170Q117.806 16.940 117.335 16.459Q116.865 15.979 116.610 15.208Q116.354 14.437 116.354 13.356L116.354 6.369L118.206 6.369L118.206 13.376Q118.206 14.107 118.371 14.582Q118.537 15.058 118.822 15.333Q119.107 15.608 119.463 15.719Q119.818 15.829 120.198 15.829Q121.379 15.829 122.070 15.368Q122.711 14.948 123.021 14.247M129.537 9.262L129.537 17.200L127.676 17.200L127.676 6.369L129.437 6.369L129.487 7.551Q130.018 6.910 130.789 6.550Q131.609 6.169 132.690 6.169Q133.451 6.169 134.092 6.384Q134.732 6.600 135.203 7.060Q135.563 7.410 135.793 7.901Q135.914 7.731 136.064 7.561Q136.604 6.920 137.405 6.545Q138.206 6.169 139.237 6.169Q140.108 6.169 140.783 6.399Q141.459 6.630 141.924 7.105Q142.390 7.581 142.630 8.321Q142.870 9.062 142.870 10.083L142.870 17.200L141.009 17.200L141.009 10.063Q141.009 9.152 140.723 8.647Q140.438 8.141 139.922 7.936Q139.407 7.731 138.696 7.731Q138.086 7.731 137.615 7.941Q137.145 8.151 136.824 8.517Q136.504 8.882 136.344 9.352Q136.234 9.663 136.194 9.993L136.194 17.200L134.342 17.200L134.342 10.073Q134.342 9.222 134.057 8.712Q133.771 8.201 133.251 7.966Q132.730 7.731 132.030 7.731Q131.209 7.731 130.658 8.021Q130.108 8.311 129.778 8.822Q129.637 9.032 129.537 9.262M150.167 17.400Q149.036 17.400 148.120 17.015Q147.205 16.629 146.549 15.929Q145.893 15.228 145.543 14.267Q145.193 13.306 145.193 12.165L145.193 11.745Q145.193 10.423 145.583 9.387Q145.973 8.351 146.644 7.631Q147.315 6.910 148.166 6.540Q149.016 6.169 149.927 6.169Q151.088 6.169 151.934 6.570Q152.780 6.970 153.321 7.686Q153.861 8.401 154.121 9.367Q154.382 10.333 154.382 11.474L154.382 12.305L147.054 12.305Q147.074 12.996 147.275 13.606Q147.485 14.287 147.900 14.798Q148.316 15.308 148.911 15.598Q149.507 15.889 150.268 15.889Q151.249 15.889 151.929 15.488Q152.610 15.088 153.120 14.417L154.241 15.308Q153.891 15.839 153.351 16.319Q152.810 16.800 152.024 17.100Q151.239 17.400 150.167 17.400M147.115 10.794L152.530 10.794L152.530 10.654Q152.490 9.933 152.234 9.252Q151.979 8.572 151.429 8.131Q150.878 7.691 149.927 7.691Q149.297 7.691 148.766 7.956Q148.236 8.221 147.855 8.742Q147.475 9.262 147.265 10.013Q147.165 10.373 147.115 10.794M158.396 9.472L158.396 17.200L156.544 17.200L156.544 6.369L158.295 6.369L158.355 7.721Q158.385 7.681 158.416 7.641Q158.996 6.940 159.802 6.555Q160.608 6.169 161.589 6.169Q162.389 6.169 163.030 6.384Q163.671 6.600 164.126 7.070Q164.582 7.541 164.822 8.286Q165.062 9.032 165.062 10.103L165.062 17.200L163.200 17.200L163.200 10.083Q163.200 9.232 162.950 8.717Q162.700 8.201 162.219 7.966Q161.739 7.731 161.038 7.731Q160.347 7.731 159.782 8.021Q159.216 8.311 158.816 8.822Q158.576 9.122 158.396 9.472M170.377 6.369L172.399 6.369L172.399 7.791L170.377 7.791L170.377 14.517Q170.377 15.068 170.547 15.348Q170.718 15.628 170.988 15.719Q171.258 15.809 171.568 15.809Q171.799 15.809 172.054 15.764Q172.309 15.719 172.439 15.689L172.449 17.200Q172.229 17.270 171.874 17.335Q171.518 17.400 171.018 17.400Q170.337 17.400 169.767 17.130Q169.196 16.860 168.861 16.224Q168.525 15.588 168.525 14.507L168.525 7.791L166.543 7.791L166.543 6.369L168.525 6.369L168.525 3.737L170.377 3.737L170.377 6.369M180.998 16.059Q180.867 16.189 180.727 16.319Q180.207 16.790 179.501 17.095Q178.795 17.400 177.915 17.400Q176.813 17.400 175.988 16.970Q175.162 16.539 174.706 15.814Q174.251 15.088 174.251 14.187Q174.251 13.316 174.591 12.651Q174.932 11.985 175.572 11.539Q176.213 11.094 177.114 10.864Q178.015 10.634 179.126 10.634L180.958 10.634L180.958 9.773Q180.958 9.132 180.702 8.657Q180.447 8.181 179.937 7.921Q179.426 7.661 178.675 7.661Q177.975 7.661 177.449 7.901Q176.924 8.141 176.628 8.532Q176.333 8.922 176.333 9.372L174.481 9.372Q174.481 8.792 174.781 8.221Q175.082 7.651 175.647 7.185Q176.213 6.720 177.009 6.445Q177.804 6.169 178.785 6.169Q179.967 6.169 180.872 6.570Q181.778 6.970 182.294 7.776Q182.809 8.582 182.809 9.793L182.809 14.838Q182.809 15.378 182.904 15.989Q183 16.599 183.190 17.040L183.190 17.200L181.258 17.200Q181.118 16.880 181.038 16.339Q181.018 16.199 180.998 16.059M180.958 14.157L180.958 11.935L179.426 11.935Q178.635 11.935 178.015 12.060Q177.394 12.185 176.974 12.435Q176.553 12.686 176.333 13.061Q176.113 13.436 176.113 13.937Q176.113 14.447 176.343 14.868Q176.573 15.288 177.039 15.533Q177.504 15.779 178.185 15.779Q179.036 15.779 179.686 15.418Q180.337 15.058 180.727 14.537Q180.867 14.347 180.958 14.157M188.235 6.369L190.257 6.369L190.257 7.791L188.235 7.791L188.235 14.517Q188.235 15.068 188.405 15.348Q188.575 15.628 188.845 15.719Q189.115 15.809 189.426 15.809Q189.656 15.809 189.911 15.764Q190.167 15.719 190.297 15.689L190.307 17.200Q190.086 17.270 189.731 17.335Q189.376 17.400 188.875 17.400Q188.195 17.400 187.624 17.130Q187.053 16.860 186.718 16.224Q186.383 15.588 186.383 14.507L186.383 7.791L184.401 7.791L184.401 6.369L186.383 6.369L186.383 3.737L188.235 3.737L188.235 6.369M192.579 6.369L194.441 6.369L194.441 17.200L192.579 17.200L192.579 6.369M192.439 3.497Q192.439 3.046 192.714 2.736Q192.989 2.426 193.530 2.426Q194.060 2.426 194.346 2.736Q194.631 3.046 194.631 3.497Q194.631 3.927 194.346 4.232Q194.060 4.538 193.530 4.538Q192.989 4.538 192.714 4.232Q192.439 3.927 192.439 3.497M196.923 11.905L196.923 11.675Q196.923 10.503 197.263 9.497Q197.604 8.492 198.244 7.746Q198.885 7 199.796 6.585Q200.707 6.169 201.838 6.169Q202.979 6.169 203.895 6.585Q204.811 7 205.456 7.746Q206.102 8.492 206.442 9.497Q206.783 10.503 206.783 11.675L206.783 11.905Q206.783 13.076 206.442 14.077Q206.102 15.078 205.456 15.824Q204.811 16.569 203.905 16.985Q202.999 17.400 201.858 17.400Q200.717 17.400 199.806 16.985Q198.895 16.569 198.249 15.824Q197.604 15.078 197.263 14.077Q196.923 13.076 196.923 11.905M198.775 11.675L198.775 11.905Q198.775 12.716 198.965 13.431Q199.155 14.147 199.541 14.698Q199.926 15.248 200.507 15.563Q201.087 15.879 201.858 15.879Q202.619 15.879 203.194 15.563Q203.770 15.248 204.150 14.698Q204.531 14.147 204.726 13.431Q204.921 12.716 204.921 11.905L204.921 11.675Q204.921 10.874 204.726 10.158Q204.531 9.442 204.145 8.887Q203.760 8.331 203.184 8.011Q202.609 7.691 201.838 7.691Q201.077 7.691 200.502 8.011Q199.926 8.331 199.541 8.887Q199.155 9.442 198.965 10.158Q198.775 10.874 198.775 11.675M210.957 9.472L210.957 17.200L209.105 17.200L209.105 6.369L210.857 6.369L210.917 7.721Q210.947 7.681 210.977 7.641Q211.557 6.940 212.363 6.555Q213.169 6.169 214.150 6.169Q214.951 6.169 215.591 6.384Q216.232 6.600 216.687 7.070Q217.143 7.541 217.383 8.286Q217.623 9.032 217.623 10.103L217.623 17.200L215.761 17.200L215.761 10.083Q215.761 9.232 215.511 8.717Q215.261 8.201 214.781 7.966Q214.300 7.731 213.599 7.731Q212.909 7.731 212.343 8.021Q211.778 8.311 211.377 8.822Q211.137 9.122 210.957 9.472"/>
  </g>
</svg>
