<svg xmlns="http://www.w3.org/2000/svg" xmlns:xlink="http://www.w3.org/1999/xlink" width="24" height="24" viewBox="0 0 24 24"><defs><clipPath id="b"><rect width="24" height="24"/></clipPath></defs><g id="a" clip-path="url(#b)"><rect width="24" height="24" fill="#404c5c"/><g transform="translate(3.128 2.629)"><g transform="translate(0 0.7)"><path d="M17.422,18.583H15.269l-2.673-5.8H5.453L2.8,18.583H.557l8.184-18h.615Zm-5.748-7.853L9.048,4.888,6.4,10.731Z" transform="translate(-0.557 -0.583)" fill="#039be5"/></g><g transform="translate(1 0.346)"><path d="M17.422,18.583H15.269l-2.673-5.8H5.453L2.8,18.583H.557l8.184-18h.615Zm-5.748-7.853L9.048,4.888,6.4,10.731Z" transform="translate(-0.557 -0.583)" fill="#9c27b0"/></g><g transform="translate(2)"><path d="M17.422,18.583H15.269l-2.673-5.8H5.453L2.8,18.583H.557l8.184-18h.615Zm-5.748-7.853L9.048,4.888,6.4,10.731Z" transform="translate(-0.557 -0.583)" fill="#fff"/></g></g></g></svg>