<?xml version="1.0" encoding="UTF-8" standalone="no"?>
<!DOCTYPE svg PUBLIC "-//W3C//DTD SVG 1.1//EN" "http://www.w3.org/Graphics/SVG/1.1/DTD/svg11.dtd">
<svg width="100%" height="100%" viewBox="0 0 149 24" version="1.1" xmlns="http://www.w3.org/2000/svg" xmlns:xlink="http://www.w3.org/1999/xlink" xml:space="preserve" xmlns:serif="http://www.serif.com/" style="fill-rule:evenodd;clip-rule:evenodd;stroke-linejoin:round;stroke-miterlimit:2;">
    <g transform="matrix(1,0,0,1,-155,-178)">
        <g id="individual">
        </g>
        <g id="text">
        </g>
        <g transform="matrix(1.01361,0,0,0.8,155,131.6)">
            <g id="full">
                <rect id="aglyn-besigner-logo-full" x="0" y="58" width="147" height="30" style="fill:none;"/>
                <clipPath id="_clip1">
                    <rect id="aglyn-besigner-logo-full1" serif:id="aglyn-besigner-logo-full" x="0" y="58" width="147" height="30"/>
                </clipPath>
                <g clip-path="url(#_clip1)">
                    <g id="aglyn" transform="matrix(0.986577,0,0,1.25,21.7047,58)">
                        <rect x="0" y="0" width="52" height="24" style="fill:none;"/>
                        <g transform="matrix(1.19153,0,0,1.17389,0.21591,1.1511)">
                            <g transform="matrix(16,0,0,16,1.93581,13.2437)">
                                <path d="M0.025,-0.155C0.025,-0.189 0.035,-0.219 0.054,-0.244C0.073,-0.27 0.099,-0.29 0.133,-0.304C0.167,-0.318 0.206,-0.325 0.25,-0.325C0.272,-0.325 0.294,-0.324 0.317,-0.32C0.339,-0.316 0.359,-0.311 0.376,-0.304L0.376,-0.332C0.376,-0.365 0.366,-0.391 0.347,-0.409C0.327,-0.427 0.298,-0.436 0.259,-0.436C0.23,-0.436 0.203,-0.431 0.177,-0.421C0.151,-0.411 0.123,-0.396 0.095,-0.377L0.052,-0.465C0.087,-0.488 0.122,-0.505 0.159,-0.516C0.195,-0.528 0.233,-0.533 0.273,-0.533C0.348,-0.533 0.406,-0.515 0.447,-0.477C0.489,-0.44 0.51,-0.387 0.51,-0.317L0.51,-0.15C0.51,-0.136 0.513,-0.126 0.517,-0.12C0.522,-0.114 0.53,-0.11 0.542,-0.109L0.542,-0C0.53,0.002 0.519,0.004 0.51,0.005C0.5,0.006 0.492,0.007 0.485,0.007C0.458,0.007 0.438,0.001 0.424,-0.011C0.411,-0.023 0.402,-0.038 0.399,-0.055L0.396,-0.082C0.373,-0.052 0.345,-0.03 0.311,-0.014C0.277,0.002 0.242,0.01 0.207,0.01C0.172,0.01 0.141,0.003 0.113,-0.012C0.086,-0.026 0.064,-0.046 0.048,-0.071C0.033,-0.096 0.025,-0.124 0.025,-0.155ZM0.351,-0.128C0.358,-0.136 0.364,-0.144 0.369,-0.152C0.374,-0.16 0.376,-0.168 0.376,-0.174L0.376,-0.227C0.36,-0.234 0.343,-0.239 0.324,-0.242C0.305,-0.246 0.288,-0.248 0.271,-0.248C0.236,-0.248 0.208,-0.24 0.185,-0.225C0.163,-0.211 0.152,-0.191 0.152,-0.166C0.152,-0.153 0.156,-0.14 0.163,-0.128C0.17,-0.116 0.181,-0.106 0.195,-0.099C0.209,-0.091 0.225,-0.088 0.245,-0.088C0.265,-0.088 0.285,-0.091 0.304,-0.099C0.323,-0.107 0.339,-0.117 0.351,-0.128Z" style="fill:rgb(0,176,255);fill-rule:nonzero;"/>
                            </g>
                            <g transform="matrix(16,0,0,16,10.3198,13.2437)">
                                <path d="M0.266,0.003C0.231,0.003 0.199,-0.004 0.17,-0.018C0.141,-0.031 0.116,-0.051 0.096,-0.075C0.075,-0.1 0.059,-0.128 0.047,-0.16C0.036,-0.192 0.03,-0.226 0.03,-0.262C0.03,-0.3 0.036,-0.335 0.048,-0.368C0.06,-0.401 0.077,-0.429 0.098,-0.454C0.12,-0.479 0.146,-0.499 0.175,-0.512C0.205,-0.526 0.238,-0.533 0.274,-0.533C0.314,-0.533 0.35,-0.524 0.381,-0.506C0.412,-0.487 0.437,-0.462 0.457,-0.432L0.457,-0.524L0.574,-0.524L0.574,-0.025C0.574,0.027 0.561,0.071 0.536,0.108C0.511,0.145 0.477,0.174 0.433,0.193C0.389,0.213 0.339,0.223 0.283,0.223C0.226,0.223 0.178,0.213 0.139,0.194C0.099,0.175 0.066,0.148 0.038,0.114L0.111,0.043C0.131,0.068 0.156,0.087 0.186,0.101C0.217,0.115 0.249,0.122 0.283,0.122C0.311,0.122 0.337,0.117 0.361,0.107C0.385,0.096 0.404,0.08 0.418,0.059C0.433,0.037 0.44,0.009 0.44,-0.025L0.44,-0.091C0.423,-0.061 0.398,-0.038 0.367,-0.021C0.335,-0.005 0.301,0.003 0.266,0.003ZM0.311,-0.104C0.326,-0.104 0.34,-0.106 0.353,-0.111C0.366,-0.116 0.379,-0.122 0.39,-0.13C0.401,-0.138 0.411,-0.147 0.42,-0.158C0.429,-0.169 0.435,-0.181 0.44,-0.192L0.44,-0.317C0.432,-0.338 0.421,-0.355 0.407,-0.371C0.392,-0.386 0.376,-0.398 0.358,-0.407C0.341,-0.415 0.322,-0.419 0.303,-0.419C0.283,-0.419 0.264,-0.415 0.247,-0.406C0.23,-0.397 0.216,-0.385 0.204,-0.37C0.192,-0.354 0.183,-0.337 0.176,-0.318C0.17,-0.299 0.167,-0.279 0.167,-0.258C0.167,-0.237 0.17,-0.217 0.178,-0.198C0.185,-0.18 0.195,-0.163 0.208,-0.149C0.221,-0.135 0.237,-0.124 0.254,-0.116C0.272,-0.108 0.291,-0.104 0.311,-0.104Z" style="fill:rgb(0,176,255);fill-rule:nonzero;"/>
                            </g>
                            <g transform="matrix(16,0,0,16,19.9678,13.2437)">
                                <path d="M0.06,-0.73L0.194,-0.73L0.194,-0.168C0.194,-0.144 0.198,-0.128 0.206,-0.119C0.214,-0.111 0.225,-0.107 0.239,-0.107C0.25,-0.107 0.261,-0.108 0.272,-0.111C0.283,-0.114 0.293,-0.117 0.302,-0.121L0.32,-0.019C0.302,-0.01 0.281,-0.004 0.257,0.001C0.233,0.006 0.211,0.008 0.192,0.008C0.15,0.008 0.118,-0.003 0.095,-0.025C0.071,-0.048 0.06,-0.08 0.06,-0.121L0.06,-0.73Z" style="fill:rgb(0,176,255);fill-rule:nonzero;"/>
                            </g>
                            <g transform="matrix(16,0,0,16,23.5998,13.2437)">
                                <path d="M0.072,0.102C0.084,0.105 0.095,0.107 0.105,0.109C0.116,0.111 0.125,0.112 0.132,0.112C0.145,0.112 0.155,0.109 0.164,0.102C0.172,0.096 0.18,0.085 0.188,0.068C0.196,0.052 0.204,0.029 0.213,-0L0.006,-0.524L0.145,-0.524L0.286,-0.137L0.41,-0.524L0.538,-0.524L0.318,0.104C0.31,0.127 0.298,0.149 0.281,0.168C0.265,0.187 0.245,0.202 0.22,0.213C0.196,0.224 0.169,0.229 0.139,0.229C0.128,0.229 0.118,0.228 0.107,0.226C0.096,0.225 0.084,0.222 0.072,0.218L0.072,0.102Z" style="fill:rgb(0,176,255);fill-rule:nonzero;"/>
                            </g>
                            <g transform="matrix(16,0,0,16,32.1758,13.2437)">
                                <path d="M0.548,-0L0.414,-0L0.414,-0.294C0.414,-0.336 0.407,-0.367 0.392,-0.386C0.377,-0.405 0.357,-0.415 0.331,-0.415C0.313,-0.415 0.295,-0.41 0.277,-0.401C0.258,-0.391 0.242,-0.379 0.227,-0.362C0.213,-0.346 0.202,-0.327 0.195,-0.306L0.195,-0L0.061,-0L0.061,-0.524L0.182,-0.524L0.182,-0.427C0.195,-0.449 0.212,-0.468 0.233,-0.484C0.254,-0.5 0.278,-0.512 0.304,-0.521C0.331,-0.529 0.36,-0.533 0.39,-0.533C0.423,-0.533 0.45,-0.527 0.47,-0.516C0.491,-0.504 0.507,-0.488 0.518,-0.468C0.53,-0.448 0.537,-0.426 0.542,-0.402C0.546,-0.378 0.548,-0.353 0.548,-0.327L0.548,-0Z" style="fill:rgb(0,176,255);fill-rule:nonzero;"/>
                            </g>
                        </g>
                    </g>
                    <g id="besigner" transform="matrix(0.627822,0,0,1.25,55.9658,27.9917)">
                        <rect x="24" y="24" width="121" height="24" style="fill:none;"/>
                        <g transform="matrix(1.81866,0,0,1.17389,39.1446,25.0801)">
                            <g transform="matrix(15.9016,0,0,15.9016,-6.86419,13.2437)">
                                <path d="M0.339,0.01C0.298,0.01 0.261,0 0.228,-0.02C0.195,-0.04 0.168,-0.066 0.149,-0.098L0.149,-0L0.071,-0L0.071,-0.73L0.159,-0.73L0.159,-0.418C0.181,-0.452 0.208,-0.479 0.24,-0.5C0.272,-0.521 0.309,-0.531 0.352,-0.531C0.388,-0.531 0.42,-0.524 0.449,-0.509C0.478,-0.494 0.502,-0.473 0.523,-0.448C0.543,-0.422 0.559,-0.393 0.57,-0.361C0.58,-0.328 0.586,-0.294 0.586,-0.259C0.586,-0.222 0.58,-0.188 0.568,-0.156C0.555,-0.123 0.538,-0.094 0.515,-0.07C0.492,-0.045 0.466,-0.025 0.437,-0.011C0.407,0.003 0.374,0.01 0.339,0.01ZM0.317,-0.066C0.343,-0.066 0.367,-0.071 0.389,-0.082C0.411,-0.093 0.43,-0.107 0.446,-0.125C0.462,-0.143 0.474,-0.164 0.483,-0.187C0.492,-0.21 0.496,-0.234 0.496,-0.259C0.496,-0.293 0.489,-0.325 0.475,-0.355C0.46,-0.385 0.44,-0.409 0.415,-0.428C0.389,-0.446 0.359,-0.455 0.325,-0.455C0.3,-0.455 0.277,-0.449 0.256,-0.438C0.235,-0.427 0.216,-0.412 0.2,-0.394C0.183,-0.375 0.17,-0.355 0.159,-0.333L0.159,-0.182C0.162,-0.165 0.169,-0.15 0.18,-0.136C0.191,-0.122 0.204,-0.11 0.219,-0.1C0.234,-0.089 0.251,-0.081 0.268,-0.075C0.284,-0.069 0.301,-0.066 0.317,-0.066Z" style="fill:white;fill-rule:nonzero;"/>
                            </g>
                            <g transform="matrix(15.9016,0,0,15.9016,2.72445,13.2437)">
                                <path d="M0.302,0.01C0.263,0.01 0.227,0.003 0.195,-0.012C0.162,-0.026 0.134,-0.046 0.111,-0.071C0.087,-0.095 0.068,-0.124 0.056,-0.157C0.043,-0.19 0.036,-0.224 0.036,-0.261C0.036,-0.31 0.047,-0.355 0.07,-0.396C0.093,-0.437 0.124,-0.469 0.165,-0.494C0.205,-0.519 0.251,-0.531 0.303,-0.531C0.356,-0.531 0.401,-0.519 0.441,-0.494C0.48,-0.468 0.51,-0.436 0.532,-0.396C0.553,-0.355 0.564,-0.312 0.564,-0.265C0.564,-0.258 0.564,-0.252 0.564,-0.246C0.563,-0.239 0.563,-0.234 0.562,-0.231L0.129,-0.231C0.132,-0.197 0.141,-0.167 0.158,-0.141C0.174,-0.114 0.195,-0.094 0.221,-0.079C0.247,-0.064 0.275,-0.056 0.305,-0.056C0.337,-0.056 0.367,-0.064 0.396,-0.08C0.424,-0.096 0.443,-0.117 0.454,-0.143L0.53,-0.122C0.519,-0.097 0.502,-0.074 0.48,-0.054C0.457,-0.034 0.431,-0.018 0.401,-0.007C0.37,0.004 0.337,0.01 0.302,0.01ZM0.126,-0.292L0.482,-0.292C0.479,-0.326 0.47,-0.356 0.453,-0.382C0.436,-0.408 0.415,-0.428 0.389,-0.443C0.363,-0.458 0.334,-0.465 0.303,-0.465C0.272,-0.465 0.244,-0.458 0.218,-0.443C0.192,-0.428 0.171,-0.408 0.155,-0.382C0.138,-0.356 0.129,-0.326 0.126,-0.292Z" style="fill:white;fill-rule:nonzero;"/>
                            </g>
                            <g transform="matrix(15.9016,0,0,15.9016,11.8837,13.2437)">
                                <path d="M0.25,0.01C0.207,0.01 0.166,0.003 0.128,-0.012C0.09,-0.026 0.057,-0.047 0.03,-0.076L0.064,-0.138C0.094,-0.11 0.124,-0.09 0.154,-0.078C0.184,-0.066 0.215,-0.06 0.246,-0.06C0.282,-0.06 0.311,-0.067 0.334,-0.081C0.357,-0.094 0.368,-0.114 0.368,-0.141C0.368,-0.16 0.362,-0.175 0.351,-0.184C0.339,-0.193 0.322,-0.201 0.301,-0.208C0.28,-0.214 0.254,-0.221 0.225,-0.229C0.189,-0.24 0.159,-0.251 0.134,-0.263C0.109,-0.275 0.091,-0.29 0.078,-0.308C0.065,-0.326 0.059,-0.349 0.059,-0.376C0.059,-0.409 0.068,-0.438 0.085,-0.461C0.102,-0.484 0.126,-0.501 0.157,-0.513C0.187,-0.525 0.221,-0.531 0.26,-0.531C0.299,-0.531 0.334,-0.525 0.365,-0.513C0.396,-0.501 0.423,-0.483 0.446,-0.46L0.406,-0.399C0.385,-0.42 0.363,-0.436 0.338,-0.447C0.313,-0.457 0.286,-0.462 0.255,-0.462C0.237,-0.462 0.219,-0.46 0.202,-0.456C0.185,-0.451 0.17,-0.444 0.159,-0.433C0.148,-0.422 0.142,-0.406 0.142,-0.386C0.142,-0.369 0.147,-0.356 0.156,-0.347C0.165,-0.337 0.178,-0.329 0.196,-0.322C0.213,-0.315 0.235,-0.308 0.26,-0.3C0.299,-0.289 0.333,-0.277 0.363,-0.266C0.392,-0.255 0.414,-0.24 0.43,-0.222C0.446,-0.204 0.454,-0.179 0.454,-0.147C0.454,-0.098 0.435,-0.059 0.398,-0.032C0.361,-0.004 0.311,0.01 0.25,0.01Z" style="fill:white;fill-rule:nonzero;"/>
                            </g>
                            <g transform="matrix(15.9016,0,0,15.9016,19.3734,13.2437)">
                                <path d="M0.071,-0L0.071,-0.522L0.159,-0.522L0.159,-0L0.071,-0ZM0.071,-0.62L0.071,-0.73L0.159,-0.73L0.159,-0.62L0.071,-0.62Z" style="fill:white;fill-rule:nonzero;"/>
                            </g>
                            <g transform="matrix(15.9016,0,0,15.9016,22.3629,13.2437)">
                                <path d="M0.279,0.006C0.244,0.006 0.211,-0.001 0.182,-0.016C0.152,-0.03 0.126,-0.049 0.105,-0.075C0.084,-0.099 0.067,-0.128 0.056,-0.16C0.044,-0.192 0.038,-0.225 0.038,-0.26C0.038,-0.297 0.044,-0.331 0.056,-0.364C0.067,-0.397 0.084,-0.426 0.106,-0.451C0.127,-0.475 0.153,-0.495 0.182,-0.51C0.211,-0.524 0.244,-0.531 0.28,-0.531C0.323,-0.531 0.361,-0.52 0.394,-0.499C0.426,-0.478 0.453,-0.451 0.475,-0.418L0.475,-0.522L0.553,-0.522L0.553,-0.006C0.553,0.043 0.541,0.085 0.518,0.119C0.494,0.153 0.462,0.179 0.422,0.197C0.381,0.214 0.336,0.223 0.287,0.223C0.228,0.223 0.18,0.213 0.143,0.192C0.106,0.171 0.075,0.143 0.05,0.108L0.101,0.063C0.122,0.094 0.149,0.117 0.182,0.132C0.215,0.147 0.25,0.155 0.287,0.155C0.319,0.155 0.349,0.149 0.376,0.138C0.403,0.126 0.424,0.108 0.441,0.084C0.457,0.06 0.465,0.03 0.465,-0.006L0.465,-0.098C0.446,-0.066 0.419,-0.041 0.386,-0.022C0.352,-0.003 0.316,0.006 0.279,0.006ZM0.306,-0.066C0.325,-0.066 0.343,-0.069 0.36,-0.076C0.377,-0.083 0.393,-0.092 0.408,-0.103C0.423,-0.114 0.435,-0.126 0.445,-0.14C0.455,-0.154 0.462,-0.168 0.465,-0.183L0.465,-0.333C0.456,-0.357 0.442,-0.378 0.425,-0.397C0.408,-0.415 0.388,-0.429 0.366,-0.44C0.344,-0.45 0.321,-0.455 0.298,-0.455C0.271,-0.455 0.248,-0.449 0.227,-0.438C0.206,-0.427 0.188,-0.411 0.173,-0.393C0.158,-0.374 0.147,-0.352 0.139,-0.329C0.131,-0.306 0.127,-0.282 0.127,-0.258C0.127,-0.232 0.132,-0.208 0.141,-0.185C0.15,-0.162 0.163,-0.141 0.179,-0.123C0.195,-0.105 0.214,-0.091 0.236,-0.081C0.258,-0.071 0.281,-0.066 0.306,-0.066Z" style="fill:white;fill-rule:nonzero;"/>
                            </g>
                            <g transform="matrix(15.9016,0,0,15.9016,31.9515,13.2437)">
                                <path d="M0.524,-0L0.436,-0L0.436,-0.292C0.436,-0.347 0.428,-0.388 0.411,-0.414C0.394,-0.439 0.368,-0.452 0.333,-0.452C0.309,-0.452 0.285,-0.446 0.262,-0.434C0.238,-0.422 0.217,-0.406 0.199,-0.386C0.18,-0.365 0.167,-0.342 0.159,-0.315L0.159,-0L0.071,-0L0.071,-0.522L0.151,-0.522L0.151,-0.41C0.165,-0.435 0.183,-0.456 0.205,-0.474C0.227,-0.492 0.252,-0.506 0.28,-0.516C0.308,-0.526 0.337,-0.531 0.368,-0.531C0.398,-0.531 0.423,-0.526 0.444,-0.515C0.464,-0.503 0.48,-0.488 0.492,-0.469C0.503,-0.449 0.511,-0.426 0.517,-0.399C0.522,-0.372 0.524,-0.343 0.524,-0.312L0.524,-0Z" style="fill:white;fill-rule:nonzero;"/>
                            </g>
                            <g transform="matrix(15.9016,0,0,15.9016,40.9359,13.2437)">
                                <path d="M0.302,0.01C0.263,0.01 0.227,0.003 0.195,-0.012C0.162,-0.026 0.134,-0.046 0.111,-0.071C0.087,-0.095 0.068,-0.124 0.056,-0.157C0.043,-0.19 0.036,-0.224 0.036,-0.261C0.036,-0.31 0.047,-0.355 0.07,-0.396C0.093,-0.437 0.124,-0.469 0.165,-0.494C0.205,-0.519 0.251,-0.531 0.303,-0.531C0.356,-0.531 0.401,-0.519 0.441,-0.494C0.48,-0.468 0.51,-0.436 0.532,-0.396C0.553,-0.355 0.564,-0.312 0.564,-0.265C0.564,-0.258 0.564,-0.252 0.564,-0.246C0.563,-0.239 0.563,-0.234 0.562,-0.231L0.129,-0.231C0.132,-0.197 0.141,-0.167 0.158,-0.141C0.174,-0.114 0.195,-0.094 0.221,-0.079C0.247,-0.064 0.275,-0.056 0.305,-0.056C0.337,-0.056 0.367,-0.064 0.396,-0.08C0.424,-0.096 0.443,-0.117 0.454,-0.143L0.53,-0.122C0.519,-0.097 0.502,-0.074 0.48,-0.054C0.457,-0.034 0.431,-0.018 0.401,-0.007C0.37,0.004 0.337,0.01 0.302,0.01ZM0.126,-0.292L0.482,-0.292C0.479,-0.326 0.47,-0.356 0.453,-0.382C0.436,-0.408 0.415,-0.428 0.389,-0.443C0.363,-0.458 0.334,-0.465 0.303,-0.465C0.272,-0.465 0.244,-0.458 0.218,-0.443C0.192,-0.428 0.171,-0.408 0.155,-0.382C0.138,-0.356 0.129,-0.326 0.126,-0.292Z" style="fill:white;fill-rule:nonzero;"/>
                            </g>
                            <g transform="matrix(15.9016,0,0,15.9016,50.0952,13.2437)">
                                <path d="M0.347,-0.445C0.303,-0.444 0.264,-0.433 0.231,-0.412C0.197,-0.39 0.173,-0.36 0.159,-0.322L0.159,-0L0.071,-0L0.071,-0.522L0.153,-0.522L0.153,-0.401C0.171,-0.437 0.195,-0.466 0.225,-0.489C0.254,-0.511 0.285,-0.523 0.318,-0.526L0.335,-0.526C0.34,-0.526 0.344,-0.526 0.347,-0.525L0.347,-0.445Z" style="fill:white;fill-rule:nonzero;"/>
                            </g>
                        </g>
                    </g>
                    <g id="mark" transform="matrix(0.986577,0,0,1.25,-2.84217e-14,25.5)">
                        <rect x="0" y="26" width="24" height="24" style="fill:none;"/>
                        <g id="aglyn-mark">
                            <g id="shape-controls" serif:id="shape controls" transform="matrix(1,0,0,1,0,26)">
                                <path d="M6,4L6,3L3,3L3,6L4,6L4,18L3,18L3,21L6,21L6,20L18,20L18,21L21,21L21,18L20,18L20,6L21,6L21,3L18,3L18,4L6,4ZM18,5L6,5L6,6L5,6L5,18L6,18L6,19L18,19L18,18L19,18L19,6L18,6L18,5ZM8,19L9,19L9,15L5,15L5,16L8,16L8,19Z" style="fill:rgb(224,64,251);"/>
                            </g>
                            <g id="compass" transform="matrix(0.5,0.866025,-0.866025,0.5,14.1866,17.6256)">
                                <path d="M13.25,9.885C12.236,9.567 11.5,8.619 11.5,7.5C11.5,6.617 11.959,5.84 12.651,5.395C12.581,5.316 12.507,5.236 12.438,5.167C12.302,5.031 11.874,4.743 11.874,4.743L11.874,4.743C11.784,4.652 11.728,4.527 11.728,4.389C11.728,4.113 11.952,3.889 12.228,3.889C12.329,3.889 12.424,3.919 12.503,3.972C12.503,3.972 12.829,4.135 13.157,4.461C13.46,4.761 13.599,4.948 13.65,5.024C13.764,5.008 13.881,5 14,5C15.38,5 16.5,6.12 16.5,7.5C16.5,8.619 15.764,9.567 14.75,9.885L14.75,13C15.164,13 15.5,13.336 15.5,13.75L15.5,17.25C15.5,17.664 15.164,18 14.75,18L14.75,19.5L14,21L13.25,19.5L13.25,18C12.836,18 12.5,17.664 12.5,17.25L12.5,13.75C12.5,13.336 12.836,13 13.25,13L13.25,9.885ZM16.574,9.852C16.747,9.676 16.902,9.474 17.031,9.25C17.161,9.026 17.258,8.792 17.324,8.553L24.767,12.851L25.691,14.25L24.017,14.15L16.574,9.852ZM14,6.25C14.69,6.25 15.25,6.81 15.25,7.5C15.25,8.19 14.69,8.75 14,8.75C13.31,8.75 12.75,8.19 12.75,7.5C12.75,6.81 13.31,6.25 14,6.25Z" style="fill:rgb(0,176,255);"/>
                            </g>
                        </g>
                    </g>
                </g>
            </g>
        </g>
    </g>
</svg>
