<?xml version="1.0" encoding="UTF-8" standalone="no"?>
<!DOCTYPE svg PUBLIC "-//W3C//DTD SVG 1.1//EN" "http://www.w3.org/Graphics/SVG/1.1/DTD/svg11.dtd">
<svg width="100%" height="100%" viewBox="0 0 52 24" version="1.1" xmlns="http://www.w3.org/2000/svg" xmlns:xlink="http://www.w3.org/1999/xlink" xml:space="preserve" xmlns:serif="http://www.serif.com/" style="fill-rule:evenodd;clip-rule:evenodd;stroke-linejoin:round;stroke-miterlimit:2;">
    <path d="M29.708,18.611C29.931,18.663 30.144,18.707 30.346,18.742C30.549,18.778 30.72,18.796 30.861,18.796C31.093,18.796 31.291,18.737 31.455,18.619C31.618,18.501 31.774,18.289 31.921,17.982C32.068,17.675 32.228,17.247 32.4,16.698L28.444,6.86L31.094,6.86L33.796,14.128L36.157,6.86L38.589,6.86L34.4,18.644C34.251,19.09 34.019,19.492 33.702,19.851C33.385,20.209 32.997,20.49 32.539,20.694C32.082,20.898 31.565,21 30.991,21C30.785,21 30.578,20.984 30.372,20.952C30.165,20.919 29.944,20.865 29.708,20.788L29.708,18.611ZM17.582,16.76C16.92,16.76 16.312,16.629 15.758,16.368C15.203,16.108 14.729,15.747 14.334,15.286C13.938,14.825 13.632,14.294 13.416,13.693C13.199,13.092 13.09,12.454 13.09,11.781C13.09,11.069 13.203,10.405 13.428,9.789C13.654,9.173 13.973,8.631 14.386,8.164C14.799,7.698 15.288,7.334 15.853,7.073C16.418,6.812 17.044,6.682 17.73,6.682C18.505,6.682 19.186,6.856 19.773,7.203C20.361,7.55 20.842,8.013 21.216,8.593L21.216,6.86L23.451,6.86L23.451,16.229C23.451,17.201 23.212,18.035 22.735,18.73C22.258,19.425 21.602,19.958 20.767,20.329C19.932,20.7 18.982,20.886 17.915,20.886C16.825,20.886 15.906,20.706 15.157,20.346C14.408,19.986 13.767,19.486 13.233,18.845L14.627,17.5C15.009,17.969 15.489,18.334 16.067,18.597C16.645,18.859 17.261,18.991 17.915,18.991C18.451,18.991 18.944,18.894 19.396,18.7C19.848,18.506 20.211,18.205 20.485,17.797C20.759,17.388 20.896,16.866 20.896,16.229L20.896,14.993C20.567,15.554 20.102,15.989 19.501,16.297C18.899,16.605 18.259,16.76 17.582,16.76ZM3,13.794C3,13.151 3.183,12.59 3.548,12.11C3.913,11.63 4.417,11.257 5.061,10.989C5.705,10.722 6.447,10.588 7.286,10.588C7.708,10.588 8.134,10.621 8.563,10.687C8.993,10.754 9.37,10.853 9.694,10.985L9.694,10.457C9.694,9.836 9.507,9.356 9.132,9.017C8.758,8.678 8.203,8.509 7.467,8.509C6.915,8.509 6.39,8.603 5.894,8.791C5.398,8.98 4.876,9.253 4.328,9.61L3.52,7.971C4.18,7.539 4.855,7.216 5.546,7.002C6.238,6.789 6.967,6.682 7.735,6.682C9.149,6.682 10.255,7.032 11.052,7.733C11.85,8.433 12.248,9.437 12.248,10.745L12.248,13.888C12.248,14.15 12.294,14.337 12.385,14.448C12.477,14.559 12.632,14.623 12.851,14.641L12.851,16.698C12.628,16.74 12.425,16.771 12.241,16.792C12.058,16.813 11.899,16.824 11.766,16.824C11.257,16.824 10.872,16.713 10.612,16.492C10.352,16.27 10.192,15.993 10.133,15.659L10.077,15.158C9.64,15.714 9.097,16.141 8.449,16.439C7.802,16.737 7.141,16.886 6.466,16.886C5.805,16.886 5.211,16.749 4.684,16.477C4.157,16.205 3.745,15.835 3.447,15.367C3.149,14.899 3,14.374 3,13.794ZM25.151,2.987L27.705,2.987L27.705,13.535C27.705,13.995 27.783,14.302 27.938,14.459C28.094,14.615 28.3,14.693 28.556,14.693C28.771,14.693 28.985,14.666 29.198,14.613C29.411,14.559 29.597,14.496 29.756,14.422L30.109,16.35C29.761,16.502 29.36,16.624 28.907,16.716C28.454,16.809 28.039,16.855 27.66,16.855C26.869,16.855 26.253,16.643 25.812,16.221C25.371,15.798 25.151,15.202 25.151,14.433L25.151,2.987ZM49,16.698L46.445,16.698L46.445,11.18C46.445,10.389 46.306,9.811 46.028,9.448C45.75,9.084 45.363,8.903 44.869,8.903C44.526,8.903 44.179,8.991 43.828,9.169C43.477,9.346 43.163,9.588 42.885,9.893C42.607,10.199 42.4,10.552 42.265,10.951L42.265,16.698L39.71,16.698L39.71,6.86L42.018,6.86L42.018,8.675C42.273,8.257 42.599,7.9 42.996,7.604C43.392,7.309 43.846,7.081 44.357,6.921C44.868,6.762 45.412,6.682 45.991,6.682C46.615,6.682 47.125,6.792 47.521,7.013C47.917,7.234 48.222,7.53 48.436,7.902C48.65,8.275 48.797,8.69 48.878,9.149C48.959,9.607 49,10.074 49,10.55L49,16.698ZM9.207,14.285C9.353,14.144 9.471,13.997 9.56,13.843C9.649,13.69 9.694,13.551 9.694,13.425L9.694,12.425C9.386,12.309 9.054,12.217 8.7,12.149C8.345,12.082 8.006,12.049 7.685,12.049C7.022,12.049 6.479,12.188 6.054,12.466C5.63,12.744 5.418,13.115 5.418,13.577C5.418,13.829 5.488,14.067 5.628,14.294C5.768,14.52 5.971,14.703 6.236,14.843C6.501,14.983 6.821,15.053 7.197,15.053C7.58,15.053 7.954,14.981 8.318,14.836C8.683,14.692 8.979,14.508 9.207,14.285ZM18.449,14.747C18.725,14.747 18.989,14.702 19.242,14.614C19.495,14.525 19.73,14.406 19.947,14.256C20.163,14.106 20.354,13.929 20.519,13.725C20.684,13.521 20.809,13.307 20.896,13.083L20.896,10.74C20.747,10.357 20.535,10.021 20.262,9.733C19.989,9.446 19.683,9.221 19.344,9.061C19.004,8.901 18.655,8.821 18.297,8.821C17.903,8.821 17.546,8.905 17.226,9.072C16.906,9.24 16.632,9.468 16.404,9.758C16.176,10.047 16,10.371 15.876,10.73C15.752,11.089 15.69,11.46 15.69,11.843C15.69,12.247 15.76,12.624 15.901,12.974C16.042,13.324 16.236,13.633 16.484,13.9C16.731,14.168 17.025,14.376 17.364,14.524C17.703,14.673 18.065,14.747 18.449,14.747Z" style="fill:rgb(0,176,255);fill-rule:nonzero;"/>
</svg>
