<?xml version="1.0" encoding="UTF-8" standalone="no"?><!DOCTYPE svg PUBLIC "-//W3C//DTD SVG 1.1//EN" "http://www.w3.org/Graphics/SVG/1.1/DTD/svg11.dtd"><svg width="100%" height="100%" viewBox="0 0 79 24" version="1.1" xmlns="http://www.w3.org/2000/svg" xmlns:xlink="http://www.w3.org/1999/xlink" xml:space="preserve" xmlns:serif="http://www.serif.com/" style="fill-rule:evenodd;clip-rule:evenodd;stroke-linejoin:round;stroke-miterlimit:2;"><g id="aglyn-logo-full-black"><g id="aglyn-logo-mark-black"><rect x="-0" y="0.043" width="24" height="24" style="fill:none;"/><path d="M5,16.248l-0.267,0.184l-1.733,0.152l-0,1.459l-1,0l-0,4l4,0l0,-1l7.171,0l-0.148,-0.262l-0,-1.738l-7.023,0l0,-1l-1,0l0,-1.795Zm14,-7.233l0,9.028l-0.004,0l0,2.738l-0.714,1.262l3.718,0l0,-4l-1,0l0,-10.273c-0.37,0 -0.836,0 -0.836,0c-0.307,0.47 -0.697,0.893 -1.164,1.245Zm-16,0.145l2,-1.376l0,-1.741l1,0l0,-1l4.748,0l0.279,-0.192c0.025,-0.624 0.167,-1.238 0.416,-1.808l-5.443,0l0,-1l-4,0l-0,4l1,0l-0,3.117Zm19,-7.117l-2.029,0c0.067,0.089 0.131,0.18 0.192,0.273l1.281,0l0.556,0.556l0,-0.829Z" fill-rule="evenodd" clip-rule="evenodd"/><path d="M15,10.043c0.323,0.074 0.661,0.113 1.01,0.113c0.348,-0 0.687,-0.039 1.009,-0.113l0,10.217l-1.009,1.783l-1.01,-1.783l0,-10.217Zm-1.898,-4.22c-0.345,-1.28 0.196,-2.683 1.398,-3.378c1.434,-0.828 3.27,-0.335 4.098,1.098c0.139,0.241 0.241,0.494 0.307,0.75l1.72,0l0.375,0.375l-0,0.75l-0.375,0.375l-1.721,0c-0.194,0.753 -0.679,1.43 -1.404,1.848c-1.052,0.608 -2.319,0.505 -3.247,-0.158l-3.458,2.379l-0.252,1.364l-3.296,2.267l-1.363,-0.252l-1.843,1.267l-2.041,0.179l0.897,-1.842l1.826,-1.257c0,0 0.257,-1.391 0.257,-1.391l3.296,-2.267l1.39,0.257l3.436,-2.364Zm3.398,0.086c-0.478,0.276 -1.09,0.112 -1.366,-0.366c-0.276,-0.478 -0.112,-1.09 0.366,-1.366c0.478,-0.275 1.09,-0.111 1.366,0.366c0.276,0.478 0.112,1.09 -0.366,1.366Z" fill-rule="evenodd" clip-rule="evenodd"/></g><g id="aglyn-logo-text-black"><rect x="24" y="0.047" width="55" height="24" style="fill:none;"/><path d="M55.612,19.377c0.246,0.058 0.482,0.106 0.707,0.146c0.224,0.039 0.414,0.059 0.57,0.059c0.257,0 0.477,-0.065 0.658,-0.196c0.182,-0.131 0.355,-0.366 0.518,-0.706c0.163,-0.341 0.34,-0.815 0.53,-1.424l-4.385,-10.908l2.938,0l2.995,8.059l2.618,-8.059l2.697,0l-4.645,13.066c-0.165,0.494 -0.423,0.94 -0.774,1.337c-0.352,0.398 -0.781,0.709 -1.289,0.935c-0.507,0.227 -1.08,0.34 -1.717,0.34c-0.228,-0 -0.457,-0.018 -0.686,-0.054c-0.229,-0.036 -0.475,-0.096 -0.735,-0.182l-0,-2.413Zm-13.445,-2.053c-0.734,0 -1.408,-0.144 -2.023,-0.433c-0.614,-0.289 -1.14,-0.69 -1.579,-1.201c-0.438,-0.511 -0.777,-1.1 -1.017,-1.766c-0.241,-0.666 -0.361,-1.373 -0.361,-2.12c0,-0.789 0.125,-1.525 0.375,-2.208c0.25,-0.683 0.604,-1.284 1.062,-1.801c0.458,-0.518 1,-0.921 1.626,-1.21c0.627,-0.289 1.32,-0.434 2.081,-0.434c0.859,0 1.614,0.193 2.266,0.578c0.651,0.384 1.184,0.898 1.599,1.541l-0,-1.922l2.477,0l0,10.388c0,1.078 -0.264,2.002 -0.793,2.772c-0.529,0.771 -1.256,1.362 -2.182,1.774c-0.925,0.412 -1.979,0.617 -3.162,0.617c-1.208,0 -2.227,-0.199 -3.058,-0.598c-0.83,-0.399 -1.541,-0.954 -2.132,-1.665l1.545,-1.491c0.424,0.52 0.956,0.925 1.596,1.216c0.641,0.291 1.324,0.437 2.049,0.437c0.594,-0 1.141,-0.107 1.642,-0.322c0.501,-0.215 0.903,-0.549 1.207,-1.002c0.304,-0.452 0.456,-1.032 0.456,-1.738l0,-1.371c-0.364,0.623 -0.88,1.105 -1.547,1.447c-0.667,0.342 -1.376,0.512 -2.127,0.512Zm-16.167,-3.288c-0,-0.713 0.202,-1.335 0.607,-1.867c0.405,-0.531 0.964,-0.946 1.678,-1.242c0.714,-0.297 1.536,-0.445 2.466,-0.445c0.468,0 0.941,0.037 1.417,0.11c0.476,0.073 0.894,0.183 1.253,0.33l0,-0.585c0,-0.689 -0.207,-1.221 -0.622,-1.597c-0.416,-0.376 -1.031,-0.563 -1.846,-0.563c-0.613,-0 -1.194,0.104 -1.744,0.313c-0.551,0.209 -1.129,0.511 -1.737,0.908l-0.895,-1.817c0.731,-0.48 1.48,-0.838 2.246,-1.075c0.767,-0.236 1.575,-0.355 2.427,-0.355c1.568,0 2.794,0.389 3.678,1.165c0.884,0.777 1.326,1.89 1.326,3.34l-0,3.484c-0,0.291 0.05,0.498 0.151,0.621c0.102,0.123 0.274,0.195 0.517,0.215l-0,2.28c-0.247,0.046 -0.472,0.081 -0.676,0.105c-0.204,0.023 -0.38,0.034 -0.528,0.034c-0.564,0 -0.99,-0.122 -1.278,-0.368c-0.289,-0.245 -0.466,-0.553 -0.532,-0.923l-0.061,-0.556c-0.486,0.617 -1.087,1.091 -1.805,1.421c-0.718,0.33 -1.451,0.495 -2.199,0.495c-0.733,-0 -1.392,-0.151 -1.976,-0.452c-0.584,-0.302 -1.041,-0.712 -1.371,-1.232c-0.331,-0.519 -0.496,-1.1 -0.496,-1.744Zm24.558,-11.982l2.833,0l-0,11.696c-0,0.509 0.086,0.85 0.258,1.023c0.172,0.174 0.4,0.26 0.684,0.26c0.239,0 0.476,-0.029 0.712,-0.089c0.236,-0.059 0.443,-0.13 0.62,-0.212l0.391,2.138c-0.386,0.169 -0.831,0.304 -1.333,0.407c-0.502,0.102 -0.963,0.153 -1.382,0.153c-0.878,-0 -1.561,-0.234 -2.05,-0.703c-0.488,-0.468 -0.733,-1.129 -0.733,-1.982l0,-12.691Zm26.442,15.202l-2.832,-0l-0,-6.118c-0,-0.877 -0.155,-1.517 -0.463,-1.92c-0.308,-0.403 -0.737,-0.604 -1.285,-0.604c-0.381,-0 -0.765,0.098 -1.154,0.295c-0.389,0.196 -0.738,0.464 -1.046,0.803c-0.308,0.339 -0.537,0.729 -0.687,1.172l-0,6.372l-2.833,-0l0,-10.908l2.559,0l-0,2.013c0.283,-0.463 0.645,-0.859 1.084,-1.187c0.44,-0.328 0.943,-0.58 1.509,-0.757c0.566,-0.177 1.171,-0.266 1.812,-0.266c0.692,0 1.257,0.123 1.696,0.367c0.44,0.245 0.778,0.574 1.015,0.987c0.237,0.412 0.4,0.873 0.49,1.381c0.09,0.508 0.135,1.026 0.135,1.554l-0,6.816Zm-44.119,-2.675c0.163,-0.156 0.294,-0.32 0.392,-0.49c0.099,-0.17 0.148,-0.324 0.148,-0.463l0,-1.109c-0.341,-0.129 -0.709,-0.231 -1.102,-0.306c-0.393,-0.074 -0.768,-0.112 -1.125,-0.112c-0.735,0 -1.337,0.154 -1.808,0.463c-0.47,0.308 -0.705,0.719 -0.705,1.232c-0,0.279 0.077,0.543 0.233,0.794c0.155,0.252 0.38,0.455 0.674,0.61c0.294,0.155 0.649,0.232 1.065,0.232c0.425,0 0.84,-0.08 1.243,-0.24c0.404,-0.16 0.733,-0.364 0.985,-0.611Zm10.247,0.512c0.306,-0 0.599,-0.049 0.88,-0.148c0.28,-0.098 0.541,-0.23 0.781,-0.397c0.24,-0.166 0.451,-0.362 0.634,-0.588c0.183,-0.226 0.322,-0.463 0.418,-0.712l0,-2.598c-0.165,-0.424 -0.4,-0.796 -0.703,-1.115c-0.302,-0.32 -0.642,-0.568 -1.018,-0.746c-0.376,-0.177 -0.763,-0.266 -1.161,-0.266c-0.436,-0 -0.832,0.093 -1.187,0.279c-0.355,0.186 -0.659,0.439 -0.911,0.759c-0.253,0.321 -0.448,0.68 -0.586,1.078c-0.137,0.399 -0.206,0.81 -0.206,1.235c0,0.447 0.078,0.865 0.234,1.253c0.156,0.388 0.372,0.731 0.646,1.027c0.275,0.297 0.6,0.528 0.976,0.692c0.376,0.164 0.777,0.247 1.203,0.247Z" style="fill-rule:nonzero;"/></g></g></svg>