<svg xmlns="http://www.w3.org/2000/svg" viewBox="0 0 77.2 18"><path d="M39.9,18c-2.7,0-4.6-1.1-5.5-3.3v-.3h2.2a3.5,3.5,0,0,0,3.4,1.7,4.1,4.1,0,0,0,1.9-.4,3.1,3.1,0,0,0,1.2-1,3,3,0,0,0,.2-1v-.5l-.4.3-1,.5a6,6,0,0,1-6-1,4.6,4.6,0,0,1-1.6-3.5A4.8,4.8,0,0,1,36,6a5.6,5.6,0,0,1,3.8-1.5A5.2,5.2,0,0,1,43,5.6l.3.2v-1h2v7.4a10.7,10.7,0,0,1-.3,2.9,5.7,5.7,0,0,1-1.1,1.6,7.7,7.7,0,0,1-1.8,1A7.8,7.8,0,0,1,39.9,18Zm0-11.6a3.3,3.3,0,0,0-2.5,1,3,3,0,0,0-1.1,2.3,3.5,3.5,0,0,0,1,2.1,4.1,4.1,0,0,0,2.6.9,3.5,3.5,0,0,0,2.5-.9,2.9,2.9,0,0,0,1-2.2,3.1,3.1,0,0,0-1-2.3A3.7,3.7,0,0,0,39.9,6.4ZM62.4,15a5.7,5.7,0,0,1-4-1.5,5.1,5.1,0,0,1-1.5-3.7,5,5,0,0,1,1.5-3.7,5.5,5.5,0,0,1,3.9-1.6A5.9,5.9,0,0,1,66.2,6a5.8,5.8,0,0,1,1.6,4v.2H58.9v.3a2.7,2.7,0,0,0,1,1.8,3.2,3.2,0,0,0,2.3.9,4,4,0,0,0,3.4-2.1v-.2l1.8.8v.2a6.1,6.1,0,0,1-2.2,2.3A5.5,5.5,0,0,1,62.4,15Zm-.1-8.6a3.2,3.2,0,0,0-3,1.8v.3h6.3V8.2a2.8,2.8,0,0,0-1-1.2A3.7,3.7,0,0,0,62.3,6.4ZM26.6,15a4.3,4.3,0,0,1-3.3-1.5v-.2l1.3-1.4.2.2a2.4,2.4,0,0,0,1.8,1,2.3,2.3,0,0,0,1.1-.3,1.8,1.8,0,0,0,.4-.9.8.8,0,0,0-.4-.7,4.9,4.9,0,0,0-1.5-.9,6.2,6.2,0,0,1-1.7-1.2,2.7,2.7,0,0,1-.7-2,2.8,2.8,0,0,1,.9-1.8,3.5,3.5,0,0,1,2.2-.8,4.8,4.8,0,0,1,3.1,1.4l.2.2L28.8,7.4h-.2a2.8,2.8,0,0,0-1.8-.9l-.8.2c-.3.3-.4.5-.4.7s.2.4.4.7l1.5.9a5.7,5.7,0,0,1,1.8,1.2,2.6,2.6,0,0,1,.6,1.9,3.1,3.1,0,0,1-.9,2.1A3.6,3.6,0,0,1,26.6,15Zm-9.2,0a5.3,5.3,0,0,1-5.5-5.2,5.1,5.1,0,0,1,1.6-3.7,5.2,5.2,0,0,1,3.9-1.6A5.6,5.6,0,0,1,21.2,6a5.4,5.4,0,0,1,1.6,4v.2H14v.3a3.2,3.2,0,0,0,1,1.8,3.2,3.2,0,0,0,2.3.9,4.1,4.1,0,0,0,3.5-2.1v-.2l1.7.8v.2a5.9,5.9,0,0,1-2.1,2.3A6.1,6.1,0,0,1,17.4,15Zm-.1-8.6a3,3,0,0,0-2.9,1.8v.3h6.2V8.2A2.7,2.7,0,0,0,19.5,7,4,4,0,0,0,17.3,6.4ZM5.5,15a5.4,5.4,0,0,1-3.2-1.1L2,13.6v1.1H0V1.3H2V5.8l.3-.2A5.2,5.2,0,0,1,5.5,4.5,5.3,5.3,0,0,1,9.4,6.1,5.1,5.1,0,0,1,11,9.8a4.8,4.8,0,0,1-1.6,3.6A5.3,5.3,0,0,1,5.5,15Zm0-8.6a3.7,3.7,0,0,0-2.6.9,3.3,3.3,0,0,0-1,2.3,3.6,3.6,0,0,0,1,2.5,3.9,3.9,0,0,0,2.5,1h0a3.6,3.6,0,0,0,2.5-1A3.1,3.1,0,0,0,9,9.8,3.3,3.3,0,0,0,8,7.4,3.3,3.3,0,0,0,5.5,6.4Zm63.2,8.3V4.8h2.1v.5l.3-.2.2-.2a2.8,2.8,0,0,1,1.2-.4,4.2,4.2,0,0,1,1.5.4l.3.2L73.2,6.7h-.7a1.2,1.2,0,0,0-.9.4A3.9,3.9,0,0,0,71,8.2a17,17,0,0,0-.2,3v3.5ZM54,14.7V9.9a8.1,8.1,0,0,0-.2-2,3.6,3.6,0,0,0-.4-.9l-.7-.5h-1a3.1,3.1,0,0,0-1.3.3,1.9,1.9,0,0,0-1,.8,2.7,2.7,0,0,0-.6,1,13.6,13.6,0,0,0-.1,2.4v3.8H46.6V4.8h2.1v1l.3-.2a4.6,4.6,0,0,1,2.9-1.1,4,4,0,0,1,2.2.6,3.6,3.6,0,0,1,1.4,1.6A6.9,6.9,0,0,1,56,9.6v5.1Zm-23,0V4.8h2.1v9.9ZM32.1,3.9A1.5,1.5,0,0,1,31,3.5a1.3,1.3,0,0,1-.4-.9,1.3,1.3,0,0,1,.4-.9,1.5,1.5,0,0,1,1.1-.4,1.9,1.9,0,0,1,1,.3,1.8,1.8,0,0,1,.4,1,1.8,1.8,0,0,1-.4,1A1.9,1.9,0,0,1,32.1,3.9Z"/></svg>
