<?xml version="1.0" encoding="UTF-8" standalone="no"?>
<!DOCTYPE svg PUBLIC "-//W3C//DTD SVG 1.1//EN" "http://www.w3.org/Graphics/SVG/1.1/DTD/svg11.dtd">
<svg width="100%" height="100%" viewBox="0 0 143 24" version="1.1" xmlns="http://www.w3.org/2000/svg" xmlns:xlink="http://www.w3.org/1999/xlink" xml:space="preserve" xmlns:serif="http://www.serif.com/" style="fill-rule:evenodd;clip-rule:evenodd;stroke-linejoin:round;stroke-miterlimit:2;">
    <g transform="matrix(1,0,0,1,12,12)">
        <g transform="matrix(1,0,0,1,-12,-12)">
            <path id="shape-controls" serif:id="shape controls" d="M6,4L6,3L3,3L3,6L4,6L4,18L3,18L3,21L6,21L6,20L18,20L18,21L21,21L21,18L20,18L20,6L21,6L21,3L18,3L18,4L6,4ZM18,5L6,5L6,6L5,6L5,18L6,18L6,19L18,19L18,18L19,18L19,6L18,6L18,5ZM8,19L9,19L9,15L5,15L5,16L8,16L8,19Z" style="fill:rgb(224,64,251);"/>
            <g id="Compass" transform="matrix(0.5,0.866025,-0.866025,0.5,14.1866,-8.37437)">
                <path d="M13.25,9.885C12.236,9.567 11.5,8.619 11.5,7.5C11.5,6.617 11.959,5.84 12.651,5.395C12.581,5.316 12.507,5.236 12.438,5.167C12.302,5.031 11.874,4.743 11.874,4.743L11.874,4.743C11.784,4.652 11.728,4.527 11.728,4.389C11.728,4.113 11.952,3.889 12.228,3.889C12.329,3.889 12.424,3.919 12.503,3.972C12.503,3.972 12.829,4.135 13.157,4.461C13.46,4.761 13.599,4.948 13.65,5.024C13.764,5.008 13.881,5 14,5C15.38,5 16.5,6.12 16.5,7.5C16.5,8.619 15.764,9.567 14.75,9.885L14.75,13C15.164,13 15.5,13.336 15.5,13.75L15.5,17.25C15.5,17.664 15.164,18 14.75,18L14.75,19.5L14,21L13.25,19.5L13.25,18C12.836,18 12.5,17.664 12.5,17.25L12.5,13.75C12.5,13.336 12.836,13 13.25,13L13.25,9.885ZM16.574,9.852C16.747,9.676 16.902,9.474 17.031,9.25C17.161,9.026 17.258,8.792 17.324,8.553L24.767,12.851L25.691,14.25L24.017,14.15L16.574,9.852ZM14,6.25C14.69,6.25 15.25,6.81 15.25,7.5C15.25,8.19 14.69,8.75 14,8.75C13.31,8.75 12.75,8.19 12.75,7.5C12.75,6.81 13.31,6.25 14,6.25Z" style="fill:rgb(0,176,255);"/>
            </g>
        </g>
    </g>
    <g transform="matrix(1,0,0,1,82.5,12)">
        <g transform="matrix(1,0,0,1,-60.5,-12)">
            <g transform="matrix(1,0,0,1,26,12)">
                <g transform="matrix(1,0,0,1,-26,-12)">
                    <path d="M29.708,18.611C29.931,18.663 30.144,18.707 30.346,18.742C30.549,18.778 30.72,18.796 30.861,18.796C31.093,18.796 31.291,18.737 31.455,18.619C31.618,18.501 31.774,18.289 31.921,17.982C32.068,17.675 32.228,17.247 32.4,16.698L28.444,6.86L31.094,6.86L33.796,14.128L36.157,6.86L38.589,6.86L34.4,18.644C34.251,19.09 34.019,19.492 33.702,19.851C33.385,20.209 32.997,20.49 32.539,20.694C32.082,20.898 31.565,21 30.991,21C30.785,21 30.578,20.984 30.372,20.952C30.165,20.919 29.944,20.865 29.708,20.788L29.708,18.611ZM17.582,16.76C16.92,16.76 16.312,16.629 15.758,16.368C15.203,16.108 14.729,15.747 14.334,15.286C13.938,14.825 13.632,14.294 13.416,13.693C13.199,13.092 13.09,12.454 13.09,11.781C13.09,11.069 13.203,10.405 13.428,9.789C13.654,9.173 13.973,8.631 14.386,8.164C14.799,7.698 15.288,7.334 15.853,7.073C16.418,6.812 17.044,6.682 17.73,6.682C18.505,6.682 19.186,6.856 19.773,7.203C20.361,7.55 20.842,8.013 21.216,8.593L21.216,6.86L23.451,6.86L23.451,16.229C23.451,17.201 23.212,18.035 22.735,18.73C22.258,19.425 21.602,19.958 20.767,20.329C19.932,20.7 18.982,20.886 17.915,20.886C16.825,20.886 15.906,20.706 15.157,20.346C14.408,19.986 13.767,19.486 13.233,18.845L14.627,17.5C15.009,17.969 15.489,18.334 16.067,18.597C16.645,18.859 17.261,18.991 17.915,18.991C18.451,18.991 18.944,18.894 19.396,18.7C19.848,18.506 20.211,18.205 20.485,17.797C20.759,17.388 20.896,16.866 20.896,16.229L20.896,14.993C20.567,15.554 20.102,15.989 19.501,16.297C18.899,16.605 18.259,16.76 17.582,16.76ZM3,13.794C3,13.151 3.183,12.59 3.548,12.11C3.913,11.63 4.417,11.257 5.061,10.989C5.705,10.722 6.447,10.588 7.286,10.588C7.708,10.588 8.134,10.621 8.563,10.687C8.993,10.754 9.37,10.853 9.694,10.985L9.694,10.457C9.694,9.836 9.507,9.356 9.132,9.017C8.758,8.678 8.203,8.509 7.467,8.509C6.915,8.509 6.39,8.603 5.894,8.791C5.398,8.98 4.876,9.253 4.328,9.61L3.52,7.971C4.18,7.539 4.855,7.216 5.546,7.002C6.238,6.789 6.967,6.682 7.735,6.682C9.149,6.682 10.255,7.032 11.052,7.733C11.85,8.433 12.248,9.437 12.248,10.745L12.248,13.888C12.248,14.15 12.294,14.337 12.385,14.448C12.477,14.559 12.632,14.623 12.851,14.641L12.851,16.698C12.628,16.74 12.425,16.771 12.241,16.792C12.058,16.813 11.899,16.824 11.766,16.824C11.257,16.824 10.872,16.713 10.612,16.492C10.352,16.27 10.192,15.993 10.133,15.659L10.077,15.158C9.64,15.714 9.097,16.141 8.449,16.439C7.802,16.737 7.141,16.886 6.466,16.886C5.805,16.886 5.211,16.749 4.684,16.477C4.157,16.205 3.745,15.835 3.447,15.367C3.149,14.899 3,14.374 3,13.794ZM25.151,2.987L27.705,2.987L27.705,13.535C27.705,13.995 27.783,14.302 27.938,14.459C28.094,14.615 28.3,14.693 28.556,14.693C28.771,14.693 28.985,14.666 29.198,14.613C29.411,14.559 29.597,14.496 29.756,14.422L30.109,16.35C29.761,16.502 29.36,16.624 28.907,16.716C28.454,16.809 28.039,16.855 27.66,16.855C26.869,16.855 26.253,16.643 25.812,16.221C25.371,15.798 25.151,15.202 25.151,14.433L25.151,2.987ZM49,16.698L46.445,16.698L46.445,11.18C46.445,10.389 46.306,9.811 46.028,9.448C45.75,9.084 45.363,8.903 44.869,8.903C44.526,8.903 44.179,8.991 43.828,9.169C43.477,9.346 43.163,9.588 42.885,9.893C42.607,10.199 42.4,10.552 42.265,10.951L42.265,16.698L39.71,16.698L39.71,6.86L42.018,6.86L42.018,8.675C42.273,8.257 42.599,7.9 42.996,7.604C43.392,7.309 43.846,7.081 44.357,6.921C44.868,6.762 45.412,6.682 45.991,6.682C46.615,6.682 47.125,6.792 47.521,7.013C47.917,7.234 48.222,7.53 48.436,7.902C48.65,8.275 48.797,8.69 48.878,9.149C48.959,9.607 49,10.074 49,10.55L49,16.698ZM9.207,14.285C9.353,14.144 9.471,13.997 9.56,13.843C9.649,13.69 9.694,13.551 9.694,13.425L9.694,12.425C9.386,12.309 9.054,12.217 8.7,12.149C8.345,12.082 8.006,12.049 7.685,12.049C7.022,12.049 6.479,12.188 6.054,12.466C5.63,12.744 5.418,13.115 5.418,13.577C5.418,13.829 5.488,14.067 5.628,14.294C5.768,14.52 5.971,14.703 6.236,14.843C6.501,14.983 6.821,15.053 7.197,15.053C7.58,15.053 7.954,14.981 8.318,14.836C8.683,14.692 8.979,14.508 9.207,14.285ZM18.449,14.747C18.725,14.747 18.989,14.702 19.242,14.614C19.495,14.525 19.73,14.406 19.947,14.256C20.163,14.106 20.354,13.929 20.519,13.725C20.684,13.521 20.809,13.307 20.896,13.083L20.896,10.74C20.747,10.357 20.535,10.021 20.262,9.733C19.989,9.446 19.683,9.221 19.344,9.061C19.004,8.901 18.655,8.821 18.297,8.821C17.903,8.821 17.546,8.905 17.226,9.072C16.906,9.24 16.632,9.468 16.404,9.758C16.176,10.047 16,10.371 15.876,10.73C15.752,11.089 15.69,11.46 15.69,11.843C15.69,12.247 15.76,12.624 15.901,12.974C16.042,13.324 16.236,13.633 16.484,13.9C16.731,14.168 17.025,14.376 17.364,14.524C17.703,14.673 18.065,14.747 18.449,14.747Z" style="fill:rgb(0,176,255);fill-rule:nonzero;"/>
                </g>
            </g>
            <path d="M57.93,16.817C57.201,16.817 56.537,16.683 55.938,16.416C55.338,16.148 54.819,15.778 54.381,15.305C53.942,14.832 53.602,14.291 53.361,13.681C53.12,13.071 53,12.424 53,11.74C53,10.819 53.204,9.979 53.612,9.22C54.019,8.461 54.594,7.854 55.335,7.4C56.077,6.945 56.935,6.718 57.912,6.718C58.863,6.718 59.694,6.933 60.404,7.362C61.115,7.792 61.643,8.367 61.989,9.089L60.395,9.593C60.148,9.133 59.802,8.775 59.357,8.52C58.912,8.265 58.418,8.137 57.875,8.137C57.281,8.137 56.741,8.293 56.253,8.604C55.765,8.915 55.379,9.341 55.094,9.882C54.81,10.424 54.668,11.043 54.668,11.74C54.668,12.424 54.813,13.043 55.104,13.597C55.394,14.151 55.783,14.589 56.271,14.913C56.759,15.237 57.3,15.398 57.893,15.398C58.276,15.398 58.644,15.33 58.996,15.193C59.348,15.056 59.657,14.873 59.923,14.642C60.188,14.412 60.37,14.16 60.469,13.886L62.063,14.372C61.866,14.845 61.566,15.265 61.164,15.632C60.763,15.999 60.287,16.288 59.737,16.5C59.187,16.711 58.585,16.817 57.93,16.817ZM88.178,16.817C87.375,16.817 86.621,16.683 85.917,16.416C85.213,16.148 84.607,15.747 84.101,15.212L84.731,14.054C85.287,14.577 85.843,14.95 86.399,15.174C86.955,15.398 87.523,15.51 88.104,15.51C88.771,15.51 89.315,15.383 89.735,15.128C90.155,14.873 90.365,14.496 90.365,13.998C90.365,13.637 90.257,13.37 90.041,13.196C89.825,13.021 89.519,12.875 89.123,12.757C88.728,12.639 88.259,12.505 87.715,12.356C87.048,12.157 86.485,11.945 86.028,11.721C85.571,11.497 85.225,11.217 84.99,10.881C84.756,10.545 84.638,10.122 84.638,9.612C84.638,8.989 84.799,8.464 85.12,8.034C85.441,7.605 85.883,7.278 86.445,7.054C87.007,6.83 87.647,6.718 88.364,6.718C89.08,6.718 89.729,6.83 90.31,7.054C90.89,7.278 91.391,7.608 91.811,8.044L91.07,9.182C90.687,8.784 90.266,8.489 89.809,8.296C89.352,8.103 88.839,8.006 88.271,8.006C87.937,8.006 87.61,8.047 87.289,8.128C86.967,8.209 86.702,8.352 86.492,8.557C86.282,8.762 86.177,9.052 86.177,9.425C86.177,9.736 86.26,9.982 86.427,10.162C86.594,10.343 86.841,10.495 87.168,10.62C87.496,10.744 87.894,10.881 88.364,11.03C89.093,11.242 89.726,11.453 90.263,11.665C90.801,11.877 91.218,12.15 91.514,12.486C91.811,12.822 91.959,13.289 91.959,13.886C91.959,14.807 91.613,15.526 90.921,16.042C90.229,16.559 89.315,16.817 88.178,16.817ZM67.753,16.817C67.024,16.817 66.363,16.683 65.77,16.416C65.177,16.148 64.664,15.781 64.232,15.314C63.799,14.848 63.466,14.311 63.231,13.703C62.996,13.096 62.879,12.454 62.879,11.777C62.879,11.088 62.996,10.44 63.231,9.832C63.466,9.225 63.799,8.688 64.232,8.221C64.664,7.754 65.18,7.387 65.779,7.12C66.379,6.852 67.04,6.718 67.763,6.718C68.485,6.718 69.143,6.852 69.737,7.12C70.33,7.387 70.845,7.754 71.284,8.221C71.723,8.688 72.06,9.225 72.294,9.832C72.529,10.44 72.646,11.088 72.646,11.777C72.646,12.454 72.529,13.096 72.294,13.703C72.06,14.311 71.726,14.848 71.293,15.314C70.861,15.781 70.345,16.148 69.746,16.416C69.147,16.683 68.482,16.817 67.753,16.817ZM97.816,16.817C97.087,16.817 96.426,16.683 95.833,16.416C95.24,16.148 94.727,15.781 94.295,15.314C93.862,14.848 93.528,14.311 93.294,13.703C93.059,13.096 92.942,12.454 92.942,11.777C92.942,11.088 93.059,10.44 93.294,9.832C93.528,9.225 93.862,8.688 94.295,8.221C94.727,7.754 95.243,7.387 95.842,7.12C96.441,6.852 97.103,6.718 97.825,6.718C98.548,6.718 99.206,6.852 99.799,7.12C100.392,7.387 100.908,7.754 101.347,8.221C101.786,8.688 102.122,9.225 102.357,9.832C102.592,10.44 102.709,11.088 102.709,11.777C102.709,12.454 102.592,13.096 102.357,13.703C102.122,14.311 101.789,14.848 101.356,15.314C100.924,15.781 100.408,16.148 99.809,16.416C99.209,16.683 98.545,16.817 97.816,16.817ZM113.144,16.817C112.415,16.817 111.751,16.683 111.152,16.416C110.552,16.148 110.033,15.781 109.595,15.314C109.156,14.848 108.816,14.309 108.575,13.7C108.334,13.09 108.214,12.443 108.214,11.758C108.214,10.837 108.424,9.997 108.844,9.238C109.264,8.479 109.848,7.869 110.596,7.409C111.343,6.949 112.199,6.718 113.163,6.718C114.139,6.718 114.988,6.952 115.711,7.418C116.434,7.885 116.996,8.495 117.398,9.248C117.799,10.001 118,10.813 118,11.684C118,11.808 117.997,11.929 117.991,12.048C117.985,12.166 117.975,12.256 117.963,12.318L109.938,12.318C109.987,12.953 110.163,13.516 110.466,14.008C110.769,14.499 111.161,14.885 111.643,15.165C112.125,15.445 112.644,15.585 113.2,15.585C113.793,15.585 114.352,15.436 114.877,15.137C115.402,14.838 115.764,14.446 115.961,13.961L117.37,14.353C117.16,14.826 116.848,15.249 116.434,15.622C116.02,15.996 115.532,16.288 114.97,16.5C114.407,16.711 113.799,16.817 113.144,16.817ZM104.488,3.004L106.119,3.004L106.119,14.11C106.119,14.645 106.194,14.975 106.342,15.1C106.49,15.224 106.669,15.286 106.879,15.286C107.139,15.286 107.386,15.258 107.621,15.202C107.856,15.146 108.053,15.087 108.214,15.025L108.473,16.369C108.202,16.481 107.88,16.574 107.51,16.649C107.139,16.724 106.811,16.761 106.527,16.761C105.897,16.761 105.4,16.581 105.035,16.22C104.671,15.859 104.488,15.355 104.488,14.708L104.488,3.004ZM82.785,16.63L81.154,16.63L81.154,11.18C81.154,10.147 80.996,9.391 80.681,8.912C80.366,8.433 79.887,8.193 79.245,8.193C78.8,8.193 78.358,8.305 77.919,8.529C77.481,8.753 77.092,9.055 76.752,9.434C76.412,9.814 76.168,10.253 76.02,10.75L76.02,16.63L74.389,16.63L74.389,6.886L75.871,6.886L75.871,8.977C76.131,8.517 76.464,8.118 76.872,7.782C77.28,7.446 77.743,7.185 78.262,6.998C78.781,6.812 79.325,6.718 79.893,6.718C80.449,6.718 80.916,6.821 81.293,7.026C81.67,7.232 81.966,7.518 82.182,7.885C82.399,8.252 82.553,8.685 82.646,9.182C82.738,9.68 82.785,10.221 82.785,10.806L82.785,16.63ZM64.547,11.794C64.547,12.467 64.692,13.077 64.982,13.625C65.273,14.173 65.659,14.605 66.141,14.922C66.623,15.24 67.16,15.398 67.753,15.398C68.346,15.398 68.887,15.237 69.375,14.913C69.863,14.589 70.252,14.151 70.543,13.597C70.833,13.043 70.978,12.43 70.978,11.758C70.978,11.086 70.833,10.477 70.543,9.929C70.252,9.381 69.862,8.946 69.373,8.622C68.883,8.299 68.343,8.137 67.753,8.137C67.16,8.137 66.622,8.302 66.138,8.633C65.654,8.964 65.268,9.403 64.98,9.949C64.691,10.496 64.547,11.111 64.547,11.794ZM94.61,11.794C94.61,12.467 94.755,13.077 95.045,13.625C95.336,14.173 95.722,14.605 96.204,14.922C96.685,15.24 97.223,15.398 97.816,15.398C98.409,15.398 98.95,15.237 99.438,14.913C99.926,14.589 100.315,14.151 100.606,13.597C100.896,13.043 101.041,12.43 101.041,11.758C101.041,11.086 100.896,10.477 100.606,9.929C100.315,9.381 99.925,8.946 99.435,8.622C98.945,8.299 98.406,8.137 97.816,8.137C97.223,8.137 96.685,8.302 96.201,8.633C95.717,8.964 95.331,9.403 95.042,9.949C94.754,10.496 94.61,11.111 94.61,11.794ZM109.882,11.18L116.48,11.18C116.431,10.545 116.252,9.985 115.943,9.5C115.634,9.014 115.238,8.635 114.756,8.361C114.275,8.087 113.743,7.95 113.163,7.95C112.594,7.95 112.069,8.087 111.587,8.361C111.105,8.635 110.713,9.014 110.41,9.5C110.107,9.985 109.931,10.545 109.882,11.18Z" style="fill:white;fill-rule:nonzero;"/>
        </g>
    </g>
</svg>
