<?xml version="1.0" encoding="UTF-8" standalone="no"?><!DOCTYPE svg PUBLIC "-//W3C//DTD SVG 1.1//EN" "http://www.w3.org/Graphics/SVG/1.1/DTD/svg11.dtd"><svg width="100%" height="100%" viewBox="0 0 84 24" version="1.1" xmlns="http://www.w3.org/2000/svg" xmlns:xlink="http://www.w3.org/1999/xlink" xml:space="preserve" xmlns:serif="http://www.serif.com/" style="fill-rule:evenodd;clip-rule:evenodd;stroke-linejoin:round;stroke-miterlimit:2;"><g id="besigner-logo-text-light"><rect x="-0" y="-0.003" width="84" height="24" style="fill:none;"/><path d="M44.426,17.443c-0.733,-0 -1.406,-0.151 -2.022,-0.452c-0.615,-0.3 -1.144,-0.713 -1.586,-1.238c-0.442,-0.524 -0.784,-1.123 -1.026,-1.794c-0.242,-0.672 -0.363,-1.371 -0.363,-2.099c-0,-0.769 0.121,-1.497 0.363,-2.182c0.242,-0.686 0.587,-1.291 1.036,-1.816c0.45,-0.524 0.978,-0.937 1.587,-1.238c0.608,-0.301 1.285,-0.451 2.032,-0.451c0.898,-0 1.683,0.224 2.353,0.672c0.671,0.447 1.234,1.014 1.69,1.699l0,-2.182l1.618,-0l-0,10.829c-0,1.035 -0.246,1.91 -0.736,2.623c-0.491,0.714 -1.155,1.256 -1.991,1.627c-0.836,0.37 -1.766,0.556 -2.789,0.556c-1.217,-0 -2.212,-0.217 -2.986,-0.651c-0.774,-0.434 -1.417,-1.021 -1.928,-1.763l1.057,-0.944c0.429,0.643 0.985,1.126 1.669,1.448c0.685,0.322 1.414,0.483 2.188,0.483c0.664,-0 1.275,-0.123 1.835,-0.368c0.56,-0.245 1.009,-0.619 1.348,-1.122c0.339,-0.504 0.508,-1.134 0.508,-1.889l0,-1.931c-0.401,0.672 -0.95,1.203 -1.648,1.595c-0.699,0.392 -1.435,0.588 -2.209,0.588Zm-36.869,0.084c-0.843,-0 -1.61,-0.21 -2.301,-0.63c-0.692,-0.42 -1.238,-0.965 -1.639,-1.637l0,2.057l-1.617,-0l0,-15.32l1.825,-0l-0,6.547c0.456,-0.713 1.016,-1.287 1.679,-1.72c0.664,-0.434 1.438,-0.651 2.323,-0.651c0.746,-0 1.417,0.157 2.011,0.472c0.595,0.315 1.103,0.742 1.524,1.28c0.422,0.539 0.747,1.148 0.975,1.826c0.228,0.679 0.342,1.389 0.342,2.13c0,0.77 -0.128,1.494 -0.384,2.172c-0.255,0.679 -0.618,1.28 -1.088,1.805c-0.47,0.525 -1.013,0.934 -1.628,1.228c-0.615,0.294 -1.289,0.441 -2.022,0.441Zm22.603,-0c-0.899,-0 -1.742,-0.151 -2.53,-0.452c-0.788,-0.3 -1.465,-0.752 -2.032,-1.353l0.705,-1.301c0.622,0.587 1.244,1.007 1.866,1.259c0.622,0.252 1.258,0.378 1.908,0.378c0.746,-0 1.354,-0.144 1.825,-0.431c0.47,-0.287 0.705,-0.71 0.705,-1.269c-0,-0.406 -0.121,-0.707 -0.363,-0.903c-0.242,-0.196 -0.584,-0.36 -1.027,-0.493c-0.442,-0.133 -0.967,-0.283 -1.576,-0.451c-0.746,-0.224 -1.375,-0.462 -1.887,-0.714c-0.511,-0.252 -0.898,-0.566 -1.161,-0.944c-0.263,-0.378 -0.394,-0.854 -0.394,-1.427c0,-0.7 0.18,-1.291 0.539,-1.774c0.36,-0.482 0.854,-0.849 1.483,-1.101c0.629,-0.252 1.344,-0.378 2.146,-0.378c0.802,-0 1.528,0.126 2.177,0.378c0.65,0.252 1.21,0.622 1.68,1.112l-0.829,1.28c-0.429,-0.448 -0.899,-0.78 -1.411,-0.997c-0.511,-0.217 -1.085,-0.325 -1.721,-0.325c-0.373,0 -0.739,0.045 -1.099,0.136c-0.359,0.091 -0.656,0.252 -0.891,0.483c-0.235,0.231 -0.353,0.556 -0.353,0.976c0,0.35 0.093,0.626 0.28,0.829c0.187,0.203 0.463,0.374 0.83,0.514c0.366,0.14 0.812,0.294 1.337,0.462c0.816,0.238 1.524,0.475 2.125,0.713c0.602,0.238 1.068,0.546 1.4,0.924c0.332,0.377 0.498,0.902 0.498,1.574c-0,1.035 -0.387,1.843 -1.161,2.424c-0.775,0.58 -1.798,0.871 -3.069,0.871Zm-10.866,-0c-0.816,-0 -1.559,-0.151 -2.229,-0.452c-0.671,-0.3 -1.251,-0.713 -1.742,-1.238c-0.491,-0.524 -0.871,-1.13 -1.141,-1.815c-0.269,-0.686 -0.404,-1.413 -0.404,-2.183c0,-1.035 0.235,-1.979 0.705,-2.833c0.47,-0.853 1.123,-1.539 1.96,-2.057c0.836,-0.517 1.793,-0.776 2.872,-0.776c1.092,-0 2.042,0.262 2.851,0.787c0.809,0.525 1.438,1.21 1.887,2.057c0.449,0.846 0.674,1.759 0.674,2.738c-0,0.14 -0.004,0.277 -0.011,0.41c-0.006,0.132 -0.017,0.234 -0.031,0.304l-8.978,-0c0.055,0.713 0.252,1.346 0.591,1.899c0.338,0.553 0.777,0.986 1.316,1.301c0.539,0.315 1.12,0.472 1.742,0.472c0.664,0 1.289,-0.167 1.877,-0.503c0.587,-0.336 0.992,-0.777 1.213,-1.322l1.576,0.44c-0.235,0.532 -0.584,1.008 -1.047,1.427c-0.464,0.42 -1.01,0.749 -1.639,0.987c-0.629,0.238 -1.309,0.357 -2.042,0.357Zm49.829,-0c-0.816,-0 -1.559,-0.151 -2.229,-0.452c-0.671,-0.3 -1.251,-0.713 -1.742,-1.238c-0.491,-0.524 -0.871,-1.13 -1.141,-1.815c-0.269,-0.686 -0.404,-1.413 -0.404,-2.183c0,-1.035 0.235,-1.979 0.705,-2.833c0.47,-0.853 1.123,-1.539 1.96,-2.057c0.836,-0.517 1.793,-0.776 2.872,-0.776c1.092,-0 2.042,0.262 2.851,0.787c0.809,0.525 1.438,1.21 1.887,2.057c0.449,0.846 0.674,1.759 0.674,2.738c-0,0.14 -0.004,0.277 -0.011,0.41c-0.007,0.132 -0.017,0.234 -0.031,0.304l-8.978,-0c0.055,0.713 0.252,1.346 0.59,1.899c0.339,0.553 0.778,0.986 1.317,1.301c0.539,0.315 1.12,0.472 1.742,0.472c0.664,0 1.289,-0.167 1.877,-0.503c0.587,-0.336 0.992,-0.777 1.213,-1.322l1.576,0.44c-0.235,0.532 -0.584,1.008 -1.047,1.427c-0.464,0.42 -1.01,0.749 -1.639,0.987c-0.629,0.238 -1.309,0.357 -2.042,0.357Zm-32.908,-0.21l-0,-10.955l1.824,-0l0,10.955l-1.824,-0Zm45.785,-9.339c-0.912,0.014 -1.718,0.248 -2.416,0.703c-0.698,0.455 -1.192,1.081 -1.482,1.878l-0,6.758l-1.825,-0l-0,-10.955l1.7,-0l0,2.539c0.373,-0.755 0.868,-1.367 1.483,-1.836c0.615,-0.469 1.261,-0.731 1.939,-0.787l0.352,-0c0.097,-0 0.18,0.007 0.249,0.021l0,1.679Zm-19.99,9.339l-1.824,-0l-0,-6.128c-0,-1.162 -0.177,-2.012 -0.529,-2.55c-0.353,-0.539 -0.888,-0.808 -1.607,-0.808c-0.498,-0 -0.992,0.126 -1.483,0.378c-0.491,0.251 -0.926,0.591 -1.306,1.017c-0.38,0.427 -0.653,0.92 -0.819,1.48l-0,6.611l-1.825,-0l-0,-10.955l1.659,-0l-0,2.35c0.29,-0.517 0.663,-0.965 1.12,-1.343c0.456,-0.378 0.974,-0.671 1.555,-0.881c0.58,-0.21 1.189,-0.315 1.825,-0.315c0.622,-0 1.143,0.115 1.565,0.346c0.422,0.231 0.754,0.553 0.995,0.966c0.242,0.412 0.415,0.899 0.519,1.458c0.104,0.56 0.155,1.168 0.155,1.826l0,6.548Zm-54.909,-1.385c0.539,-0 1.037,-0.112 1.493,-0.336c0.456,-0.224 0.85,-0.525 1.182,-0.903c0.332,-0.377 0.588,-0.811 0.767,-1.301c0.18,-0.489 0.27,-0.993 0.27,-1.511c-0,-0.713 -0.149,-1.385 -0.446,-2.014c-0.297,-0.63 -0.712,-1.137 -1.244,-1.522c-0.532,-0.385 -1.151,-0.577 -1.856,-0.577c-0.512,-0 -0.988,0.119 -1.431,0.357c-0.442,0.238 -0.833,0.549 -1.171,0.934c-0.339,0.384 -0.619,0.808 -0.84,1.269l-0,3.169c0.069,0.35 0.214,0.672 0.435,0.966c0.221,0.293 0.491,0.549 0.809,0.766c0.318,0.216 0.653,0.388 1.006,0.514c0.352,0.126 0.694,0.189 1.026,0.189Zm37.885,-0c0.387,-0 0.76,-0.07 1.12,-0.21c0.359,-0.14 0.691,-0.326 0.995,-0.556c0.304,-0.231 0.56,-0.494 0.767,-0.787c0.208,-0.294 0.346,-0.595 0.415,-0.903l0,-3.148c-0.193,-0.503 -0.47,-0.948 -0.829,-1.332c-0.36,-0.385 -0.768,-0.686 -1.224,-0.903c-0.456,-0.217 -0.926,-0.325 -1.41,-0.325c-0.553,-0 -1.047,0.119 -1.483,0.357c-0.435,0.238 -0.805,0.556 -1.109,0.955c-0.304,0.398 -0.539,0.843 -0.705,1.332c-0.166,0.49 -0.249,0.987 -0.249,1.49c0,0.546 0.097,1.06 0.291,1.543c0.193,0.482 0.456,0.913 0.788,1.29c0.331,0.378 0.725,0.672 1.181,0.882c0.457,0.21 0.941,0.315 1.452,0.315Zm-29.342,-4.743l7.382,-0c-0.055,-0.714 -0.255,-1.343 -0.601,-1.889c-0.346,-0.546 -0.788,-0.972 -1.327,-1.28c-0.539,-0.308 -1.134,-0.462 -1.783,-0.462c-0.636,0 -1.224,0.154 -1.763,0.462c-0.539,0.308 -0.978,0.734 -1.317,1.28c-0.338,0.546 -0.535,1.175 -0.591,1.889Zm49.829,-0l7.382,-0c-0.055,-0.714 -0.255,-1.343 -0.601,-1.889c-0.346,-0.546 -0.788,-0.972 -1.327,-1.28c-0.539,-0.308 -1.134,-0.462 -1.783,-0.462c-0.636,0 -1.224,0.154 -1.763,0.462c-0.539,0.308 -0.978,0.734 -1.317,1.28c-0.338,0.546 -0.535,1.175 -0.591,1.889Zm-29.258,-6.884l-0,-2.308l1.824,-0l0,2.308l-1.824,0Z" style="fill:#fff;fill-rule:nonzero;"/></g></svg>