<?xml version="1.0" encoding="UTF-8" standalone="no"?><!DOCTYPE svg PUBLIC "-//W3C//DTD SVG 1.1//EN" "http://www.w3.org/Graphics/SVG/1.1/DTD/svg11.dtd"><svg width="100%" height="100%" viewBox="0 0 320 132" version="1.1" xmlns="http://www.w3.org/2000/svg" xmlns:xlink="http://www.w3.org/1999/xlink" xml:space="preserve" xmlns:serif="http://www.serif.com/" style="fill-rule:evenodd;clip-rule:evenodd;stroke-linejoin:round;stroke-miterlimit:2;"><rect id="_320x132" serif:id="320x132" x="0" y="0" width="320" height="132" style="fill:none;"/><clipPath id="_clip1"><rect x="0" y="0" width="320" height="132"/></clipPath><g clip-path="url(#_clip1)"><g id="aglyn-logo-full-dark"><g id="aglyn-logo-mark-multi"><rect x="0" y="17.386" width="97.215" height="97.215" style="fill:none;"/><path d="M20.253,83.026l-1.082,0.745l-7.019,0.615l-0,5.911l-4.051,0l0,16.203l16.203,-0l-0,-4.051l29.049,-0l-0.602,-1.062l0,-7.039l-28.447,-0l-0,-4.051l-4.051,0l0,-7.271Zm56.709,-29.299l0,36.57l-0.015,0l0,11.09l-2.895,5.113l15.062,-0l-0,-16.203l-4.051,0l0,-41.612c-1.497,0 -3.385,-0 -3.384,-0.001c-1.244,1.904 -2.825,3.618 -4.717,5.043Zm-64.81,0.587l8.101,-5.574l0,-7.051l4.051,0l-0,-4.05l19.231,-0l1.132,-0.779c0.101,-2.526 0.675,-5.013 1.686,-7.322l-22.049,-0l-0,-4.051l-16.203,-0l0,16.202l4.051,0l-0,12.625Zm76.962,-28.827l-8.217,-0c0.27,0.358 0.529,0.726 0.777,1.106l5.187,-0l2.253,2.252l-0,-3.358Z" style="fill:#e040fb;"/><path d="M60.759,57.892c1.308,0.298 2.678,0.455 4.09,0.455c1.412,-0 2.783,-0.157 4.09,-0.455l-0,41.385l-4.09,7.223l-4.09,-7.223l0,-41.385Zm-7.686,-17.095c-1.397,-5.186 0.791,-10.87 5.661,-13.682c5.808,-3.353 13.246,-1.36 16.6,4.448c0.563,0.976 0.976,1.998 1.244,3.038l6.966,0l1.519,1.519l0,3.038l-1.519,1.519l-6.97,-0c-0.788,3.047 -2.75,5.789 -5.688,7.486c-4.259,2.459 -9.395,2.043 -13.153,-0.644l-14.007,9.637l-1.021,5.525l-13.348,9.183l-5.525,-1.021l-7.462,5.134l-8.269,0.725l3.633,-7.463l7.398,-5.09c-0,-0 1.041,-5.633 1.041,-5.633l13.348,-9.184l5.633,1.041l13.919,-9.576Zm13.762,0.35c-1.936,1.117 -4.415,0.453 -5.533,-1.483c-1.118,-1.936 -0.453,-4.415 1.483,-5.533c1.936,-1.117 4.415,-0.453 5.533,1.483c1.117,1.936 0.453,4.415 -1.483,5.533Z" style="fill:#00b0ff;"/></g><g id="aglyn-logo-text-dark"><rect x="97.215" y="17.399" width="222.785" height="97.215" style="fill:none;"/><path d="M225.262,95.698c1,0.234 1.954,0.431 2.864,0.592c0.909,0.16 1.679,0.24 2.311,0.24c1.041,0 1.93,-0.265 2.666,-0.794c0.737,-0.529 1.435,-1.483 2.095,-2.862c0.661,-1.379 1.377,-3.301 2.15,-5.767l-17.763,-44.182l11.9,-0l12.134,32.643l10.602,-32.643l10.924,-0l-18.813,52.922c-0.668,2.004 -1.714,3.81 -3.137,5.419c-1.423,1.609 -3.163,2.872 -5.219,3.788c-2.057,0.916 -4.375,1.374 -6.956,1.374c-0.925,-0 -1.852,-0.073 -2.78,-0.217c-0.928,-0.145 -1.921,-0.391 -2.978,-0.737l0,-9.776Zm-54.459,-8.313c-2.973,-0 -5.705,-0.586 -8.193,-1.757c-2.489,-1.171 -4.621,-2.792 -6.395,-4.863c-1.775,-2.07 -3.149,-4.455 -4.123,-7.154c-0.973,-2.699 -1.46,-5.562 -1.46,-8.587c0,-3.195 0.506,-6.176 1.518,-8.944c1.012,-2.768 2.445,-5.2 4.3,-7.296c1.855,-2.096 4.051,-3.73 6.589,-4.901c2.537,-1.17 5.347,-1.756 8.429,-1.756c3.478,0 6.537,0.779 9.177,2.338c2.64,1.558 4.798,3.639 6.476,6.242l0,-7.782l10.037,-0l0,42.078c0,4.364 -1.071,8.107 -3.213,11.229c-2.142,3.121 -5.088,5.515 -8.837,7.183c-3.75,1.668 -8.019,2.502 -12.809,2.502c-4.895,-0 -9.024,-0.809 -12.388,-2.425c-3.363,-1.616 -6.242,-3.864 -8.637,-6.743l6.258,-6.04c1.718,2.105 3.874,3.747 6.468,4.926c2.594,1.179 5.36,1.769 8.299,1.769c2.405,-0 4.622,-0.435 6.65,-1.305c2.029,-0.87 3.659,-2.222 4.89,-4.056c1.231,-1.834 1.847,-4.181 1.847,-7.04l-0,-5.554c-1.476,2.522 -3.564,4.475 -6.267,5.859c-2.702,1.385 -5.574,2.077 -8.616,2.077Zm-65.487,-13.32c0,-2.887 0.82,-5.407 2.459,-7.561c1.639,-2.154 3.905,-3.832 6.798,-5.033c2.893,-1.201 6.223,-1.802 9.99,-1.802c1.895,0 3.808,0.149 5.738,0.446c1.93,0.297 3.622,0.742 5.076,1.335l0,-2.368c0,-2.791 -0.84,-4.947 -2.522,-6.469c-1.681,-1.522 -4.174,-2.283 -7.477,-2.283c-2.481,0 -4.835,0.423 -7.064,1.269c-2.23,0.847 -4.574,2.072 -7.034,3.678l-3.628,-7.36c2.963,-1.943 5.996,-3.393 9.1,-4.352c3.104,-0.958 6.38,-1.438 9.828,-1.438c6.352,0 11.318,1.573 14.899,4.719c3.581,3.146 5.371,7.655 5.371,13.527l0,14.114c0,1.179 0.205,2.018 0.615,2.516c0.41,0.497 1.107,0.787 2.091,0.869l0,9.235c-0.999,0.189 -1.912,0.33 -2.737,0.424c-0.826,0.094 -1.538,0.141 -2.137,0.141c-2.285,0 -4.012,-0.497 -5.18,-1.491c-1.167,-0.993 -1.886,-2.24 -2.154,-3.74l-0.247,-2.251c-1.967,2.5 -4.404,4.418 -7.312,5.755c-2.908,1.337 -5.877,2.005 -8.908,2.005c-2.968,0 -5.635,-0.611 -8.001,-1.832c-2.366,-1.222 -4.218,-2.885 -5.556,-4.988c-1.338,-2.103 -2.008,-4.458 -2.008,-7.065Zm99.477,-48.533l11.473,-0l-0,47.372c-0,2.063 0.349,3.446 1.046,4.148c0.698,0.702 1.623,1.053 2.773,1.053c0.967,-0 1.928,-0.12 2.884,-0.361c0.955,-0.241 1.791,-0.527 2.509,-0.858l1.583,8.659c-1.564,0.683 -3.363,1.232 -5.397,1.646c-2.035,0.414 -3.901,0.621 -5.6,0.621c-3.554,-0 -6.321,-0.949 -8.301,-2.846c-1.98,-1.898 -2.97,-4.575 -2.97,-8.031l-0,-51.403Zm107.106,61.575l-11.473,-0l0,-24.782c0,-3.552 -0.625,-6.145 -1.874,-7.777c-1.25,-1.632 -2.985,-2.448 -5.207,-2.448c-1.54,0 -3.098,0.399 -4.674,1.195c-1.576,0.797 -2.988,1.881 -4.235,3.254c-1.248,1.373 -2.176,2.956 -2.784,4.748l-0,25.81l-11.473,-0l0,-44.182l10.364,-0l-0,8.153c1.147,-1.878 2.61,-3.481 4.391,-4.809c1.781,-1.328 3.818,-2.35 6.112,-3.067c2.295,-0.716 4.742,-1.075 7.341,-1.075c2.801,0 5.091,0.496 6.87,1.487c1.78,0.991 3.15,2.322 4.11,3.994c0.96,1.672 1.622,3.537 1.986,5.596c0.364,2.059 0.546,4.157 0.546,6.293l-0,27.61Zm-178.709,-10.834c0.659,-0.634 1.189,-1.296 1.588,-1.985c0.4,-0.689 0.599,-1.314 0.599,-1.877l0,-4.493c-1.383,-0.522 -2.871,-0.935 -4.464,-1.237c-1.594,-0.302 -3.113,-0.453 -4.559,-0.453c-2.975,-0 -5.415,0.624 -7.321,1.874c-1.905,1.249 -2.858,2.913 -2.858,4.992c0,1.127 0.315,2.2 0.944,3.217c0.629,1.017 1.539,1.839 2.73,2.467c1.19,0.629 2.628,0.943 4.314,0.943c1.723,-0 3.402,-0.325 5.038,-0.974c1.636,-0.648 2.965,-1.473 3.989,-2.474Zm41.507,2.072c1.238,-0 2.425,-0.199 3.562,-0.597c1.137,-0.397 2.191,-0.933 3.164,-1.607c0.972,-0.675 1.829,-1.469 2.569,-2.384c0.74,-0.915 1.305,-1.876 1.694,-2.885l-0,-10.523c-0.671,-1.719 -1.62,-3.225 -2.847,-4.518c-1.226,-1.293 -2.601,-2.299 -4.125,-3.019c-1.523,-0.72 -3.09,-1.079 -4.702,-1.079c-1.767,-0 -3.37,0.376 -4.808,1.129c-1.437,0.753 -2.668,1.779 -3.693,3.078c-1.024,1.298 -1.814,2.754 -2.37,4.367c-0.556,1.612 -0.834,3.279 -0.834,4.999c-0,1.813 0.316,3.505 0.948,5.078c0.631,1.572 1.503,2.959 2.616,4.161c1.112,1.201 2.429,2.135 3.953,2.801c1.523,0.666 3.147,0.999 4.873,0.999Z" style="fill:#00b0ff;fill-rule:nonzero;"/></g></g></g></svg>