<?xml version="1.0" encoding="UTF-8" standalone="no"?><!DOCTYPE svg PUBLIC "-//W3C//DTD SVG 1.1//EN" "http://www.w3.org/Graphics/SVG/1.1/DTD/svg11.dtd"><svg width="100%" height="100%" viewBox="0 0 132 24" version="1.1" xmlns="http://www.w3.org/2000/svg" xmlns:xlink="http://www.w3.org/1999/xlink" xml:space="preserve" xmlns:serif="http://www.serif.com/" style="fill-rule:evenodd;clip-rule:evenodd;stroke-linejoin:round;stroke-miterlimit:2;"><g id="aglyn-console-logo-text-black"><g id="aglyn-logo-text-dark"><rect x="-0" y="-0" width="55" height="24" style="fill:none;"/><path d="M31.612,19.33c0.246,0.058 0.482,0.106 0.707,0.146c0.224,0.04 0.414,0.059 0.57,0.059c0.257,0 0.477,-0.065 0.658,-0.196c0.182,-0.13 0.355,-0.366 0.518,-0.706c0.163,-0.34 0.34,-0.815 0.53,-1.424l-4.385,-10.907l2.938,-0l2.995,8.058l2.618,-8.058l2.697,-0l-4.645,13.065c-0.165,0.494 -0.423,0.94 -0.774,1.338c-0.352,0.397 -0.781,0.709 -1.289,0.935c-0.507,0.226 -1.08,0.339 -1.717,0.339c-0.228,-0 -0.457,-0.018 -0.686,-0.054c-0.229,-0.035 -0.475,-0.096 -0.735,-0.182l-0,-2.413Zm-13.445,-2.052c-0.734,-0 -1.408,-0.145 -2.023,-0.434c-0.614,-0.289 -1.14,-0.689 -1.579,-1.2c-0.438,-0.512 -0.777,-1.1 -1.017,-1.767c-0.241,-0.666 -0.361,-1.373 -0.361,-2.12c0,-0.788 0.125,-1.524 0.375,-2.208c0.25,-0.683 0.604,-1.284 1.062,-1.801c0.458,-0.517 1,-0.921 1.626,-1.21c0.627,-0.289 1.32,-0.433 2.081,-0.433c0.859,-0 1.614,0.192 2.266,0.577c0.651,0.385 1.184,0.898 1.599,1.541l-0,-1.921l2.477,-0l0,10.388c0,1.077 -0.264,2.001 -0.793,2.772c-0.529,0.77 -1.256,1.361 -2.182,1.773c-0.925,0.412 -1.979,0.618 -3.162,0.618c-1.208,-0 -2.227,-0.2 -3.058,-0.599c-0.83,-0.399 -1.541,-0.954 -2.132,-1.665l1.545,-1.491c0.424,0.52 0.956,0.925 1.596,1.217c0.641,0.291 1.324,0.436 2.049,0.436c0.594,0 1.141,-0.107 1.642,-0.322c0.501,-0.215 0.903,-0.548 1.207,-1.001c0.304,-0.453 0.456,-1.032 0.456,-1.738l0,-1.371c-0.364,0.622 -0.88,1.104 -1.547,1.446c-0.667,0.342 -1.376,0.513 -2.127,0.513Zm-16.167,-3.289c-0,-0.712 0.202,-1.335 0.607,-1.866c0.405,-0.532 0.964,-0.946 1.678,-1.243c0.714,-0.296 1.536,-0.445 2.466,-0.445c0.468,0 0.941,0.037 1.417,0.11c0.476,0.074 0.894,0.184 1.253,0.33l0,-0.585c0,-0.689 -0.207,-1.221 -0.622,-1.597c-0.416,-0.375 -1.031,-0.563 -1.846,-0.563c-0.613,-0 -1.194,0.104 -1.744,0.313c-0.551,0.209 -1.129,0.512 -1.737,0.908l-0.895,-1.817c0.731,-0.479 1.48,-0.838 2.246,-1.074c0.767,-0.237 1.575,-0.355 2.427,-0.355c1.568,-0 2.794,0.388 3.678,1.165c0.884,0.776 1.326,1.89 1.326,3.339l-0,3.485c-0,0.291 0.05,0.498 0.151,0.621c0.102,0.122 0.274,0.194 0.517,0.214l-0,2.28c-0.247,0.047 -0.472,0.082 -0.676,0.105c-0.204,0.023 -0.38,0.035 -0.528,0.035c-0.564,-0 -0.99,-0.123 -1.278,-0.368c-0.289,-0.246 -0.466,-0.554 -0.532,-0.924l-0.061,-0.556c-0.486,0.618 -1.087,1.091 -1.805,1.421c-0.718,0.33 -1.451,0.495 -2.199,0.495c-0.733,0 -1.392,-0.151 -1.976,-0.452c-0.584,-0.302 -1.041,-0.712 -1.371,-1.231c-0.331,-0.52 -0.496,-1.101 -0.496,-1.745Zm24.558,-11.981l2.833,-0l-0,11.695c-0,0.509 0.086,0.85 0.258,1.024c0.172,0.173 0.4,0.26 0.684,0.26c0.239,-0 0.476,-0.03 0.712,-0.089c0.236,-0.06 0.443,-0.13 0.62,-0.212l0.391,2.137c-0.386,0.169 -0.831,0.305 -1.333,0.407c-0.502,0.102 -0.963,0.153 -1.382,0.153c-0.878,0 -1.561,-0.234 -2.05,-0.703c-0.488,-0.468 -0.733,-1.129 -0.733,-1.982l0,-12.69Zm26.442,15.201l-2.832,0l-0,-6.118c-0,-0.877 -0.155,-1.517 -0.463,-1.92c-0.308,-0.403 -0.737,-0.604 -1.285,-0.604c-0.381,-0 -0.765,0.098 -1.154,0.295c-0.389,0.196 -0.738,0.464 -1.046,0.803c-0.308,0.339 -0.537,0.73 -0.687,1.172l-0,6.372l-2.833,0l0,-10.907l2.559,-0l-0,2.012c0.283,-0.463 0.645,-0.859 1.084,-1.187c0.44,-0.328 0.943,-0.58 1.509,-0.757c0.566,-0.177 1.171,-0.265 1.812,-0.265c0.692,-0 1.257,0.122 1.696,0.367c0.44,0.244 0.778,0.573 1.015,0.986c0.237,0.412 0.4,0.873 0.49,1.381c0.09,0.509 0.135,1.027 0.135,1.554l-0,6.816Zm-44.119,-2.675c0.163,-0.156 0.294,-0.319 0.392,-0.49c0.099,-0.17 0.148,-0.324 0.148,-0.463l0,-1.109c-0.341,-0.129 -0.709,-0.231 -1.102,-0.306c-0.393,-0.074 -0.768,-0.111 -1.125,-0.111c-0.735,-0 -1.337,0.154 -1.808,0.462c-0.47,0.309 -0.705,0.719 -0.705,1.233c-0,0.278 0.077,0.543 0.233,0.794c0.155,0.251 0.38,0.454 0.674,0.609c0.294,0.155 0.649,0.233 1.065,0.233c0.425,-0 0.84,-0.08 1.243,-0.241c0.404,-0.16 0.733,-0.363 0.985,-0.611Zm10.247,0.512c0.306,-0 0.599,-0.049 0.88,-0.147c0.28,-0.098 0.541,-0.231 0.781,-0.397c0.24,-0.167 0.451,-0.363 0.634,-0.589c0.183,-0.225 0.322,-0.463 0.418,-0.712l0,-2.598c-0.165,-0.424 -0.4,-0.796 -0.703,-1.115c-0.302,-0.319 -0.642,-0.568 -1.018,-0.745c-0.376,-0.178 -0.763,-0.267 -1.161,-0.267c-0.436,0 -0.832,0.093 -1.187,0.279c-0.355,0.186 -0.659,0.439 -0.911,0.76c-0.253,0.32 -0.448,0.68 -0.586,1.078c-0.137,0.398 -0.206,0.809 -0.206,1.234c0,0.448 0.078,0.865 0.234,1.254c0.156,0.388 0.372,0.73 0.646,1.027c0.275,0.296 0.6,0.527 0.976,0.691c0.376,0.165 0.777,0.247 1.203,0.247Z" style="fill-rule:nonzero;"/></g><g id="console-logo-text-light"><rect x="55" y="-0" width="77" height="24" style="fill:none;"/><path d="M62.537,17.484c-0.819,0 -1.565,-0.15 -2.238,-0.45c-0.673,-0.3 -1.256,-0.715 -1.748,-1.245c-0.493,-0.53 -0.874,-1.137 -1.145,-1.82c-0.271,-0.684 -0.406,-1.409 -0.406,-2.176c-0,-1.033 0.229,-1.974 0.687,-2.825c0.458,-0.851 1.103,-1.531 1.936,-2.04c0.832,-0.509 1.797,-0.764 2.893,-0.764c1.069,0 2.002,0.241 2.8,0.722c0.798,0.481 1.391,1.126 1.78,1.935l-1.791,0.565c-0.277,-0.516 -0.666,-0.917 -1.165,-1.203c-0.5,-0.286 -1.055,-0.429 -1.666,-0.429c-0.666,0 -1.273,0.175 -1.821,0.523c-0.548,0.349 -0.982,0.827 -1.301,1.434c-0.319,0.607 -0.479,1.301 -0.479,2.082c0,0.767 0.163,1.461 0.49,2.082c0.326,0.62 0.763,1.112 1.311,1.475c0.548,0.363 1.155,0.544 1.821,0.544c0.43,-0 0.843,-0.077 1.239,-0.23c0.395,-0.154 0.742,-0.359 1.041,-0.617c0.298,-0.259 0.503,-0.541 0.614,-0.848l1.79,0.544c-0.222,0.53 -0.559,1.001 -1.01,1.413c-0.451,0.411 -0.985,0.735 -1.603,0.973c-0.617,0.237 -1.294,0.355 -2.029,0.355Zm33.971,0c-0.902,0 -1.749,-0.15 -2.54,-0.45c-0.791,-0.3 -1.471,-0.749 -2.04,-1.349l0.708,-1.298c0.625,0.586 1.249,1.005 1.874,1.256c0.624,0.251 1.262,0.376 1.915,0.376c0.749,0 1.36,-0.142 1.831,-0.428c0.472,-0.286 0.708,-0.708 0.708,-1.266c0,-0.405 -0.121,-0.705 -0.364,-0.9c-0.243,-0.195 -0.587,-0.359 -1.031,-0.492c-0.444,-0.132 -0.971,-0.282 -1.582,-0.45c-0.749,-0.223 -1.38,-0.46 -1.894,-0.711c-0.513,-0.251 -0.902,-0.565 -1.165,-0.942c-0.264,-0.376 -0.396,-0.851 -0.396,-1.423c0,-0.697 0.18,-1.287 0.541,-1.768c0.361,-0.481 0.857,-0.847 1.489,-1.098c0.631,-0.251 1.349,-0.377 2.154,-0.377c0.805,0 1.533,0.126 2.186,0.377c0.652,0.251 1.214,0.62 1.686,1.109l-0.833,1.276c-0.43,-0.446 -0.902,-0.778 -1.415,-0.994c-0.514,-0.216 -1.09,-0.324 -1.728,-0.324c-0.375,-0 -0.743,0.045 -1.103,0.136c-0.361,0.09 -0.659,0.251 -0.895,0.481c-0.236,0.23 -0.354,0.555 -0.354,0.973c-0,0.349 0.093,0.624 0.281,0.827c0.187,0.202 0.465,0.373 0.832,0.512c0.368,0.14 0.816,0.293 1.343,0.461c0.819,0.237 1.53,0.474 2.134,0.711c0.603,0.237 1.072,0.544 1.405,0.921c0.333,0.376 0.499,0.899 0.499,1.569c0,1.032 -0.388,1.838 -1.165,2.417c-0.778,0.579 -1.804,0.868 -3.081,0.868Zm-22.939,0c-0.819,0 -1.561,-0.15 -2.227,-0.45c-0.666,-0.3 -1.242,-0.711 -1.728,-1.234c-0.485,-0.523 -0.86,-1.125 -1.124,-1.806c-0.264,-0.681 -0.395,-1.401 -0.395,-2.159c-0,-0.773 0.131,-1.499 0.395,-2.18c0.264,-0.681 0.639,-1.283 1.124,-1.807c0.486,-0.523 1.065,-0.934 1.738,-1.234c0.673,-0.3 1.416,-0.45 2.228,-0.45c0.811,0 1.55,0.15 2.216,0.45c0.667,0.3 1.246,0.711 1.739,1.234c0.492,0.524 0.87,1.126 1.134,1.807c0.264,0.681 0.395,1.407 0.395,2.18c0,0.758 -0.131,1.478 -0.395,2.159c-0.264,0.681 -0.638,1.283 -1.124,1.806c-0.486,0.523 -1.065,0.934 -1.738,1.234c-0.673,0.3 -1.419,0.45 -2.238,0.45Zm33.763,0c-0.819,0 -1.561,-0.15 -2.227,-0.45c-0.666,-0.3 -1.242,-0.711 -1.728,-1.234c-0.486,-0.523 -0.86,-1.125 -1.124,-1.806c-0.264,-0.681 -0.396,-1.401 -0.396,-2.159c0,-0.773 0.132,-1.499 0.396,-2.18c0.264,-0.681 0.638,-1.283 1.124,-1.807c0.486,-0.523 1.065,-0.934 1.738,-1.234c0.673,-0.3 1.416,-0.45 2.227,-0.45c0.812,0 1.551,0.15 2.217,0.45c0.666,0.3 1.246,0.711 1.738,1.234c0.493,0.524 0.871,1.126 1.135,1.807c0.263,0.681 0.395,1.407 0.395,2.18c0,0.758 -0.132,1.478 -0.395,2.159c-0.264,0.681 -0.639,1.283 -1.124,1.806c-0.486,0.523 -1.065,0.934 -1.738,1.234c-0.673,0.3 -1.419,0.45 -2.238,0.45Zm17.214,0c-0.818,0 -1.564,-0.15 -2.237,-0.45c-0.673,-0.3 -1.256,-0.711 -1.749,-1.234c-0.492,-0.523 -0.874,-1.127 -1.145,-1.81c-0.27,-0.684 -0.406,-1.409 -0.406,-2.176c0,-1.033 0.236,-1.974 0.708,-2.825c0.472,-0.851 1.128,-1.535 1.967,-2.051c0.84,-0.516 1.801,-0.774 2.883,-0.774c1.096,0 2.05,0.262 2.862,0.785c0.812,0.523 1.443,1.206 1.894,2.05c0.451,0.844 0.677,1.754 0.677,2.731c-0,0.139 -0.003,0.275 -0.01,0.408c-0.007,0.133 -0.018,0.234 -0.032,0.303l-9.013,0c0.056,0.712 0.254,1.343 0.593,1.894c0.34,0.551 0.781,0.984 1.322,1.297c0.541,0.314 1.124,0.471 1.749,0.471c0.666,0 1.294,-0.167 1.884,-0.502c0.589,-0.335 0.995,-0.774 1.217,-1.318l1.582,0.439c-0.236,0.53 -0.586,1.005 -1.051,1.423c-0.465,0.419 -1.013,0.746 -1.644,0.984c-0.632,0.237 -1.315,0.355 -2.051,0.355Zm-9.721,-15.484l1.832,0l0,12.45c0,0.6 0.084,0.97 0.25,1.109c0.167,0.14 0.368,0.209 0.604,0.209c0.291,0 0.569,-0.031 0.832,-0.094c0.264,-0.063 0.486,-0.129 0.666,-0.199l0.292,1.507c-0.305,0.126 -0.666,0.23 -1.083,0.314c-0.416,0.084 -0.784,0.125 -1.103,0.125c-0.708,0 -1.266,-0.202 -1.675,-0.606c-0.41,-0.405 -0.615,-0.97 -0.615,-1.695l0,-13.12Zm-24.374,15.275l-1.832,-0l-0,-6.11c-0,-1.158 -0.177,-2.005 -0.531,-2.542c-0.354,-0.537 -0.892,-0.806 -1.613,-0.806c-0.5,0 -0.996,0.126 -1.489,0.377c-0.492,0.251 -0.929,0.589 -1.311,1.015c-0.382,0.425 -0.656,0.917 -0.822,1.475l-0,6.591l-1.832,-0l0,-10.923l1.665,0l0,2.344c0.292,-0.516 0.666,-0.963 1.124,-1.339c0.458,-0.377 0.979,-0.67 1.562,-0.879c0.582,-0.209 1.193,-0.314 1.831,-0.314c0.625,0 1.149,0.115 1.572,0.345c0.423,0.23 0.756,0.551 0.999,0.963c0.243,0.411 0.416,0.896 0.52,1.454c0.104,0.558 0.157,1.165 0.157,1.82l-0,6.529Zm-20.483,-5.421c0,0.754 0.163,1.438 0.489,2.052c0.326,0.614 0.76,1.099 1.301,1.454c0.541,0.356 1.145,0.534 1.811,0.534c0.666,-0 1.273,-0.181 1.822,-0.544c0.548,-0.363 0.985,-0.855 1.311,-1.475c0.326,-0.621 0.489,-1.308 0.489,-2.061c0,-0.754 -0.163,-1.437 -0.489,-2.051c-0.326,-0.614 -0.764,-1.102 -1.314,-1.465c-0.551,-0.362 -1.157,-0.544 -1.819,-0.544c-0.666,0 -1.271,0.186 -1.814,0.556c-0.543,0.371 -0.977,0.863 -1.301,1.476c-0.324,0.612 -0.486,1.302 -0.486,2.068Zm33.763,-0c-0,0.754 0.163,1.438 0.489,2.052c0.326,0.614 0.76,1.099 1.301,1.454c0.541,0.356 1.145,0.534 1.811,0.534c0.666,-0 1.273,-0.181 1.821,-0.544c0.548,-0.363 0.986,-0.855 1.312,-1.475c0.326,-0.621 0.489,-1.308 0.489,-2.061c-0,-0.754 -0.163,-1.437 -0.489,-2.051c-0.326,-0.614 -0.765,-1.102 -1.315,-1.465c-0.55,-0.362 -1.156,-0.544 -1.818,-0.544c-0.666,0 -1.271,0.186 -1.814,0.556c-0.544,0.371 -0.977,0.863 -1.301,1.476c-0.324,0.612 -0.486,1.302 -0.486,2.068Zm17.152,-0.689l7.41,-0c-0.055,-0.711 -0.257,-1.339 -0.604,-1.883c-0.346,-0.544 -0.791,-0.97 -1.332,-1.277c-0.541,-0.307 -1.138,-0.46 -1.79,-0.46c-0.638,0 -1.228,0.153 -1.769,0.46c-0.541,0.307 -0.982,0.733 -1.322,1.277c-0.34,0.544 -0.538,1.172 -0.593,1.883Z" style="fill-rule:nonzero;"/></g></g></svg>