<?xml version="1.0" encoding="UTF-8" standalone="no"?><!DOCTYPE svg PUBLIC "-//W3C//DTD SVG 1.1//EN" "http://www.w3.org/Graphics/SVG/1.1/DTD/svg11.dtd"><svg width="100%" height="100%" viewBox="0 0 79 24" version="1.1" xmlns="http://www.w3.org/2000/svg" xmlns:xlink="http://www.w3.org/1999/xlink" xml:space="preserve" xmlns:serif="http://www.serif.com/" style="fill-rule:evenodd;clip-rule:evenodd;stroke-linejoin:round;stroke-miterlimit:2;"><g id="aglyn-logo-full-white"><g id="aglyn-logo-mark-white"><rect x="0" y="0.037" width="24" height="24" style="fill:none;"/><path d="M5,16.242l-0.267,0.184l-1.733,0.151l-0,1.46l-1,-0l-0,4l4,-0l0,-1l7.171,-0l-0.148,-0.263l-0,-1.737l-7.023,-0l0,-1l-1,-0l0,-1.795Zm14,-7.234l0,9.029l-0.004,-0l0,2.737l-0.714,1.263l3.718,-0l0,-4l-1,-0l0,-10.273c-0.37,-0 -0.836,-0 -0.836,-0.001c-0.307,0.47 -0.697,0.894 -1.164,1.245Zm-16,0.145l2,-1.376l0,-1.74l1,-0l0,-1l4.748,-0l0.279,-0.193c0.025,-0.623 0.167,-1.237 0.416,-1.807l-5.443,-0l0,-1l-4,-0l-0,4l1,-0l-0,3.116Zm19,-7.116l-2.029,-0c0.067,0.088 0.131,0.179 0.192,0.273l1.281,-0l0.556,0.556l0,-0.829Z" style="fill:#fff;"/><path d="M15,10.037c0.323,0.073 0.661,0.112 1.01,0.112c0.348,0 0.687,-0.039 1.009,-0.112l0,10.217l-1.009,1.783l-1.01,-1.783l0,-10.217Zm-1.898,-4.221c-0.345,-1.28 0.196,-2.683 1.398,-3.377c1.434,-0.828 3.27,-0.336 4.098,1.098c0.139,0.241 0.241,0.493 0.307,0.75l1.72,-0l0.375,0.375l-0,0.75l-0.375,0.375l-1.721,-0c-0.194,0.752 -0.679,1.429 -1.404,1.848c-1.052,0.607 -2.319,0.504 -3.247,-0.159l-3.458,2.379l-0.252,1.364l-3.296,2.267l-1.363,-0.252l-1.843,1.267l-2.041,0.179l0.897,-1.842l1.826,-1.257c0,0 0.257,-1.39 0.257,-1.39l3.296,-2.268l1.39,0.258l3.436,-2.365Zm3.398,0.087c-0.478,0.276 -1.09,0.112 -1.366,-0.366c-0.276,-0.478 -0.112,-1.09 0.366,-1.366c0.478,-0.276 1.09,-0.112 1.366,0.366c0.276,0.478 0.112,1.09 -0.366,1.366Z" style="fill:#fff;"/></g><g id="aglyn-logo-text-white"><rect x="24" y="0.04" width="55" height="24" style="fill:none;"/><path d="M55.612,19.37c0.246,0.058 0.482,0.107 0.707,0.146c0.224,0.04 0.414,0.059 0.57,0.059c0.257,0 0.477,-0.065 0.658,-0.196c0.182,-0.13 0.355,-0.366 0.518,-0.706c0.163,-0.34 0.34,-0.815 0.53,-1.424l-4.385,-10.907l2.938,-0l2.995,8.058l2.618,-8.058l2.697,-0l-4.645,13.065c-0.165,0.495 -0.423,0.94 -0.774,1.338c-0.352,0.397 -0.781,0.709 -1.289,0.935c-0.507,0.226 -1.08,0.339 -1.717,0.339c-0.228,0 -0.457,-0.018 -0.686,-0.054c-0.229,-0.035 -0.475,-0.096 -0.735,-0.182l-0,-2.413Zm-13.445,-2.052c-0.734,-0 -1.408,-0.145 -2.023,-0.434c-0.614,-0.289 -1.14,-0.689 -1.579,-1.2c-0.438,-0.512 -0.777,-1.1 -1.017,-1.767c-0.241,-0.666 -0.361,-1.373 -0.361,-2.12c0,-0.788 0.125,-1.524 0.375,-2.208c0.25,-0.683 0.604,-1.283 1.062,-1.801c0.458,-0.517 1,-0.921 1.626,-1.21c0.627,-0.289 1.32,-0.433 2.081,-0.433c0.859,-0 1.614,0.192 2.266,0.577c0.651,0.385 1.184,0.898 1.599,1.541l-0,-1.921l2.477,-0l0,10.388c0,1.077 -0.264,2.001 -0.793,2.772c-0.529,0.77 -1.256,1.362 -2.182,1.773c-0.925,0.412 -1.979,0.618 -3.162,0.618c-1.208,-0 -2.227,-0.2 -3.058,-0.599c-0.83,-0.399 -1.541,-0.954 -2.132,-1.665l1.545,-1.491c0.424,0.52 0.956,0.925 1.596,1.217c0.641,0.291 1.324,0.436 2.049,0.436c0.594,0 1.141,-0.107 1.642,-0.322c0.501,-0.215 0.903,-0.548 1.207,-1.001c0.304,-0.453 0.456,-1.032 0.456,-1.738l0,-1.371c-0.364,0.622 -0.88,1.104 -1.547,1.446c-0.667,0.342 -1.376,0.513 -2.127,0.513Zm-16.167,-3.288c0,-0.713 0.202,-1.336 0.607,-1.867c0.405,-0.532 0.964,-0.946 1.678,-1.243c0.714,-0.296 1.536,-0.445 2.466,-0.445c0.468,0 0.941,0.037 1.417,0.11c0.476,0.074 0.894,0.184 1.253,0.33l0,-0.585c0,-0.689 -0.207,-1.221 -0.622,-1.597c-0.416,-0.375 -1.031,-0.563 -1.846,-0.563c-0.613,-0 -1.194,0.104 -1.744,0.313c-0.551,0.209 -1.129,0.512 -1.737,0.908l-0.895,-1.817c0.731,-0.479 1.48,-0.838 2.246,-1.074c0.767,-0.237 1.575,-0.355 2.427,-0.355c1.568,-0 2.794,0.388 3.678,1.165c0.884,0.776 1.326,1.89 1.326,3.339l-0,3.485c-0,0.291 0.05,0.498 0.151,0.621c0.102,0.122 0.274,0.194 0.517,0.214l-0,2.28c-0.247,0.047 -0.472,0.082 -0.676,0.105c-0.204,0.023 -0.38,0.035 -0.528,0.035c-0.564,-0 -0.99,-0.123 -1.278,-0.368c-0.289,-0.246 -0.466,-0.553 -0.532,-0.924l-0.061,-0.555c-0.486,0.617 -1.087,1.09 -1.805,1.42c-0.718,0.33 -1.451,0.495 -2.199,0.495c-0.733,0 -1.392,-0.15 -1.976,-0.452c-0.584,-0.302 -1.041,-0.712 -1.371,-1.231c-0.331,-0.52 -0.496,-1.101 -0.496,-1.744Zm24.558,-11.982l2.833,-0l-0,11.695c-0,0.509 0.086,0.851 0.258,1.024c0.172,0.173 0.4,0.26 0.684,0.26c0.239,-0 0.476,-0.03 0.712,-0.089c0.236,-0.06 0.443,-0.13 0.62,-0.212l0.391,2.138c-0.386,0.168 -0.831,0.304 -1.333,0.406c-0.502,0.102 -0.963,0.153 -1.382,0.153c-0.878,0 -1.561,-0.234 -2.05,-0.702c-0.488,-0.469 -0.733,-1.13 -0.733,-1.983l0,-12.69Zm26.442,15.201l-2.832,0l-0,-6.118c-0,-0.877 -0.155,-1.517 -0.463,-1.92c-0.308,-0.403 -0.737,-0.604 -1.285,-0.604c-0.381,-0 -0.765,0.098 -1.154,0.295c-0.389,0.196 -0.738,0.464 -1.046,0.803c-0.308,0.339 -0.537,0.73 -0.687,1.172l-0,6.372l-2.833,0l0,-10.907l2.559,-0l-0,2.012c0.283,-0.463 0.645,-0.859 1.084,-1.187c0.44,-0.328 0.943,-0.58 1.509,-0.757c0.566,-0.177 1.171,-0.265 1.812,-0.265c0.692,-0 1.257,0.122 1.696,0.367c0.44,0.244 0.778,0.573 1.015,0.986c0.237,0.413 0.4,0.873 0.49,1.381c0.09,0.509 0.135,1.027 0.135,1.554l0,6.816Zm-44.119,-2.674c0.163,-0.157 0.294,-0.32 0.392,-0.49c0.099,-0.171 0.148,-0.325 0.148,-0.464l0,-1.109c-0.341,-0.129 -0.709,-0.231 -1.102,-0.306c-0.393,-0.074 -0.768,-0.111 -1.125,-0.111c-0.735,-0 -1.337,0.154 -1.808,0.462c-0.47,0.309 -0.705,0.72 -0.705,1.233c-0,0.278 0.077,0.543 0.233,0.794c0.155,0.251 0.38,0.454 0.674,0.609c0.294,0.155 0.649,0.233 1.065,0.233c0.425,-0 0.84,-0.08 1.243,-0.241c0.404,-0.16 0.733,-0.363 0.985,-0.61Zm10.247,0.511c0.306,0 0.599,-0.049 0.88,-0.147c0.28,-0.098 0.541,-0.231 0.781,-0.397c0.24,-0.167 0.451,-0.363 0.634,-0.589c0.183,-0.225 0.322,-0.463 0.418,-0.712l0,-2.598c-0.165,-0.424 -0.4,-0.796 -0.703,-1.115c-0.302,-0.319 -0.642,-0.568 -1.018,-0.745c-0.376,-0.178 -0.763,-0.267 -1.161,-0.267c-0.436,0 -0.832,0.093 -1.187,0.279c-0.355,0.186 -0.659,0.439 -0.911,0.76c-0.253,0.32 -0.448,0.68 -0.586,1.078c-0.137,0.398 -0.206,0.809 -0.206,1.234c0,0.448 0.078,0.865 0.234,1.254c0.156,0.388 0.372,0.73 0.646,1.027c0.275,0.296 0.6,0.527 0.976,0.691c0.376,0.165 0.777,0.247 1.203,0.247Z" style="fill:#fff;fill-rule:nonzero;"/></g></g></svg>