<?xml version="1.0" encoding="UTF-8" standalone="no"?><!DOCTYPE svg PUBLIC "-//W3C//DTD SVG 1.1//EN" "http://www.w3.org/Graphics/SVG/1.1/DTD/svg11.dtd"><svg width="100%" height="100%" viewBox="0 0 77 24" version="1.1" xmlns="http://www.w3.org/2000/svg" xmlns:xlink="http://www.w3.org/1999/xlink" xml:space="preserve" xmlns:serif="http://www.serif.com/" style="fill-rule:evenodd;clip-rule:evenodd;stroke-linejoin:round;stroke-miterlimit:2;"><g id="console-logo-text-dark"><rect x="-0" y="-0.003" width="77" height="24" style="fill:none;"/><path d="M7.537,17.481c-0.819,-0 -1.565,-0.15 -2.238,-0.45c-0.673,-0.3 -1.256,-0.715 -1.748,-1.245c-0.493,-0.53 -0.874,-1.137 -1.145,-1.82c-0.271,-0.684 -0.406,-1.409 -0.406,-2.177c-0,-1.032 0.229,-1.974 0.687,-2.824c0.458,-0.851 1.103,-1.531 1.936,-2.041c0.832,-0.509 1.797,-0.763 2.893,-0.763c1.069,-0 2.002,0.24 2.8,0.722c0.798,0.481 1.391,1.126 1.78,1.935l-1.791,0.565c-0.277,-0.516 -0.666,-0.917 -1.165,-1.203c-0.5,-0.286 -1.055,-0.429 -1.666,-0.429c-0.666,-0 -1.273,0.174 -1.821,0.523c-0.548,0.349 -0.982,0.827 -1.301,1.433c-0.319,0.607 -0.479,1.301 -0.479,2.082c0,0.768 0.163,1.462 0.49,2.082c0.326,0.621 0.763,1.113 1.311,1.476c0.548,0.362 1.155,0.544 1.821,0.544c0.43,-0 0.843,-0.077 1.239,-0.231c0.395,-0.153 0.742,-0.359 1.041,-0.617c0.298,-0.258 0.503,-0.54 0.614,-0.847l1.79,0.544c-0.222,0.53 -0.559,1.001 -1.01,1.412c-0.451,0.412 -0.985,0.736 -1.603,0.973c-0.617,0.237 -1.294,0.356 -2.029,0.356Zm33.971,-0c-0.902,-0 -1.749,-0.15 -2.54,-0.45c-0.791,-0.3 -1.471,-0.75 -2.04,-1.35l0.708,-1.297c0.625,0.586 1.249,1.004 1.874,1.256c0.624,0.251 1.262,0.376 1.915,0.376c0.749,0 1.36,-0.143 1.831,-0.429c0.472,-0.286 0.708,-0.708 0.708,-1.266c0,-0.404 -0.121,-0.704 -0.364,-0.899c-0.243,-0.196 -0.587,-0.36 -1.031,-0.492c-0.444,-0.133 -0.971,-0.283 -1.582,-0.45c-0.749,-0.223 -1.38,-0.46 -1.894,-0.712c-0.513,-0.251 -0.902,-0.565 -1.165,-0.941c-0.264,-0.377 -0.396,-0.851 -0.396,-1.423c0,-0.698 0.18,-1.287 0.541,-1.768c0.361,-0.481 0.857,-0.848 1.489,-1.099c0.631,-0.251 1.349,-0.376 2.154,-0.376c0.805,-0 1.533,0.125 2.186,0.376c0.652,0.251 1.214,0.621 1.686,1.109l-0.833,1.277c-0.43,-0.447 -0.902,-0.778 -1.415,-0.994c-0.514,-0.216 -1.09,-0.325 -1.728,-0.325c-0.375,0 -0.743,0.046 -1.103,0.136c-0.361,0.091 -0.659,0.252 -0.895,0.482c-0.236,0.23 -0.354,0.554 -0.354,0.973c-0,0.348 0.093,0.624 0.281,0.826c0.187,0.203 0.465,0.373 0.832,0.513c0.368,0.139 0.816,0.293 1.343,0.46c0.819,0.237 1.53,0.475 2.134,0.712c0.603,0.237 1.072,0.544 1.405,0.92c0.333,0.377 0.499,0.9 0.499,1.57c0,1.032 -0.388,1.838 -1.165,2.417c-0.778,0.578 -1.804,0.868 -3.081,0.868Zm-22.939,-0c-0.819,-0 -1.561,-0.15 -2.227,-0.45c-0.666,-0.3 -1.242,-0.711 -1.728,-1.235c-0.485,-0.523 -0.86,-1.125 -1.124,-1.806c-0.264,-0.681 -0.395,-1.4 -0.395,-2.159c-0,-0.772 0.131,-1.499 0.395,-2.18c0.264,-0.681 0.639,-1.283 1.124,-1.806c0.486,-0.523 1.065,-0.935 1.738,-1.234c0.673,-0.3 1.416,-0.45 2.228,-0.45c0.811,-0 1.55,0.15 2.216,0.45c0.667,0.299 1.246,0.711 1.739,1.234c0.492,0.523 0.87,1.125 1.134,1.806c0.264,0.681 0.395,1.408 0.395,2.18c0,0.759 -0.131,1.478 -0.395,2.159c-0.264,0.681 -0.638,1.283 -1.124,1.806c-0.486,0.524 -1.065,0.935 -1.738,1.235c-0.673,0.3 -1.419,0.45 -2.238,0.45Zm33.763,-0c-0.819,-0 -1.561,-0.15 -2.227,-0.45c-0.666,-0.3 -1.242,-0.711 -1.728,-1.235c-0.486,-0.523 -0.86,-1.125 -1.124,-1.806c-0.264,-0.681 -0.396,-1.4 -0.396,-2.159c0,-0.772 0.132,-1.499 0.396,-2.18c0.264,-0.681 0.638,-1.283 1.124,-1.806c0.486,-0.523 1.065,-0.935 1.738,-1.234c0.673,-0.3 1.416,-0.45 2.227,-0.45c0.812,-0 1.551,0.15 2.217,0.45c0.666,0.299 1.246,0.711 1.738,1.234c0.493,0.523 0.871,1.125 1.135,1.806c0.263,0.681 0.395,1.408 0.395,2.18c0,0.759 -0.132,1.478 -0.395,2.159c-0.264,0.681 -0.639,1.283 -1.124,1.806c-0.486,0.524 -1.065,0.935 -1.738,1.235c-0.673,0.3 -1.419,0.45 -2.238,0.45Zm17.214,-0c-0.818,-0 -1.564,-0.15 -2.237,-0.45c-0.673,-0.3 -1.256,-0.711 -1.749,-1.235c-0.492,-0.523 -0.874,-1.126 -1.145,-1.81c-0.27,-0.683 -0.406,-1.408 -0.406,-2.176c0,-1.032 0.236,-1.974 0.708,-2.825c0.472,-0.85 1.128,-1.534 1.967,-2.05c0.84,-0.516 1.801,-0.774 2.883,-0.774c1.096,-0 2.05,0.261 2.862,0.784c0.812,0.523 1.443,1.207 1.894,2.051c0.451,0.844 0.677,1.754 0.677,2.731c-0,0.139 -0.003,0.275 -0.01,0.408c-0.007,0.132 -0.018,0.233 -0.032,0.303l-9.013,0c0.056,0.711 0.254,1.343 0.593,1.894c0.34,0.551 0.781,0.983 1.322,1.297c0.541,0.314 1.124,0.471 1.749,0.471c0.666,-0 1.294,-0.168 1.884,-0.502c0.589,-0.335 0.995,-0.775 1.217,-1.319l1.582,0.44c-0.236,0.53 -0.586,1.004 -1.051,1.423c-0.465,0.418 -1.013,0.746 -1.644,0.983c-0.632,0.237 -1.315,0.356 -2.051,0.356Zm-9.721,-15.484l1.832,-0l0,12.45c0,0.6 0.084,0.969 0.25,1.109c0.167,0.139 0.368,0.209 0.604,0.209c0.291,0 0.569,-0.031 0.832,-0.094c0.264,-0.063 0.486,-0.129 0.666,-0.199l0.292,1.507c-0.305,0.125 -0.666,0.23 -1.083,0.314c-0.416,0.083 -0.784,0.125 -1.103,0.125c-0.708,0 -1.266,-0.202 -1.675,-0.607c-0.41,-0.404 -0.615,-0.969 -0.615,-1.695l0,-13.119Zm-24.374,15.275l-1.832,-0l-0,-6.11c-0,-1.158 -0.177,-2.006 -0.531,-2.543c-0.354,-0.537 -0.892,-0.805 -1.613,-0.805c-0.5,-0 -0.996,0.125 -1.489,0.376c-0.492,0.251 -0.929,0.59 -1.311,1.015c-0.382,0.426 -0.656,0.917 -0.822,1.475l-0,6.592l-1.832,-0l0,-10.923l1.665,-0l0,2.344c0.292,-0.517 0.666,-0.963 1.124,-1.34c0.458,-0.376 0.979,-0.669 1.562,-0.878c0.582,-0.21 1.193,-0.314 1.831,-0.314c0.625,-0 1.149,0.115 1.572,0.345c0.423,0.23 0.756,0.551 0.999,0.962c0.243,0.412 0.416,0.897 0.52,1.455c0.104,0.558 0.157,1.165 0.157,1.82l-0,6.529Zm-20.483,-5.422c0,0.755 0.163,1.439 0.489,2.053c0.326,0.614 0.76,1.098 1.301,1.454c0.541,0.356 1.145,0.534 1.811,0.534c0.666,-0 1.273,-0.182 1.822,-0.544c0.548,-0.363 0.985,-0.855 1.311,-1.476c0.326,-0.62 0.489,-1.307 0.489,-2.061c0,-0.753 -0.163,-1.437 -0.489,-2.05c-0.326,-0.614 -0.764,-1.102 -1.314,-1.465c-0.551,-0.363 -1.157,-0.544 -1.819,-0.544c-0.666,-0 -1.271,0.185 -1.814,0.556c-0.543,0.371 -0.977,0.863 -1.301,1.475c-0.324,0.613 -0.486,1.302 -0.486,2.068Zm33.763,0c-0,0.755 0.163,1.439 0.489,2.053c0.326,0.614 0.76,1.098 1.301,1.454c0.541,0.356 1.145,0.534 1.811,0.534c0.666,-0 1.273,-0.182 1.821,-0.544c0.548,-0.363 0.986,-0.855 1.312,-1.476c0.326,-0.62 0.489,-1.307 0.489,-2.061c-0,-0.753 -0.163,-1.437 -0.489,-2.05c-0.326,-0.614 -0.765,-1.102 -1.315,-1.465c-0.55,-0.363 -1.156,-0.544 -1.818,-0.544c-0.666,-0 -1.271,0.185 -1.814,0.556c-0.544,0.371 -0.977,0.863 -1.301,1.475c-0.324,0.613 -0.486,1.302 -0.486,2.068Zm17.152,-0.688l7.41,-0c-0.055,-0.712 -0.257,-1.34 -0.604,-1.884c-0.346,-0.544 -0.791,-0.969 -1.332,-1.276c-0.541,-0.307 -1.138,-0.46 -1.79,-0.46c-0.638,-0 -1.228,0.153 -1.769,0.46c-0.541,0.307 -0.982,0.732 -1.322,1.276c-0.34,0.544 -0.538,1.172 -0.593,1.884Z" style="fill-rule:nonzero;"/></g></svg>