<?xml version="1.0" encoding="UTF-8" standalone="no"?><!DOCTYPE svg PUBLIC "-//W3C//DTD SVG 1.1//EN" "http://www.w3.org/Graphics/SVG/1.1/DTD/svg11.dtd"><svg width="100%" height="100%" viewBox="0 0 101 24" version="1.1" xmlns="http://www.w3.org/2000/svg" xmlns:xlink="http://www.w3.org/1999/xlink" xml:space="preserve" xmlns:serif="http://www.serif.com/" style="fill-rule:evenodd;clip-rule:evenodd;stroke-linejoin:round;stroke-miterlimit:2;"><g id="console-logo-full-light"><g id="aglyn-logo-mark-multi"><rect x="0" y="0.027" width="24" height="24" style="fill:none;"/><path d="M5,16.232l-0.267,0.183l-1.733,0.152l-0,1.46l-1,-0l-0,4l4,-0l0,-1l7.171,-0l-0.148,-0.263l-0,-1.737l-7.023,-0l0,-1l-1,-0l0,-1.795Zm14,-7.234l0,9.029l-0.004,-0l0,2.737l-0.714,1.263l3.718,-0l0,-4l-1,-0l0,-10.273c-0.37,-0 -0.836,-0 -0.836,-0.001c-0.307,0.47 -0.697,0.894 -1.164,1.245Zm-16,0.145l2,-1.376l0,-1.74l1,-0l0,-1l4.748,-0l0.279,-0.193c0.025,-0.623 0.167,-1.237 0.416,-1.807l-5.443,-0l0,-1l-4,-0l-0,4l1,-0l-0,3.116Zm19,-7.116l-2.029,-0c0.067,0.088 0.131,0.179 0.192,0.273l1.281,-0l0.556,0.556l0,-0.829Z" style="fill:#e040fb;" fill-rule="evenodd" clip-rule="evenodd"/><path d="M15,10.027c0.323,0.073 0.661,0.112 1.01,0.112c0.348,0 0.687,-0.039 1.009,-0.112l0,10.217l-1.009,1.783l-1.01,-1.783l0,-10.217Zm-1.898,-4.221c-0.345,-1.28 0.196,-2.683 1.398,-3.377c1.434,-0.828 3.27,-0.336 4.098,1.098c0.139,0.241 0.241,0.493 0.307,0.75l1.72,-0l0.375,0.375l-0,0.75l-0.375,0.375l-1.721,-0c-0.194,0.752 -0.679,1.429 -1.404,1.848c-1.052,0.607 -2.319,0.504 -3.247,-0.159l-3.458,2.379l-0.252,1.364l-3.296,2.267l-1.363,-0.252l-1.843,1.267l-2.041,0.179l0.897,-1.842l1.826,-1.257c0,0 0.257,-1.39 0.257,-1.39l3.296,-2.268l1.39,0.258l3.436,-2.365Zm3.398,0.087c-0.478,0.276 -1.09,0.112 -1.366,-0.366c-0.276,-0.478 -0.112,-1.09 0.366,-1.366c0.478,-0.276 1.09,-0.112 1.366,0.366c0.276,0.478 0.112,1.09 -0.366,1.366Z" style="fill:#00b0ff;" fill-rule="evenodd" clip-rule="evenodd"/></g><g id="console-logo-text-light"><rect x="24" y="0.03" width="77" height="24" style="fill:none;"/><path d="M31.537,17.514c-0.819,0 -1.565,-0.15 -2.238,-0.45c-0.673,-0.3 -1.256,-0.715 -1.748,-1.245c-0.493,-0.53 -0.874,-1.137 -1.145,-1.82c-0.271,-0.684 -0.406,-1.409 -0.406,-2.176c0,-1.033 0.229,-1.974 0.687,-2.825c0.458,-0.851 1.103,-1.531 1.936,-2.04c0.832,-0.509 1.797,-0.764 2.893,-0.764c1.069,0 2.002,0.241 2.8,0.722c0.798,0.481 1.391,1.126 1.78,1.935l-1.791,0.565c-0.277,-0.516 -0.666,-0.917 -1.165,-1.203c-0.5,-0.286 -1.055,-0.429 -1.666,-0.429c-0.666,0 -1.273,0.175 -1.821,0.523c-0.548,0.349 -0.982,0.827 -1.301,1.434c-0.319,0.607 -0.479,1.301 -0.479,2.082c0,0.767 0.163,1.461 0.49,2.082c0.326,0.621 0.763,1.112 1.311,1.475c0.548,0.363 1.155,0.544 1.821,0.544c0.43,-0 0.843,-0.077 1.239,-0.23c0.395,-0.154 0.742,-0.359 1.041,-0.617c0.298,-0.259 0.503,-0.541 0.614,-0.848l1.79,0.544c-0.222,0.53 -0.559,1.001 -1.01,1.413c-0.451,0.411 -0.985,0.735 -1.603,0.973c-0.617,0.237 -1.294,0.355 -2.029,0.355Zm33.971,0c-0.902,0 -1.749,-0.15 -2.54,-0.45c-0.791,-0.3 -1.471,-0.749 -2.04,-1.349l0.708,-1.298c0.625,0.586 1.249,1.005 1.874,1.256c0.624,0.251 1.262,0.377 1.915,0.377c0.749,-0 1.36,-0.143 1.831,-0.429c0.472,-0.286 0.708,-0.708 0.708,-1.266c0,-0.405 -0.121,-0.705 -0.364,-0.9c-0.243,-0.195 -0.587,-0.359 -1.031,-0.492c-0.444,-0.132 -0.971,-0.282 -1.582,-0.45c-0.749,-0.223 -1.38,-0.46 -1.894,-0.711c-0.513,-0.251 -0.902,-0.565 -1.165,-0.942c-0.264,-0.376 -0.396,-0.851 -0.396,-1.423c0,-0.697 0.18,-1.287 0.541,-1.768c0.361,-0.481 0.857,-0.847 1.489,-1.098c0.631,-0.251 1.349,-0.377 2.154,-0.377c0.805,0 1.533,0.126 2.186,0.377c0.652,0.251 1.214,0.62 1.686,1.109l-0.833,1.276c-0.43,-0.446 -0.902,-0.778 -1.415,-0.994c-0.514,-0.216 -1.09,-0.324 -1.728,-0.324c-0.375,-0 -0.743,0.045 -1.103,0.136c-0.361,0.091 -0.659,0.251 -0.895,0.481c-0.236,0.23 -0.354,0.555 -0.354,0.973c-0,0.349 0.093,0.624 0.281,0.827c0.187,0.202 0.465,0.373 0.832,0.512c0.368,0.14 0.816,0.293 1.343,0.461c0.819,0.237 1.53,0.474 2.134,0.711c0.603,0.237 1.072,0.544 1.405,0.921c0.333,0.376 0.499,0.899 0.499,1.569c0,1.032 -0.388,1.838 -1.165,2.417c-0.778,0.579 -1.804,0.868 -3.081,0.868Zm-22.939,0c-0.819,0 -1.561,-0.15 -2.227,-0.45c-0.666,-0.3 -1.242,-0.711 -1.728,-1.234c-0.485,-0.523 -0.86,-1.125 -1.124,-1.806c-0.264,-0.681 -0.395,-1.401 -0.395,-2.159c-0,-0.773 0.131,-1.499 0.395,-2.18c0.264,-0.681 0.639,-1.283 1.124,-1.807c0.486,-0.523 1.065,-0.934 1.738,-1.234c0.673,-0.3 1.416,-0.45 2.228,-0.45c0.811,0 1.55,0.15 2.216,0.45c0.667,0.3 1.246,0.711 1.739,1.234c0.492,0.524 0.87,1.126 1.134,1.807c0.264,0.681 0.395,1.407 0.395,2.18c0,0.758 -0.131,1.478 -0.395,2.159c-0.264,0.681 -0.638,1.283 -1.124,1.806c-0.486,0.523 -1.065,0.934 -1.738,1.234c-0.673,0.3 -1.419,0.45 -2.238,0.45Zm33.763,0c-0.819,0 -1.561,-0.15 -2.227,-0.45c-0.666,-0.3 -1.242,-0.711 -1.728,-1.234c-0.486,-0.523 -0.86,-1.125 -1.124,-1.806c-0.264,-0.681 -0.396,-1.401 -0.396,-2.159c0,-0.773 0.132,-1.499 0.396,-2.18c0.264,-0.681 0.638,-1.283 1.124,-1.807c0.486,-0.523 1.065,-0.934 1.738,-1.234c0.673,-0.3 1.416,-0.45 2.227,-0.45c0.812,0 1.551,0.15 2.217,0.45c0.666,0.3 1.246,0.711 1.738,1.234c0.493,0.524 0.871,1.126 1.135,1.807c0.263,0.681 0.395,1.407 0.395,2.18c0,0.758 -0.132,1.478 -0.395,2.159c-0.264,0.681 -0.639,1.283 -1.124,1.806c-0.486,0.523 -1.065,0.934 -1.738,1.234c-0.673,0.3 -1.419,0.45 -2.238,0.45Zm17.214,0c-0.818,0 -1.564,-0.15 -2.237,-0.45c-0.673,-0.3 -1.256,-0.711 -1.749,-1.234c-0.492,-0.523 -0.874,-1.127 -1.145,-1.81c-0.27,-0.684 -0.406,-1.409 -0.406,-2.176c0,-1.033 0.236,-1.974 0.708,-2.825c0.472,-0.851 1.128,-1.535 1.967,-2.051c0.84,-0.516 1.801,-0.774 2.883,-0.774c1.096,0 2.05,0.262 2.862,0.785c0.812,0.523 1.443,1.206 1.894,2.05c0.451,0.844 0.677,1.754 0.677,2.731c0,0.139 -0.003,0.275 -0.01,0.408c-0.007,0.133 -0.018,0.234 -0.032,0.303l-9.013,0c0.056,0.712 0.254,1.343 0.593,1.894c0.34,0.551 0.781,0.984 1.322,1.297c0.541,0.314 1.124,0.471 1.749,0.471c0.666,0 1.294,-0.167 1.884,-0.502c0.589,-0.335 0.995,-0.774 1.217,-1.318l1.582,0.439c-0.236,0.53 -0.586,1.005 -1.051,1.423c-0.465,0.419 -1.013,0.746 -1.644,0.984c-0.632,0.237 -1.315,0.355 -2.051,0.355Zm-9.721,-15.484l1.832,0l0,12.45c0,0.6 0.084,0.97 0.25,1.109c0.167,0.14 0.368,0.209 0.604,0.209c0.291,0 0.569,-0.031 0.832,-0.094c0.264,-0.063 0.486,-0.129 0.666,-0.199l0.292,1.507c-0.305,0.126 -0.666,0.23 -1.083,0.314c-0.416,0.084 -0.784,0.125 -1.103,0.125c-0.708,0 -1.266,-0.202 -1.675,-0.606c-0.41,-0.405 -0.615,-0.97 -0.615,-1.695l0,-13.12Zm-24.374,15.275l-1.832,0l-0,-6.11c-0,-1.158 -0.177,-2.005 -0.531,-2.542c-0.354,-0.537 -0.892,-0.806 -1.613,-0.806c-0.5,0 -0.996,0.126 -1.489,0.377c-0.492,0.251 -0.929,0.589 -1.311,1.015c-0.382,0.425 -0.656,0.917 -0.822,1.475l-0,6.591l-1.832,0l0,-10.923l1.665,0l0,2.344c0.292,-0.516 0.666,-0.963 1.124,-1.339c0.458,-0.377 0.979,-0.67 1.562,-0.879c0.582,-0.209 1.193,-0.314 1.831,-0.314c0.625,0 1.149,0.115 1.572,0.345c0.423,0.23 0.756,0.551 0.999,0.963c0.243,0.411 0.416,0.896 0.52,1.454c0.104,0.558 0.157,1.165 0.157,1.821l-0,6.528Zm-20.483,-5.421c0,0.754 0.163,1.438 0.489,2.052c0.326,0.614 0.76,1.099 1.301,1.454c0.541,0.356 1.145,0.534 1.811,0.534c0.666,-0 1.273,-0.181 1.822,-0.544c0.548,-0.363 0.985,-0.854 1.311,-1.475c0.326,-0.621 0.489,-1.308 0.489,-2.061c0,-0.754 -0.163,-1.437 -0.489,-2.051c-0.326,-0.614 -0.764,-1.102 -1.314,-1.465c-0.551,-0.362 -1.157,-0.544 -1.819,-0.544c-0.666,0 -1.271,0.186 -1.814,0.556c-0.543,0.371 -0.977,0.863 -1.301,1.476c-0.324,0.612 -0.486,1.302 -0.486,2.068Zm33.763,-0c-0,0.754 0.163,1.438 0.489,2.052c0.326,0.614 0.76,1.099 1.301,1.454c0.541,0.356 1.145,0.534 1.811,0.534c0.666,-0 1.273,-0.181 1.821,-0.544c0.548,-0.363 0.986,-0.854 1.312,-1.475c0.326,-0.621 0.489,-1.308 0.489,-2.061c-0,-0.754 -0.163,-1.437 -0.489,-2.051c-0.326,-0.614 -0.765,-1.102 -1.315,-1.465c-0.55,-0.362 -1.156,-0.544 -1.818,-0.544c-0.666,0 -1.271,0.186 -1.814,0.556c-0.544,0.371 -0.977,0.863 -1.301,1.476c-0.324,0.612 -0.486,1.302 -0.486,2.068Zm17.152,-0.689l7.41,0c-0.055,-0.711 -0.257,-1.339 -0.604,-1.883c-0.346,-0.544 -0.791,-0.97 -1.332,-1.277c-0.541,-0.307 -1.138,-0.46 -1.79,-0.46c-0.638,0 -1.228,0.153 -1.769,0.46c-0.541,0.307 -0.982,0.733 -1.322,1.277c-0.34,0.544 -0.538,1.172 -0.593,1.883Z" style="fill:#fff;fill-rule:nonzero;"/></g></g></svg>