<?xml version="1.0" encoding="UTF-8" standalone="no"?><!DOCTYPE svg PUBLIC "-//W3C//DTD SVG 1.1//EN" "http://www.w3.org/Graphics/SVG/1.1/DTD/svg11.dtd"><svg width="100%" height="100%" viewBox="0 0 24 24" version="1.1" xmlns="http://www.w3.org/2000/svg" xmlns:xlink="http://www.w3.org/1999/xlink" xml:space="preserve" xmlns:serif="http://www.serif.com/" style="fill-rule:evenodd;clip-rule:evenodd;stroke-linejoin:round;stroke-miterlimit:2;"><rect id="aglyn-logo-mark-multi" x="-0" y="0" width="24" height="24" style="fill:none;"/><path id="compass" d="M15,10c0.323,0.073 0.661,0.112 1.01,0.112c0.348,0 0.687,-0.039 1.009,-0.112l0,10.217l-1.009,1.783l-1.01,-1.783l0,-10.217Zm-1.898,-4.22c-0.345,-1.281 0.196,-2.684 1.398,-3.378c1.434,-0.828 3.27,-0.336 4.098,1.098c0.139,0.241 0.241,0.493 0.307,0.75l1.72,0l0.375,0.375l-0,0.75l-0.375,0.375l-1.721,0c-0.194,0.752 -0.679,1.429 -1.404,1.848c-1.052,0.607 -2.319,0.505 -3.247,-0.159l-3.458,2.379l-0.252,1.364l-3.296,2.267l-1.363,-0.252l-1.843,1.268l-2.041,0.179l0.897,-1.843l1.826,-1.256c0,-0 0.257,-1.391 0.257,-1.391l3.296,-2.267l1.39,0.257l3.436,-2.364Zm3.398,0.086c-0.478,0.276 -1.09,0.112 -1.366,-0.366c-0.276,-0.478 -0.112,-1.09 0.366,-1.366c0.478,-0.276 1.09,-0.112 1.366,0.366c0.276,0.478 0.112,1.09 -0.366,1.366Z" style="fill:#00b0ff;" fill-rule="evenodd" clip-rule="evenodd"/><path id="bounding-box" d="M5,16.088l0,1.912l1,0l0,1l7.009,0l0.001,1.151l0.476,0.849l-7.486,0l0,1l-4,0l-0,-4l1,0l-0,-1.729l2,-0.183Zm16,-8.838l0,10.75l1,0l0,4l-4,0l0,-0.049l1.01,-1.8l-0.007,-10.998c0.7,-0.506 1.241,-1.164 1.601,-1.903l0.396,0Zm-10.123,-2.364l-0.165,0.114l-4.712,0l0,1l-1,-0l0,1.713l-1.977,1.36l-0.023,0.123l-0,-3.196l-1,0l-0,-4l4,0l0,1l5.283,0c-0.252,0.596 -0.391,1.237 -0.406,1.886Zm11.123,-1.26l-0.876,-0.876l-0.52,0c-0.051,-0.105 -0.107,-0.209 -0.166,-0.312c-0.088,-0.152 -0.183,-0.299 -0.283,-0.438l1.845,0l0,1.626Z" style="fill:#e040fb;" fill-rule="evenodd" clip-rule="evenodd"/></svg>