<?xml version="1.0" encoding="UTF-8" standalone="no"?><!DOCTYPE svg PUBLIC "-//W3C//DTD SVG 1.1//EN" "http://www.w3.org/Graphics/SVG/1.1/DTD/svg11.dtd"><svg width="100%" height="100%" viewBox="0 0 156 24" version="1.1" xmlns="http://www.w3.org/2000/svg" xmlns:xlink="http://www.w3.org/1999/xlink" xml:space="preserve" xmlns:serif="http://www.serif.com/" style="fill-rule:evenodd;clip-rule:evenodd;stroke-linejoin:round;stroke-miterlimit:2;"><rect id="aglyn-console-logo-full-dark" x="0" y="0" width="156" height="24" style="fill:none;"/><path id="compass" d="M15,10c0.323,0.073 0.661,0.112 1.01,0.112c0.348,0 0.687,-0.039 1.009,-0.112l0,10.217l-1.009,1.783l-1.01,-1.783l0,-10.217Zm-1.898,-4.22c-0.345,-1.281 0.196,-2.684 1.398,-3.378c1.434,-0.828 3.27,-0.336 4.098,1.098c0.139,0.241 0.241,0.493 0.307,0.75l1.72,0l0.375,0.375l-0,0.75l-0.375,0.375l-1.721,0c-0.194,0.752 -0.679,1.429 -1.404,1.848c-1.052,0.607 -2.319,0.505 -3.247,-0.159l-3.458,2.379l-0.252,1.364l-3.296,2.267l-1.363,-0.252l-1.843,1.268l-2.041,0.179l0.897,-1.843l1.826,-1.256c0,-0 0.257,-1.391 0.257,-1.391l3.296,-2.267l1.39,0.257l3.436,-2.364Zm3.398,0.086c-0.478,0.276 -1.09,0.112 -1.366,-0.366c-0.276,-0.478 -0.112,-1.09 0.366,-1.366c0.478,-0.276 1.09,-0.112 1.366,0.366c0.276,0.478 0.112,1.09 -0.366,1.366Z" style="fill:#00b0ff;" fill-rule="evenodd" clip-rule="evenodd"/><path id="bounding-box" d="M5,16.088l0,1.912l1,0l0,1l7.009,0l0.001,1.151l0.476,0.849l-7.486,0l0,1l-4,0l-0,-4l1,0l-0,-1.729l2,-0.183Zm16,-8.838l0,10.75l1,0l0,4l-4,0l0,-0.049l1.01,-1.8l-0.007,-10.998c0.7,-0.506 1.241,-1.164 1.601,-1.903l0.396,0Zm-10.123,-2.364l-0.165,0.114l-4.712,0l0,1l-1,-0l0,1.713l-1.977,1.36l-0.023,0.123l-0,-3.196l-1,0l-0,-4l4,0l0,1l5.283,0c-0.252,0.596 -0.391,1.237 -0.406,1.886Zm11.123,-1.26l-0.876,-0.876l-0.52,0c-0.051,-0.105 -0.107,-0.209 -0.166,-0.312c-0.088,-0.152 -0.183,-0.299 -0.283,-0.438l1.845,0l0,1.626Z" style="fill:#e040fb;" fill-rule="evenodd" clip-rule="evenodd"/><path d="M55.612,19.33c0.246,0.058 0.482,0.106 0.707,0.146c0.224,0.04 0.414,0.059 0.57,0.059c0.257,0 0.477,-0.065 0.658,-0.196c0.182,-0.13 0.355,-0.366 0.518,-0.706c0.163,-0.34 0.34,-0.815 0.53,-1.424l-4.385,-10.907l2.938,-0l2.995,8.058l2.618,-8.058l2.697,-0l-4.645,13.065c-0.165,0.494 -0.423,0.94 -0.774,1.338c-0.352,0.397 -0.781,0.709 -1.289,0.935c-0.507,0.226 -1.08,0.339 -1.717,0.339c-0.228,-0 -0.457,-0.018 -0.686,-0.054c-0.229,-0.035 -0.475,-0.096 -0.735,-0.182l-0,-2.413Zm-13.445,-2.052c-0.734,-0 -1.408,-0.145 -2.023,-0.434c-0.614,-0.289 -1.14,-0.689 -1.579,-1.2c-0.438,-0.512 -0.777,-1.1 -1.017,-1.767c-0.241,-0.666 -0.361,-1.373 -0.361,-2.12c0,-0.788 0.125,-1.524 0.375,-2.208c0.25,-0.683 0.604,-1.284 1.062,-1.801c0.458,-0.517 1,-0.921 1.626,-1.21c0.627,-0.289 1.32,-0.433 2.081,-0.433c0.859,-0 1.614,0.192 2.266,0.577c0.651,0.385 1.184,0.898 1.599,1.541l-0,-1.921l2.477,-0l0,10.388c0,1.077 -0.264,2.001 -0.793,2.772c-0.529,0.77 -1.256,1.361 -2.182,1.773c-0.925,0.412 -1.979,0.618 -3.162,0.618c-1.208,-0 -2.227,-0.2 -3.058,-0.599c-0.83,-0.399 -1.541,-0.954 -2.132,-1.665l1.545,-1.491c0.424,0.52 0.956,0.925 1.596,1.217c0.641,0.291 1.324,0.436 2.049,0.436c0.594,0 1.141,-0.107 1.642,-0.322c0.501,-0.215 0.903,-0.548 1.207,-1.001c0.304,-0.453 0.456,-1.032 0.456,-1.738l0,-1.371c-0.364,0.622 -0.88,1.104 -1.547,1.446c-0.667,0.342 -1.376,0.513 -2.127,0.513Zm-16.167,-3.289c0,-0.712 0.202,-1.335 0.607,-1.866c0.405,-0.532 0.964,-0.946 1.678,-1.243c0.714,-0.296 1.536,-0.445 2.466,-0.445c0.468,0 0.941,0.037 1.417,0.11c0.476,0.074 0.894,0.184 1.253,0.33l0,-0.585c0,-0.689 -0.207,-1.221 -0.622,-1.597c-0.416,-0.375 -1.031,-0.563 -1.846,-0.563c-0.613,-0 -1.194,0.104 -1.744,0.313c-0.551,0.209 -1.129,0.512 -1.737,0.908l-0.895,-1.817c0.731,-0.479 1.48,-0.838 2.246,-1.074c0.767,-0.237 1.575,-0.355 2.427,-0.355c1.568,-0 2.794,0.388 3.678,1.165c0.884,0.776 1.326,1.89 1.326,3.339l-0,3.485c-0,0.291 0.05,0.498 0.151,0.621c0.102,0.122 0.274,0.194 0.517,0.214l-0,2.28c-0.247,0.047 -0.472,0.082 -0.676,0.105c-0.204,0.023 -0.38,0.035 -0.528,0.035c-0.564,-0 -0.99,-0.123 -1.278,-0.368c-0.289,-0.246 -0.466,-0.554 -0.532,-0.924l-0.061,-0.556c-0.486,0.618 -1.087,1.091 -1.805,1.421c-0.718,0.33 -1.451,0.495 -2.199,0.495c-0.733,0 -1.392,-0.151 -1.976,-0.452c-0.584,-0.302 -1.041,-0.712 -1.371,-1.231c-0.331,-0.52 -0.496,-1.101 -0.496,-1.745Zm24.558,-11.981l2.833,-0l-0,11.695c-0,0.509 0.086,0.85 0.258,1.024c0.172,0.173 0.4,0.26 0.684,0.26c0.239,-0 0.476,-0.03 0.712,-0.089c0.236,-0.06 0.443,-0.13 0.62,-0.212l0.391,2.137c-0.386,0.169 -0.831,0.305 -1.333,0.407c-0.502,0.102 -0.963,0.153 -1.382,0.153c-0.878,0 -1.561,-0.234 -2.05,-0.703c-0.488,-0.468 -0.733,-1.129 -0.733,-1.982l0,-12.69Zm26.442,15.201l-2.832,0l-0,-6.118c-0,-0.877 -0.155,-1.517 -0.463,-1.92c-0.308,-0.403 -0.737,-0.604 -1.285,-0.604c-0.381,-0 -0.765,0.098 -1.154,0.295c-0.389,0.196 -0.738,0.464 -1.046,0.803c-0.308,0.339 -0.537,0.73 -0.687,1.172l-0,6.372l-2.833,0l0,-10.907l2.559,-0l-0,2.012c0.283,-0.463 0.645,-0.859 1.084,-1.187c0.44,-0.328 0.943,-0.58 1.509,-0.757c0.566,-0.177 1.171,-0.265 1.812,-0.265c0.692,-0 1.257,0.122 1.696,0.367c0.44,0.244 0.778,0.573 1.015,0.986c0.237,0.412 0.4,0.873 0.49,1.381c0.09,0.509 0.135,1.027 0.135,1.554l-0,6.816Zm-44.119,-2.675c0.163,-0.156 0.294,-0.319 0.392,-0.49c0.099,-0.17 0.148,-0.324 0.148,-0.463l0,-1.109c-0.341,-0.129 -0.709,-0.231 -1.102,-0.306c-0.393,-0.074 -0.768,-0.111 -1.125,-0.111c-0.735,-0 -1.337,0.154 -1.808,0.462c-0.47,0.309 -0.705,0.719 -0.705,1.233c-0,0.278 0.077,0.543 0.233,0.794c0.155,0.251 0.38,0.454 0.674,0.609c0.294,0.155 0.649,0.233 1.065,0.233c0.425,-0 0.84,-0.08 1.243,-0.241c0.404,-0.16 0.733,-0.363 0.985,-0.611Zm10.247,0.512c0.306,-0 0.599,-0.049 0.88,-0.147c0.28,-0.098 0.541,-0.231 0.781,-0.397c0.24,-0.167 0.451,-0.363 0.634,-0.589c0.183,-0.225 0.322,-0.463 0.418,-0.712l0,-2.598c-0.165,-0.424 -0.4,-0.796 -0.703,-1.115c-0.302,-0.319 -0.642,-0.568 -1.018,-0.745c-0.376,-0.178 -0.763,-0.267 -1.161,-0.267c-0.436,0 -0.832,0.093 -1.187,0.279c-0.355,0.186 -0.659,0.439 -0.911,0.76c-0.253,0.32 -0.448,0.68 -0.586,1.078c-0.137,0.398 -0.206,0.809 -0.206,1.234c0,0.448 0.078,0.865 0.234,1.254c0.156,0.388 0.372,0.73 0.646,1.027c0.275,0.296 0.6,0.527 0.976,0.691c0.376,0.165 0.777,0.247 1.203,0.247Z" style="fill:#00b0ff;fill-rule:nonzero;"/><path d="M86.537,17.5c-0.819,0 -1.565,-0.15 -2.238,-0.45c-0.673,-0.3 -1.256,-0.716 -1.748,-1.246c-0.493,-0.531 -0.874,-1.138 -1.145,-1.822c-0.271,-0.684 -0.406,-1.41 -0.406,-2.178c0,-1.033 0.229,-1.976 0.687,-2.828c0.458,-0.851 1.103,-1.532 1.936,-2.041c0.832,-0.51 1.797,-0.765 2.893,-0.765c1.069,0 2.002,0.241 2.8,0.723c0.798,0.481 1.391,1.127 1.78,1.937l-1.791,0.565c-0.277,-0.516 -0.666,-0.918 -1.165,-1.204c-0.5,-0.286 -1.055,-0.429 -1.666,-0.429c-0.666,-0 -1.273,0.174 -1.821,0.523c-0.548,0.349 -0.982,0.828 -1.301,1.435c-0.319,0.607 -0.479,1.302 -0.479,2.084c0,0.768 0.163,1.462 0.49,2.083c0.326,0.622 0.763,1.114 1.311,1.477c0.548,0.363 1.155,0.544 1.821,0.544c0.43,0 0.843,-0.076 1.239,-0.23c0.395,-0.154 0.742,-0.36 1.041,-0.618c0.298,-0.258 0.503,-0.541 0.614,-0.848l1.79,0.545c-0.222,0.53 -0.559,1.001 -1.01,1.413c-0.451,0.412 -0.985,0.737 -1.603,0.974c-0.617,0.237 -1.294,0.356 -2.029,0.356Zm33.971,0c-0.902,0 -1.749,-0.15 -2.54,-0.45c-0.791,-0.3 -1.471,-0.751 -2.04,-1.351l0.708,-1.298c0.625,0.586 1.249,1.005 1.874,1.256c0.624,0.251 1.262,0.377 1.915,0.377c0.749,0 1.36,-0.143 1.831,-0.429c0.472,-0.287 0.708,-0.709 0.708,-1.267c0,-0.405 -0.121,-0.705 -0.364,-0.901c-0.243,-0.195 -0.587,-0.359 -1.031,-0.492c-0.444,-0.133 -0.971,-0.283 -1.582,-0.45c-0.749,-0.224 -1.38,-0.461 -1.894,-0.712c-0.513,-0.252 -0.902,-0.566 -1.165,-0.943c-0.264,-0.377 -0.396,-0.851 -0.396,-1.424c0,-0.698 0.18,-1.288 0.541,-1.769c0.361,-0.482 0.857,-0.849 1.489,-1.1c0.631,-0.251 1.349,-0.377 2.154,-0.377c0.805,0 1.533,0.126 2.186,0.377c0.652,0.251 1.214,0.621 1.686,1.11l-0.833,1.278c-0.43,-0.447 -0.902,-0.779 -1.415,-0.995c-0.514,-0.217 -1.09,-0.325 -1.728,-0.325c-0.375,0 -0.743,0.046 -1.103,0.136c-0.361,0.091 -0.659,0.252 -0.895,0.482c-0.236,0.23 -0.354,0.555 -0.354,0.974c-0,0.349 0.093,0.625 0.281,0.827c0.187,0.202 0.465,0.374 0.832,0.513c0.368,0.14 0.816,0.293 1.343,0.461c0.819,0.237 1.53,0.475 2.134,0.712c0.603,0.237 1.072,0.544 1.405,0.921c0.333,0.377 0.499,0.901 0.499,1.571c0,1.033 -0.388,1.839 -1.165,2.419c-0.778,0.579 -1.804,0.869 -3.081,0.869Zm-22.939,0c-0.819,0 -1.561,-0.15 -2.227,-0.45c-0.666,-0.3 -1.242,-0.712 -1.728,-1.236c-0.485,-0.523 -0.86,-1.126 -1.124,-1.808c-0.264,-0.681 -0.395,-1.402 -0.395,-2.16c-0,-0.773 0.131,-1.501 0.395,-2.182c0.264,-0.682 0.639,-1.284 1.124,-1.808c0.486,-0.524 1.065,-0.935 1.738,-1.236c0.673,-0.3 1.416,-0.45 2.228,-0.45c0.811,0 1.55,0.15 2.216,0.45c0.667,0.301 1.246,0.712 1.739,1.236c0.492,0.524 0.87,1.126 1.134,1.808c0.264,0.681 0.395,1.409 0.395,2.182c0,0.758 -0.131,1.479 -0.395,2.16c-0.264,0.682 -0.638,1.285 -1.124,1.808c-0.486,0.524 -1.065,0.936 -1.738,1.236c-0.673,0.3 -1.419,0.45 -2.238,0.45Zm33.763,0c-0.819,0 -1.561,-0.15 -2.227,-0.45c-0.666,-0.3 -1.242,-0.712 -1.728,-1.236c-0.486,-0.523 -0.86,-1.126 -1.124,-1.808c-0.264,-0.681 -0.396,-1.402 -0.396,-2.16c0,-0.773 0.132,-1.501 0.396,-2.182c0.264,-0.682 0.638,-1.284 1.124,-1.808c0.486,-0.524 1.065,-0.935 1.738,-1.236c0.673,-0.3 1.416,-0.45 2.227,-0.45c0.812,0 1.551,0.15 2.217,0.45c0.666,0.301 1.246,0.712 1.738,1.236c0.493,0.524 0.871,1.126 1.135,1.808c0.263,0.681 0.395,1.409 0.395,2.182c0,0.758 -0.132,1.479 -0.395,2.16c-0.264,0.682 -0.639,1.285 -1.124,1.808c-0.486,0.524 -1.065,0.936 -1.738,1.236c-0.673,0.3 -1.419,0.45 -2.238,0.45Zm17.214,0c-0.818,0 -1.564,-0.15 -2.237,-0.45c-0.673,-0.3 -1.256,-0.712 -1.749,-1.236c-0.492,-0.523 -0.874,-1.127 -1.145,-1.811c-0.27,-0.685 -0.406,-1.411 -0.406,-2.178c0,-1.034 0.236,-1.976 0.708,-2.828c0.472,-0.851 1.128,-1.535 1.967,-2.052c0.84,-0.517 1.801,-0.775 2.883,-0.775c1.096,0 2.05,0.262 2.862,0.785c0.812,0.524 1.443,1.208 1.894,2.053c0.451,0.845 0.677,1.756 0.677,2.733c-0,0.139 -0.003,0.276 -0.01,0.408c-0.007,0.133 -0.018,0.234 -0.032,0.304l-9.013,-0c0.056,0.712 0.254,1.344 0.593,1.895c0.34,0.552 0.781,0.984 1.322,1.299c0.541,0.314 1.124,0.471 1.749,0.471c0.666,-0 1.294,-0.168 1.884,-0.503c0.589,-0.335 0.995,-0.775 1.217,-1.319l1.582,0.44c-0.236,0.53 -0.586,1.005 -1.051,1.424c-0.465,0.419 -1.013,0.747 -1.644,0.984c-0.632,0.237 -1.315,0.356 -2.051,0.356Zm-9.721,-15.497l1.832,-0l0,12.46c0,0.601 0.084,0.971 0.25,1.11c0.167,0.14 0.368,0.21 0.604,0.21c0.291,-0 0.569,-0.032 0.832,-0.095c0.264,-0.062 0.486,-0.129 0.666,-0.198l0.292,1.507c-0.305,0.126 -0.666,0.231 -1.083,0.315c-0.416,0.083 -0.784,0.125 -1.103,0.125c-0.708,0 -1.266,-0.202 -1.675,-0.607c-0.41,-0.405 -0.615,-0.97 -0.615,-1.696l0,-13.131Zm-24.374,15.288l-1.832,-0l-0,-6.116c-0,-1.158 -0.177,-2.007 -0.531,-2.544c-0.354,-0.538 -0.892,-0.806 -1.613,-0.806c-0.5,-0 -0.996,0.125 -1.489,0.377c-0.492,0.251 -0.929,0.589 -1.311,1.015c-0.382,0.426 -0.656,0.918 -0.822,1.477l-0,6.597l-1.832,-0l0,-10.932l1.665,-0l0,2.345c0.292,-0.516 0.666,-0.963 1.124,-1.34c0.458,-0.377 0.979,-0.67 1.562,-0.88c0.582,-0.209 1.193,-0.314 1.831,-0.314c0.625,0 1.149,0.115 1.572,0.346c0.423,0.23 0.756,0.551 0.999,0.963c0.243,0.412 0.416,0.897 0.52,1.456c0.104,0.558 0.157,1.165 0.157,1.822l-0,6.534Zm-20.483,-5.426c0,0.755 0.163,1.44 0.489,2.054c0.326,0.614 0.76,1.099 1.301,1.455c0.541,0.356 1.145,0.534 1.811,0.534c0.666,0 1.273,-0.181 1.822,-0.544c0.548,-0.363 0.985,-0.855 1.311,-1.477c0.326,-0.621 0.489,-1.308 0.489,-2.062c0,-0.754 -0.163,-1.438 -0.489,-2.053c-0.326,-0.614 -0.764,-1.103 -1.314,-1.466c-0.551,-0.363 -1.157,-0.544 -1.819,-0.544c-0.666,-0 -1.271,0.185 -1.814,0.556c-0.543,0.371 -0.977,0.864 -1.301,1.477c-0.324,0.613 -0.486,1.303 -0.486,2.07Zm33.763,-0c-0,0.755 0.163,1.44 0.489,2.054c0.326,0.614 0.76,1.099 1.301,1.455c0.541,0.356 1.145,0.534 1.811,0.534c0.666,0 1.273,-0.181 1.821,-0.544c0.548,-0.363 0.986,-0.855 1.312,-1.477c0.326,-0.621 0.489,-1.308 0.489,-2.062c-0,-0.754 -0.163,-1.438 -0.489,-2.053c-0.326,-0.614 -0.765,-1.103 -1.315,-1.466c-0.55,-0.363 -1.156,-0.544 -1.818,-0.544c-0.666,-0 -1.271,0.185 -1.814,0.556c-0.544,0.371 -0.977,0.864 -1.301,1.477c-0.324,0.613 -0.486,1.303 -0.486,2.07Zm17.152,-0.69l7.41,0c-0.055,-0.712 -0.257,-1.34 -0.604,-1.884c-0.346,-0.545 -0.791,-0.971 -1.332,-1.278c-0.541,-0.307 -1.138,-0.461 -1.79,-0.461c-0.638,0 -1.228,0.154 -1.769,0.461c-0.541,0.307 -0.982,0.733 -1.322,1.278c-0.34,0.544 -0.538,1.172 -0.593,1.884Z" style="fill-rule:nonzero;"/></svg>