<!--*
  * @license
  * Copyright 2023 Aglyn LLC
  *
  * Licensed under the Apache License, Version 2.0 (the "License");
  * you may not use this file except in compliance with the License.
  * You may obtain a copy of the License at
  *
  *   http://www.apache.org/licenses/LICENSE-2.0
  *
  * Unless required by applicable law or agreed to in writing, software
  * distributed under the License is distributed on an "AS IS" BASIS,
  * WITHOUT WARRANTIES OR CONDITIONS OF ANY KIND, either express or implied.
  * See the License for the specific language governing permissions and
  * limitations under the License.
  -->

<svg xmlns="http://www.w3.org/2000/svg" fill="none" viewBox="0 0 13 13">
  <path fill="currentColor" fill-rule="evenodd" d="M3 2H2v3h1V2ZM2 1a1 1 0 0 0-1 1v3a1 1 0 0 0 1 1h1a1 1 0 0 0 1-1V2a1 1 0 0 0-1-1H2Z" clip-rule="evenodd"/>
  <path fill="currentColor" d="M1 8a1 1 0 0 1 1-1h1a1 1 0 0 1 1 1v3a1 1 0 0 1-1 1H2a1 1 0 0 1-1-1V8Z"/>
  <path fill="currentColor" fill-rule="evenodd" d="M11 2h-1v3h1V2Zm-1-1a1 1 0 0 0-1 1v3a1 1 0 0 0 1 1h1a1 1 0 0 0 1-1V2a1 1 0 0 0-1-1h-1Z" clip-rule="evenodd"/>
  <path fill="currentColor" d="M9 8a1 1 0 0 1 1-1h1a1 1 0 0 1 1 1v3a1 1 0 0 1-1 1h-1a1 1 0 0 1-1-1V8ZM5 2a1 1 0 0 1 1-1h1a1 1 0 0 1 1 1v3a1 1 0 0 1-1 1H6a1 1 0 0 1-1-1V2Z"/>
  <path fill="currentColor" fill-rule="evenodd" d="M7 8H6v3h1V8ZM6 7a1 1 0 0 0-1 1v3a1 1 0 0 0 1 1h1a1 1 0 0 0 1-1V8a1 1 0 0 0-1-1H6Z" clip-rule="evenodd"/>
</svg>
