<!--*
  * @license
  * Copyright 2023 Aglyn LLC
  *
  * Licensed under the Apache License, Version 2.0 (the "License");
  * you may not use this file except in compliance with the License.
  * You may obtain a copy of the License at
  *
  *   http://www.apache.org/licenses/LICENSE-2.0
  *
  * Unless required by applicable law or agreed to in writing, software
  * distributed under the License is distributed on an "AS IS" BASIS,
  * WITHOUT WARRANTIES OR CONDITIONS OF ANY KIND, either express or implied.
  * See the License for the specific language governing permissions and
  * limitations under the License.
  -->

<svg xmlns="http://www.w3.org/2000/svg" fill="none" viewBox="0 0 13 13">
  <path fill="currentColor" d="M12 1h-1v11h1zM6 1H5v11h1z"/>
  <path fill="currentColor" d="M12 7H8a1 1 0 0 0-1 1v1a1 1 0 0 0 1 1h4zM6 7H2a1 1 0 0 0-1 1v1a1 1 0 0 0 1 1h4Zm6-4H9a1 1 0 0 0-1 1v1a1 1 0 0 0 1 1h3zM6 3H3a1 1 0 0 0-1 1v1a1 1 0 0 0 1 1h3z"/>
</svg>
